<?xml version="1.0" standalone="no"?>
<!DOCTYPE svg PUBLIC "-//W3C//DTD SVG 1.1//EN" "http://www.w3.org/Graphics/SVG/1.1/DTD/svg11.dtd" >
<svg>
<metadata>
Created by FontForge 20120731 at Fri Mar  1 11:21:41 2019
 By Apache
Copyright (c) Mark Simonson, 2005. All rights reserved.
</metadata>
<defs>
<font id="ProximaNovaExCn-RegularIt" horiz-adv-x="378" >
  <font-face 
    font-family="Proxima Nova ExCn Rg"
    font-weight="400"
    font-style="italic"
    font-stretch="normal"
    units-per-em="1000"
    panose-1="2 0 5 6 3 0 0 2 0 4"
    ascent="790"
    descent="-210"
    x-height="483"
    cap-height="667"
    bbox="-154 -264 830 886"
    underline-thickness="20"
    underline-position="-113"
    stemh="67"
    stemv="73"
    unicode-range="U+000D-FB04"
  />
<missing-glyph horiz-adv-x="476" 
d="M434 -90h-351v842h351v-842zM402 -60v782h-288v-782h288z" />
    <glyph glyph-name="f_b" unicode="fb" horiz-adv-x="608" 
d="M85 0h-69l94 423h-48l14 60h47l17 81c18 81 62 113 117 113c19 0 37 -4 52 -11l-26 -56c-6 4 -15 6 -21 6c-29 0 -46 -20 -53 -52l-17 -81h65l-13 -60h-66zM397 -12c-38 0 -73 25 -88 81l-15 -69h-67l146 667h68l-54 -246c30 50 65 74 101 74c62 0 96 -52 96 -143
c0 -119 -60 -364 -187 -364zM386 49c84 0 127 212 127 298c0 61 -18 87 -55 87c-32 0 -67 -38 -86 -80l-50 -224c4 -45 32 -81 64 -81z" />
    <glyph glyph-name="f_f" unicode="ff" horiz-adv-x="448" 
d="M85 0h-69l94 423h-48l14 60h47l17 81c14 65 50 113 117 113c28 0 60 -11 73 -29l-34 -52c-9 15 -21 20 -34 20c-30 0 -46 -20 -53 -52l-17 -81h65l-13 -60h-66zM309 0h-69l94 423h-48l14 60h47l17 81c14 65 50 113 117 113c28 0 60 -11 73 -29l-34 -52
c-9 15 -21 20 -34 20c-30 0 -46 -20 -53 -52l-17 -81h65l-13 -60h-66z" />
    <glyph glyph-name="f_h" unicode="fh" horiz-adv-x="602" 
d="M85 0h-69l94 423h-48l14 60h47l17 81c18 81 62 113 117 113c19 0 37 -4 52 -11l-26 -56c-6 4 -15 6 -21 6c-29 0 -46 -20 -53 -52l-17 -81h65l-13 -60h-66zM492 0h-68l82 371c1 5 3 19 3 24c0 28 -13 39 -38 39c-36 0 -76 -41 -100 -82l-77 -352h-68l147 667h68l-54 -248
c30 42 70 76 117 76c52 0 78 -31 78 -74c0 -8 -2 -21 -4 -31z" />
    <glyph glyph-name="fi" unicode="fi" horiz-adv-x="405" 
d="M85 0h-69l94 423h-48l14 60h47l17 81c18 81 62 113 117 113c19 0 37 -4 52 -11l-26 -56c-6 4 -15 6 -21 6c-29 0 -46 -20 -53 -52l-17 -81h65l-13 -60h-66zM387 554c-25 0 -43 19 -43 41c0 33 30 54 54 54s43 -20 43 -42c0 -33 -29 -53 -54 -53zM294 0h-68l107 483h68z
" />
    <glyph glyph-name="f_j" unicode="fj" horiz-adv-x="405" 
d="M85 0h-69l94 423h-48l14 60h47l17 81c18 81 62 113 117 113c19 0 37 -4 52 -11l-26 -56c-6 4 -15 6 -21 6c-29 0 -46 -20 -53 -52l-17 -81h65l-13 -60h-66zM167 -196c-30 0 -53 9 -65 34l37 46c3 -12 13 -19 26 -19c19 0 34 14 44 64l124 554h68l-123 -554
c-21 -91 -51 -125 -111 -125zM387 554c-25 0 -43 19 -43 41c0 33 30 54 54 54s43 -20 43 -42c0 -33 -29 -53 -54 -53z" />
    <glyph glyph-name="f_k" unicode="fk" horiz-adv-x="585" 
d="M85 0h-69l94 423h-48l14 60h47l17 81c18 81 62 113 117 113c19 0 37 -4 52 -11l-26 -56c-6 4 -15 6 -21 6c-29 0 -46 -20 -53 -52l-17 -81h65l-13 -60h-66zM515 0h-72l-44 222l-78 -99l-27 -123h-68l147 667h68l-98 -446l204 262h76l-171 -216z" />
    <glyph glyph-name="fl" unicode="fl" horiz-adv-x="405" 
d="M85 0h-69l94 423h-48l14 60h47l17 81c18 81 62 113 117 113c19 0 37 -4 52 -11l-26 -56c-6 4 -15 6 -21 6c-29 0 -46 -20 -53 -52l-17 -81h65l-13 -60h-66zM294 0h-68l147 667h68z" />
    <glyph glyph-name="f_f_i" unicode="ffi" horiz-adv-x="628" 
d="M309 0h-69l94 423h-48l14 60h47l17 81c18 81 62 113 117 113c19 0 37 -4 52 -11l-26 -56c-6 4 -15 6 -21 6c-29 0 -46 -20 -53 -52l-17 -81h65l-13 -60h-66zM611 554c-25 0 -43 19 -43 41c0 33 30 54 54 54s43 -20 43 -42c0 -33 -29 -53 -54 -53zM518 0h-68l107 483h68z
M85 0h-69l94 423h-48l14 60h47l17 81c14 65 50 113 117 113c28 0 60 -11 73 -29l-34 -52c-9 15 -21 20 -34 20c-30 0 -46 -20 -53 -52l-17 -81h65l-13 -60h-66z" />
    <glyph glyph-name="f_f_j" unicode="ffj" horiz-adv-x="628" 
d="M309 0h-69l94 423h-48l14 60h47l17 81c18 81 62 113 117 113c19 0 37 -4 52 -11l-26 -56c-6 4 -15 6 -21 6c-29 0 -46 -20 -53 -52l-17 -81h65l-13 -60h-66zM391 -196c-30 0 -53 9 -65 34l37 46c3 -12 13 -19 26 -19c19 0 34 14 44 64l124 554h68l-123 -554
c-21 -91 -51 -125 -111 -125zM611 554c-25 0 -43 19 -43 41c0 33 30 54 54 54s43 -20 43 -42c0 -33 -29 -53 -54 -53zM85 0h-69l94 423h-48l14 60h47l17 81c14 65 50 113 117 113c28 0 60 -11 73 -29l-34 -52c-9 15 -21 20 -34 20c-30 0 -46 -20 -53 -52l-17 -81h65l-13 -60
h-66z" />
    <glyph glyph-name="f_f_l" unicode="ffl" horiz-adv-x="628" 
d="M309 0h-69l94 423h-48l14 60h47l17 81c18 81 62 113 117 113c19 0 37 -4 52 -11l-26 -56c-6 4 -15 6 -21 6c-29 0 -46 -20 -53 -52l-17 -81h65l-13 -60h-66zM518 0h-68l147 667h68zM85 0h-69l94 423h-48l14 60h47l17 81c14 65 50 113 117 113c28 0 60 -11 73 -29l-34 -52
c-9 15 -21 20 -34 20c-30 0 -46 -20 -53 -52l-17 -81h65l-13 -60h-66z" />
    <glyph glyph-name=".notdef" horiz-adv-x="476" 
d="M434 -90h-351v842h351v-842zM402 -60v782h-288v-782h288z" />
    <glyph glyph-name=".null" horiz-adv-x="0" 
 />
    <glyph glyph-name=".null" horiz-adv-x="0" 
 />
    <glyph glyph-name="CR" unicode="&#xd;" horiz-adv-x="0" 
 />
    <glyph glyph-name="space" unicode=" " horiz-adv-x="172" 
 />
    <glyph glyph-name="nbspace" unicode="&#xa0;" horiz-adv-x="172" 
 />
    <glyph glyph-name="thinspace" unicode="&#x2009;" horiz-adv-x="34" 
 />
    <glyph glyph-name="zero" unicode="0" horiz-adv-x="412" 
d="M165 -12c-73 0 -126 56 -126 183c0 205 99 506 246 506c74 0 127 -56 127 -183c0 -205 -99 -506 -247 -506zM172 56c99 0 165 319 165 451c0 65 -15 102 -59 102c-99 0 -165 -318 -165 -451c0 -65 15 -102 59 -102z" />
    <glyph glyph-name="zero.pzero" horiz-adv-x="412" 
d="M165 -12c-41 0 -75 17 -98 54l-26 -42h-52l58 92c-5 23 -8 49 -8 79c0 205 99 506 246 506c41 0 75 -18 98 -55l28 45h53l-61 -95c6 -23 9 -48 9 -78c0 -205 -99 -506 -247 -506zM278 609c-90 0 -153 -263 -164 -411l220 348c-5 40 -22 63 -56 63zM172 56
c89 0 152 260 163 408l-220 -346c6 -40 23 -62 57 -62z" />
    <glyph glyph-name="one" unicode="1" horiz-adv-x="292" 
d="M175 0h-76l125 567l-122 -107l-35 48l188 159h67z" />
    <glyph glyph-name="two" unicode="2" horiz-adv-x="391" 
d="M293 0h-295l17 78c239 288 314 369 314 455c0 46 -26 76 -67 76c-40 0 -73 -21 -107 -72l-45 47c43 57 96 93 158 93c82 0 142 -48 142 -134c0 -109 -76 -202 -303 -476h201z" />
    <glyph glyph-name="three" unicode="3" horiz-adv-x="390" 
d="M155 -12c-75 0 -140 44 -159 134l65 34c12 -67 46 -100 94 -100c69 0 108 93 108 172c0 57 -36 81 -74 81c-13 0 -23 0 -31 -2l16 70c7 -1 37 -1 46 -1c70 0 105 82 105 157c0 53 -27 76 -71 76c-40 0 -77 -30 -100 -71l-46 43c34 52 89 96 158 96c81 0 139 -46 139 -133
c0 -90 -56 -186 -138 -204c53 -20 71 -73 71 -124c0 -114 -76 -228 -183 -228z" />
    <glyph glyph-name="four" unicode="4" horiz-adv-x="366" 
d="M245 0h-75l38 173h-211l16 74l286 420h93l-95 -427h54l-15 -67h-53zM222 240l74 328l-218 -328h144z" />
    <glyph glyph-name="five" unicode="5" horiz-adv-x="393" 
d="M156 -12c-90 0 -133 54 -151 133l65 32c8 -63 38 -97 86 -97c64 0 121 114 121 217c0 50 -20 81 -62 81c-35 0 -64 -21 -92 -54l-52 24l77 343h272l-15 -67h-197l-50 -230c26 32 54 47 93 47c63 0 105 -51 105 -136c0 -146 -85 -293 -200 -293z" />
    <glyph glyph-name="six" unicode="6" horiz-adv-x="393" 
d="M165 -12c-94 0 -129 77 -129 175c0 126 70 514 263 514c59 0 109 -39 123 -103l-56 -44c-5 48 -30 79 -71 79c-83 0 -132 -147 -159 -263c-2 -11 -2 -12 -4 -22c28 49 71 92 120 92c61 0 107 -46 107 -135c0 -121 -68 -293 -194 -293zM170 56c75 0 111 145 111 217
c0 42 -16 79 -59 79c-45 0 -79 -51 -104 -104c-5 -25 -10 -62 -10 -93c0 -61 18 -99 62 -99z" />
    <glyph glyph-name="seven" unicode="7" horiz-adv-x="330" 
d="M104 0h-83l281 600h-202l14 67h288l-12 -52z" />
    <glyph glyph-name="eight" unicode="8" horiz-adv-x="391" 
d="M161 -12c-91 0 -148 38 -148 134c0 89 49 181 153 228c-35 26 -66 80 -66 136c0 95 74 191 172 191c69 0 138 -35 138 -133c0 -110 -74 -178 -142 -205c44 -34 70 -90 70 -146c0 -118 -77 -205 -177 -205zM223 370c45 18 109 68 109 166c0 46 -23 73 -65 73
c-51 0 -91 -63 -91 -138c0 -44 24 -84 47 -101zM160 56c51 0 102 66 102 149c0 63 -33 102 -51 112c-56 -20 -118 -87 -118 -180c0 -57 30 -81 67 -81z" />
    <glyph glyph-name="nine" unicode="9" horiz-adv-x="393" 
d="M266 678c95 0 129 -77 129 -175c0 -126 -70 -514 -263 -514c-58 0 -109 39 -123 103l56 44c5 -48 30 -79 71 -79c83 0 132 147 159 263c2 11 3 12 5 22c-29 -49 -71 -92 -121 -92c-60 0 -106 46 -106 135c0 121 67 293 193 293zM262 610c-75 0 -111 -145 -111 -217
c0 -42 15 -79 58 -79c45 0 80 51 105 104c4 25 9 62 9 93c0 61 -18 99 -61 99z" />
    <glyph glyph-name="zero.tnum" unicode="&#xf639;" horiz-adv-x="391" 
d="M154 -12c-73 0 -126 56 -126 183c0 205 99 506 246 506c74 0 127 -56 127 -183c0 -205 -99 -506 -247 -506zM161 56c99 0 165 319 165 451c0 65 -15 102 -59 102c-99 0 -165 -318 -165 -451c0 -65 15 -102 59 -102z" />
    <glyph glyph-name="zero.tzero" unicode="&#xf638;" horiz-adv-x="391" 
d="M154 -12c-41 0 -75 17 -98 54l-26 -42h-52l58 92c-5 23 -8 49 -8 79c0 205 99 506 246 506c41 0 75 -18 98 -55l28 45h53l-61 -95c6 -23 9 -48 9 -78c0 -205 -99 -506 -247 -506zM267 609c-90 0 -153 -263 -164 -411l220 348c-5 40 -22 63 -56 63zM161 56
c89 0 152 260 163 408l-220 -346c6 -40 23 -62 57 -62z" />
    <glyph glyph-name="one.tnum" unicode="&#xf6dc;" horiz-adv-x="391" 
d="M237 0h-76l125 567l-122 -107l-35 48l188 159h67z" />
    <glyph glyph-name="two.tnum" unicode="&#xf63a;" horiz-adv-x="391" 
d="M294 0h-295l17 78c239 288 314 369 314 455c0 46 -26 76 -67 76c-40 0 -73 -21 -107 -72l-45 47c43 57 96 93 158 93c82 0 142 -48 142 -134c0 -109 -76 -202 -303 -476h201z" />
    <glyph glyph-name="three.tnum" unicode="&#xf63b;" horiz-adv-x="391" 
d="M156 -12c-75 0 -140 44 -159 134l65 34c12 -67 46 -100 94 -100c69 0 108 93 108 172c0 57 -36 81 -74 81c-13 0 -23 0 -31 -2l16 70c7 -1 37 -1 46 -1c70 0 105 82 105 157c0 53 -27 76 -71 76c-40 0 -77 -30 -100 -71l-46 43c34 52 89 96 158 96c81 0 139 -46 139 -133
c0 -90 -56 -186 -138 -204c53 -20 71 -73 71 -124c0 -114 -76 -228 -183 -228z" />
    <glyph glyph-name="four.tnum" unicode="&#xf63c;" horiz-adv-x="391" 
d="M257 0h-75l38 173h-211l16 74l286 420h93l-95 -427h54l-15 -67h-53zM234 240l74 328l-218 -328h144z" />
    <glyph glyph-name="five.tnum" unicode="&#xf63d;" horiz-adv-x="391" 
d="M154 -12c-90 0 -133 54 -151 133l65 32c8 -63 38 -97 86 -97c64 0 121 114 121 217c0 50 -20 81 -62 81c-35 0 -64 -21 -92 -54l-52 24l77 343h272l-15 -67h-197l-50 -230c26 32 54 47 93 47c63 0 105 -51 105 -136c0 -146 -85 -293 -200 -293z" />
    <glyph glyph-name="six.tnum" unicode="&#xf63e;" horiz-adv-x="391" 
d="M164 -12c-94 0 -129 77 -129 175c0 126 70 514 263 514c59 0 109 -39 123 -103l-56 -44c-5 48 -30 79 -71 79c-83 0 -132 -147 -159 -263c-2 -11 -2 -12 -4 -22c28 49 71 92 120 92c61 0 107 -46 107 -135c0 -121 -68 -293 -194 -293zM169 56c75 0 111 145 111 217
c0 42 -16 79 -59 79c-45 0 -79 -51 -104 -104c-5 -25 -10 -62 -10 -93c0 -61 18 -99 62 -99z" />
    <glyph glyph-name="seven.tnum" unicode="&#xf63f;" horiz-adv-x="391" 
d="M134 0h-83l281 600h-202l14 67h288l-12 -52z" />
    <glyph glyph-name="eight.tnum" unicode="&#xf640;" horiz-adv-x="391" 
d="M161 -12c-91 0 -148 38 -148 134c0 89 49 181 153 228c-35 26 -66 80 -66 136c0 95 74 191 172 191c69 0 138 -35 138 -133c0 -110 -74 -178 -142 -205c44 -34 70 -90 70 -146c0 -118 -77 -205 -177 -205zM223 370c45 18 109 68 109 166c0 46 -23 73 -65 73
c-51 0 -91 -63 -91 -138c0 -44 24 -84 47 -101zM160 56c51 0 102 66 102 149c0 63 -33 102 -51 112c-56 -20 -118 -87 -118 -180c0 -57 30 -81 67 -81z" />
    <glyph glyph-name="nine.tnum" unicode="&#xf641;" horiz-adv-x="391" 
d="M266 678c95 0 129 -77 129 -175c0 -126 -70 -514 -263 -514c-58 0 -109 39 -123 103l56 44c5 -48 30 -79 71 -79c83 0 132 147 159 263c2 11 3 12 5 22c-29 -49 -71 -92 -121 -92c-60 0 -106 46 -106 135c0 121 67 293 193 293zM262 610c-75 0 -111 -145 -111 -217
c0 -42 15 -79 58 -79c45 0 80 51 105 104c4 25 9 62 9 93c0 61 -18 99 -61 99z" />
    <glyph glyph-name="zero.tonum" unicode="&#xf643;" horiz-adv-x="391" 
d="M381 388c0 -104 -64 -400 -227 -400c-76 0 -132 54 -132 174c0 104 64 400 226 400c77 0 133 -54 133 -174zM305 394c0 68 -21 100 -63 100c-107 0 -145 -284 -145 -338c0 -68 21 -100 63 -100c107 0 145 284 145 338z" />
    <glyph glyph-name="zero.tonumzero" horiz-adv-x="391" 
d="M381 388c0 -104 -64 -400 -227 -400c-39 0 -72 14 -96 43l-21 -31h-49l48 70c-9 25 -14 55 -14 92c0 104 64 400 226 400c39 0 73 -14 96 -44l22 32h49l-49 -71c10 -24 15 -55 15 -91zM242 494c-106 0 -144 -276 -145 -336l201 293c-10 29 -28 43 -56 43zM160 56
c104 0 143 271 145 334l-201 -292c10 -29 28 -42 56 -42z" />
    <glyph glyph-name="one.tonum" unicode="&#xf644;" horiz-adv-x="391" 
d="M237 0h-76l99 450l-122 -107l-35 48l188 159h67z" />
    <glyph glyph-name="two.tonum" unicode="&#xf645;" horiz-adv-x="391" 
d="M279 0h-280l13 64c212 170 287 275 287 357c0 48 -26 74 -66 74c-42 0 -74 -25 -105 -79l-47 44c45 67 96 102 159 102c87 0 140 -49 140 -127c0 -96 -71 -209 -264 -368h177z" />
    <glyph glyph-name="three.tonum" unicode="&#xf646;" horiz-adv-x="391" 
d="M130 -128c-75 0 -140 44 -159 134l65 34c12 -67 46 -100 94 -100c69 0 108 93 108 172c0 57 -36 81 -74 81c-13 0 -23 0 -31 -2l16 70c7 -1 37 -1 46 -1c70 0 105 82 105 157c0 53 -27 76 -71 76c-40 0 -77 -30 -100 -71l-46 43c34 52 89 96 158 96
c81 0 139 -46 139 -133c0 -90 -56 -186 -138 -204c53 -20 71 -73 71 -124c0 -114 -76 -228 -183 -228z" />
    <glyph glyph-name="four.tonum" unicode="&#xf647;" horiz-adv-x="391" 
d="M323 58h-53l-39 -175h-75l38 175h-210l15 70l289 422h90l-93 -425h52zM209 125l74 330l-220 -330h146z" />
    <glyph glyph-name="five.tonum" unicode="&#xf648;" horiz-adv-x="391" 
d="M128 -129c-90 0 -133 54 -151 133l65 32c8 -63 38 -97 86 -97c64 0 121 114 121 217c0 50 -20 81 -62 81c-35 0 -64 -21 -92 -54l-52 24l77 343h272l-15 -67h-197l-50 -230c26 32 54 47 93 47c63 0 105 -51 105 -136c0 -146 -85 -293 -200 -293z" />
    <glyph glyph-name="six.tonum" unicode="&#xf649;" horiz-adv-x="391" 
d="M164 -12c-94 0 -129 77 -129 175c0 126 70 514 263 514c59 0 109 -39 123 -103l-56 -44c-5 48 -30 79 -71 79c-83 0 -132 -147 -159 -263c-2 -11 -2 -12 -4 -22c28 49 71 92 120 92c61 0 107 -46 107 -135c0 -121 -68 -293 -194 -293zM169 56c75 0 111 145 111 217
c0 42 -16 79 -59 79c-45 0 -79 -51 -104 -104c-5 -25 -10 -62 -10 -93c0 -61 18 -99 62 -99z" />
    <glyph glyph-name="seven.tonum" unicode="&#xf64a;" horiz-adv-x="391" 
d="M108 -117h-83l281 600h-202l14 67h288l-12 -52z" />
    <glyph glyph-name="eight.tonum" unicode="&#xf64b;" horiz-adv-x="391" 
d="M161 -12c-91 0 -148 38 -148 134c0 89 49 181 153 228c-35 26 -66 80 -66 136c0 95 74 191 172 191c69 0 138 -35 138 -133c0 -110 -74 -178 -142 -205c44 -34 70 -90 70 -146c0 -118 -77 -205 -177 -205zM223 370c45 18 109 68 109 166c0 46 -23 73 -65 73
c-51 0 -91 -63 -91 -138c0 -44 24 -84 47 -101zM160 56c51 0 102 66 102 149c0 63 -33 102 -51 112c-56 -20 -118 -87 -118 -180c0 -57 30 -81 67 -81z" />
    <glyph glyph-name="nine.tonum" unicode="&#xf64c;" horiz-adv-x="391" 
d="M240 561c95 0 129 -77 129 -175c0 -126 -70 -514 -263 -514c-58 0 -109 39 -123 103l56 44c5 -48 30 -79 71 -79c83 0 132 147 159 263c2 11 3 12 5 22c-29 -49 -71 -92 -121 -92c-60 0 -106 46 -106 135c0 121 67 293 193 293zM236 493c-75 0 -111 -145 -111 -217
c0 -42 15 -79 58 -79c45 0 80 51 105 104c4 25 9 62 9 93c0 61 -18 99 -61 99z" />
    <glyph glyph-name="zero.onum" unicode="&#xf730;" horiz-adv-x="412" 
d="M392 388c0 -104 -64 -400 -227 -400c-76 0 -132 54 -132 174c0 104 64 400 226 400c77 0 133 -54 133 -174zM316 394c0 68 -21 100 -63 100c-107 0 -145 -284 -145 -338c0 -68 21 -100 63 -100c107 0 145 284 145 338z" />
    <glyph glyph-name="zero.onumzero" horiz-adv-x="412" 
d="M393 388c0 -104 -64 -400 -227 -400c-39 0 -72 14 -96 43l-21 -31h-49l48 70c-9 25 -14 55 -14 92c0 104 64 400 226 400c39 0 73 -14 96 -44l22 32h49l-49 -71c10 -24 15 -55 15 -91zM254 494c-106 0 -144 -276 -145 -336l201 293c-10 29 -28 43 -56 43zM172 56
c104 0 143 271 145 334l-201 -292c10 -29 28 -42 56 -42z" />
    <glyph glyph-name="one.onum" unicode="&#xf731;" horiz-adv-x="292" 
d="M175 0h-76l99 450l-122 -107l-35 48l188 159h67z" />
    <glyph glyph-name="two.onum" unicode="&#xf732;" horiz-adv-x="385" 
d="M278 0h-280l13 64c212 170 287 275 287 357c0 48 -26 74 -66 74c-42 0 -74 -25 -105 -79l-47 44c45 67 96 102 159 102c87 0 140 -49 140 -127c0 -96 -71 -209 -264 -368h177z" />
    <glyph glyph-name="three.onum" unicode="&#xf733;" horiz-adv-x="390" 
d="M129 -127c-75 0 -140 44 -159 134l65 34c12 -67 46 -100 94 -100c69 0 108 93 108 172c0 57 -36 81 -74 81c-13 0 -23 0 -31 -2l16 70c7 -1 37 -1 46 -1c70 0 105 82 105 157c0 53 -27 76 -71 76c-40 0 -77 -30 -100 -71l-46 43c34 52 89 96 158 96
c81 0 139 -46 139 -133c0 -90 -56 -186 -138 -204c53 -20 71 -73 71 -124c0 -114 -76 -228 -183 -228z" />
    <glyph glyph-name="four.onum" unicode="&#xf734;" horiz-adv-x="366" 
d="M311 58h-53l-39 -175h-75l38 175h-210l15 70l289 422h90l-93 -425h52zM197 125l74 330l-220 -330h146z" />
    <glyph glyph-name="five.onum" unicode="&#xf735;" horiz-adv-x="393" 
d="M130 -129c-90 0 -133 54 -151 133l65 32c8 -63 38 -97 86 -97c64 0 121 114 121 217c0 50 -20 81 -62 81c-35 0 -64 -21 -92 -54l-52 24l77 343h272l-15 -67h-197l-50 -230c26 32 54 47 93 47c63 0 105 -51 105 -136c0 -146 -85 -293 -200 -293z" />
    <glyph glyph-name="six.onum" unicode="&#xf736;" horiz-adv-x="393" 
d="M165 -12c-94 0 -129 77 -129 175c0 126 70 514 263 514c59 0 109 -39 123 -103l-56 -44c-5 48 -30 79 -71 79c-83 0 -132 -147 -159 -263c-2 -11 -2 -12 -4 -22c28 49 71 92 120 92c61 0 107 -46 107 -135c0 -121 -68 -293 -194 -293zM170 56c75 0 111 145 111 217
c0 42 -16 79 -59 79c-45 0 -79 -51 -104 -104c-5 -25 -10 -62 -10 -93c0 -61 18 -99 62 -99z" />
    <glyph glyph-name="seven.onum" unicode="&#xf737;" horiz-adv-x="330" 
d="M78 -117h-83l281 600h-202l14 67h288l-12 -52z" />
    <glyph glyph-name="eight.onum" unicode="&#xf738;" horiz-adv-x="391" 
d="M161 -12c-91 0 -148 38 -148 134c0 89 49 181 153 228c-35 26 -66 80 -66 136c0 95 74 191 172 191c69 0 138 -35 138 -133c0 -110 -74 -178 -142 -205c44 -34 70 -90 70 -146c0 -118 -77 -205 -177 -205zM223 370c45 18 109 68 109 166c0 46 -23 73 -65 73
c-51 0 -91 -63 -91 -138c0 -44 24 -84 47 -101zM160 56c51 0 102 66 102 149c0 63 -33 102 -51 112c-56 -20 -118 -87 -118 -180c0 -57 30 -81 67 -81z" />
    <glyph glyph-name="nine.onum" unicode="&#xf739;" horiz-adv-x="393" 
d="M240 562c95 0 129 -77 129 -175c0 -126 -70 -514 -263 -514c-58 0 -109 39 -123 103l56 44c5 -48 30 -79 71 -79c83 0 132 147 159 263c2 11 3 12 5 22c-29 -49 -71 -92 -121 -92c-60 0 -106 46 -106 135c0 121 67 293 193 293zM236 494c-75 0 -111 -145 -111 -217
c0 -42 15 -79 58 -79c45 0 80 51 105 104c4 25 9 62 9 93c0 61 -18 99 -61 99z" />
    <glyph glyph-name="A" unicode="A" horiz-adv-x="364" 
d="M303 0h-75l7 153h-143l-60 -153h-79l278 667h87zM240 220l17 357l-141 -357h124z" />
    <glyph glyph-name="B" unicode="B" horiz-adv-x="403" 
d="M172 0h-163l147 667h117c87 0 135 -57 135 -134c0 -87 -46 -180 -126 -196c48 -15 66 -70 66 -117c0 -105 -60 -220 -176 -220zM229 375c68 0 99 89 99 146c0 53 -29 79 -75 79h-36l-50 -225h62zM163 67c64 0 108 78 108 158c0 58 -27 83 -77 83h-42l-53 -241h64z" />
    <glyph glyph-name="C" unicode="C" horiz-adv-x="390" 
d="M175 -12c-85 0 -136 63 -136 189c0 147 73 501 257 501c88 0 123 -71 130 -154l-71 -14c-5 64 -23 100 -65 100c-113 0 -173 -323 -173 -436c0 -85 21 -118 63 -118c36 0 64 31 94 85l60 -28c-42 -80 -92 -125 -159 -125z" />
    <glyph glyph-name="D" unicode="D" horiz-adv-x="427" 
d="M137 0h-128l147 667h124c69 0 140 -57 140 -200c0 -106 -57 -467 -283 -467zM99 67h50c144 0 193 318 193 399c0 96 -36 134 -76 134h-49z" />
    <glyph glyph-name="E" unicode="E" horiz-adv-x="352" 
d="M257 0h-248l147 667h248l-15 -67h-172l-50 -225h165l-15 -67h-165l-53 -241h172z" />
    <glyph glyph-name="F" unicode="F" horiz-adv-x="351" 
d="M84 0h-75l147 667h248l-15 -67h-172l-50 -225h165l-15 -67h-165z" />
    <glyph glyph-name="G" unicode="G" horiz-adv-x="411" 
d="M175 -12c-84 0 -136 61 -136 189c0 159 79 501 257 501c91 0 123 -75 127 -147l-66 -15c-4 51 -18 94 -67 94c-110 0 -173 -309 -173 -436c0 -88 21 -118 63 -118c34 0 57 25 80 56l34 161h-89l15 67h158l-56 -255c-40 -61 -88 -97 -147 -97z" />
    <glyph glyph-name="G.alt1" horiz-adv-x="411" 
d="M164 -12c-76 0 -125 62 -125 189c0 138 71 501 269 501c76 0 111 -71 115 -147l-66 -15c-4 51 -21 94 -59 94c-119 0 -181 -319 -181 -436c0 -77 17 -118 59 -118c63 0 107 105 133 217h-104l15 67h178c-47 -226 -113 -352 -234 -352z" />
    <glyph glyph-name="H" unicode="H" horiz-adv-x="436" 
d="M319 0h-75l68 309h-160l-68 -309h-75l147 667h75l-64 -290h160l64 290h75z" />
    <glyph glyph-name="I" unicode="I" horiz-adv-x="201" 
d="M84 0h-75l147 667h75z" />
    <glyph glyph-name="J" unicode="J" horiz-adv-x="321" 
d="M76 -12c-46 0 -88 16 -112 50l37 58c16 -28 45 -40 70 -40c49 0 76 26 90 89l116 522h75l-116 -525c-24 -107 -72 -154 -160 -154z" />
    <glyph glyph-name="K" unicode="K" horiz-adv-x="418" 
d="M353 0h-81l-79 292l-64 -89l-45 -203h-75l147 667h75l-73 -335l239 335h90l-238 -317z" />
    <glyph glyph-name="L" unicode="L" horiz-adv-x="333" 
d="M257 0h-248l147 667h75l-132 -600h172z" />
    <glyph glyph-name="M" unicode="M" horiz-adv-x="558" 
d="M441 0h-74l113 511l-240 -511h-30l-12 511l-114 -511h-75l147 667h100l13 -459l217 459h102z" />
    <glyph glyph-name="N" unicode="N" horiz-adv-x="436" 
d="M319 0h-72l-58 477l-105 -477h-75l147 667h75l56 -466l104 466h75z" />
    <glyph glyph-name="O" unicode="O" horiz-adv-x="434" 
d="M175 -12c-97 0 -136 85 -136 189c0 143 75 501 257 501c98 0 137 -88 137 -191c0 -142 -75 -499 -258 -499zM180 56c109 0 174 309 174 434c0 73 -17 120 -64 120c-110 0 -173 -310 -173 -436c0 -72 16 -118 63 -118z" />
    <glyph glyph-name="P" unicode="P" horiz-adv-x="387" 
d="M84 0h-75l147 667h125c77 0 131 -61 131 -152c0 -118 -69 -246 -209 -246h-60zM158 336h52c82 0 122 93 122 174c0 61 -29 90 -68 90h-47z" />
    <glyph glyph-name="Q" unicode="Q" horiz-adv-x="434" 
d="M175 -12c-97 0 -136 85 -136 189c0 143 75 501 257 501c98 0 137 -88 137 -191c0 -115 -49 -370 -165 -464l8 -48l-59 -10l-5 29c-12 -4 -24 -6 -37 -6zM180 56c7 0 15 1 22 4l-24 149l60 10l17 -110c63 94 99 288 99 381c0 73 -17 120 -64 120
c-110 0 -173 -310 -173 -436c0 -72 16 -118 63 -118z" />
    <glyph glyph-name="R" unicode="R" horiz-adv-x="409" 
d="M311 0h-78l-27 269h-63l-59 -269h-75l147 667h123c80 0 134 -64 134 -150c0 -116 -64 -213 -137 -235zM158 336h53c82 0 122 93 122 176c0 60 -27 88 -67 88h-49z" />
    <glyph glyph-name="S" unicode="S" horiz-adv-x="354" 
d="M125 -12c-59 0 -115 28 -142 69l49 55c19 -33 57 -56 93 -56c53 0 105 49 105 132c0 106 -140 161 -140 297c0 109 83 193 176 193c46 0 95 -19 123 -55l-43 -56c-19 27 -48 43 -81 43c-57 0 -96 -54 -96 -114c0 -94 139 -160 139 -297c0 -119 -78 -211 -183 -211z" />
    <glyph glyph-name="T" unicode="T" horiz-adv-x="322" 
d="M145 0h-76l133 600h-105l14 67h286l-14 -67h-106z" />
    <glyph glyph-name="U" unicode="U" horiz-adv-x="437" 
d="M181 -12c-79 0 -139 51 -139 140c0 15 2 33 5 46l109 493h75l-110 -498c-1 -7 -4 -25 -4 -36c0 -52 30 -78 70 -78c47 0 77 31 95 114l110 498h75l-109 -495c-29 -129 -89 -184 -177 -184z" />
    <glyph glyph-name="V" unicode="V" horiz-adv-x="364" 
d="M171 0h-87l16 667h75l-27 -567l222 567h80z" />
    <glyph glyph-name="W" unicode="W" horiz-adv-x="548" 
d="M370 0h-80l44 514l-184 -514h-79l40 667h77l-47 -531l193 531h64l-42 -531l188 531h79z" />
    <glyph glyph-name="X" unicode="X" horiz-adv-x="368" 
d="M311 0h-80l-41 265l-153 -265h-87l214 343l-60 324h80l35 -254l143 254h88l-204 -331z" />
    <glyph glyph-name="Y" unicode="Y" horiz-adv-x="372" 
d="M170 0h-75l62 283l-65 384h78l38 -307l174 307h84l-234 -384z" />
    <glyph glyph-name="Z" unicode="Z" horiz-adv-x="340" 
d="M253 0h-274l14 66l298 534h-179l14 67h267l-14 -63l-300 -537h189z" />
    <glyph glyph-name="a" unicode="a" horiz-adv-x="384" 
d="M210 495c38 0 74 -25 88 -81l15 69h68l-107 -483h-68l14 62c-30 -50 -65 -74 -101 -74c-62 0 -96 52 -96 143c0 119 61 364 187 364zM221 434c-84 0 -127 -212 -127 -298c0 -61 18 -87 55 -87c32 0 67 38 86 80l50 224c-4 45 -32 81 -64 81z" />
    <glyph glyph-name="a.alt1" horiz-adv-x="376" 
d="M274 0h-68l10 47c-23 -37 -59 -59 -98 -59c-56 0 -104 40 -104 119c0 102 60 201 151 201c34 0 79 -22 94 -67l20 89c4 18 6 28 6 42c0 43 -28 65 -70 65c-33 0 -67 -13 -99 -43l-19 51c37 32 86 50 132 50c73 0 127 -35 127 -105c0 -16 -2 -28 -8 -52zM147 38
c28 0 57 18 79 59l23 96c-8 41 -36 65 -71 65c-62 0 -92 -84 -92 -146c0 -51 25 -74 61 -74z" />
    <glyph glyph-name="b" unicode="b" horiz-adv-x="384" 
d="M173 -12c-38 0 -73 25 -88 81l-15 -69h-67l146 667h68l-54 -246c30 50 65 74 101 74c62 0 96 -52 96 -143c0 -119 -60 -364 -187 -364zM162 49c84 0 127 212 127 298c0 61 -18 87 -55 87c-32 0 -67 -38 -86 -80l-50 -224c4 -45 32 -81 64 -81z" />
    <glyph glyph-name="c" unicode="c" horiz-adv-x="317" 
d="M158 -12c-81 0 -133 53 -133 166c0 132 72 341 211 341c44 0 80 -20 100 -49l-38 -50c-14 27 -37 38 -60 38c-94 0 -141 -183 -141 -279c0 -75 29 -106 73 -106c25 0 45 12 62 31l19 -53c-30 -28 -57 -39 -93 -39z" />
    <glyph glyph-name="d" unicode="d" horiz-adv-x="384" 
d="M210 495c38 0 74 -25 88 -81l56 253h68l-148 -667h-68l14 62c-30 -50 -65 -74 -101 -74c-62 0 -96 52 -96 143c0 119 61 364 187 364zM221 434c-84 0 -127 -212 -127 -298c0 -61 18 -87 55 -87c32 0 67 38 86 80l50 224c-4 45 -32 81 -64 81z" />
    <glyph glyph-name="e" unicode="e" horiz-adv-x="373" 
d="M164 -12c-86 0 -140 55 -140 166c0 96 56 341 205 341c76 0 123 -46 123 -149c0 -44 -9 -91 -18 -127h-236c-6 -24 -8 -47 -8 -68c0 -60 25 -106 83 -106c30 0 63 23 87 54l31 -43c-37 -45 -82 -68 -127 -68zM108 270h170c6 26 10 50 10 75c0 50 -20 93 -64 93
c-67 0 -104 -100 -116 -168z" />
    <glyph glyph-name="f" unicode="f" horiz-adv-x="224" 
d="M85 0h-69l94 423h-48l14 60h47l17 81c14 65 50 113 117 113c28 0 60 -11 73 -29l-34 -52c-9 15 -21 20 -34 20c-30 0 -46 -20 -53 -52l-17 -81h65l-13 -60h-66z" />
    <glyph glyph-name="f.alt1" horiz-adv-x="224" 
d="M85 0h-69l94 423h-48l14 60h47l17 81c18 81 62 113 117 113c19 0 37 -4 52 -11l-26 -56c-6 4 -15 6 -21 6c-29 0 -46 -20 -53 -52l-17 -81h65l-13 -60h-66z" />
    <glyph glyph-name="g" unicode="g" horiz-adv-x="384" 
d="M99 -196c-51 0 -102 19 -132 56l41 54c17 -28 52 -49 91 -49c51 0 84 35 102 116l22 89c-29 -50 -65 -74 -102 -74c-58 0 -98 43 -98 139c0 116 56 360 188 360c35 0 78 -29 88 -81l15 69h67l-110 -495c-31 -138 -91 -184 -172 -184zM150 56c33 0 67 39 86 81l49 216
c-4 40 -31 81 -65 81c-81 0 -126 -199 -126 -290c0 -66 21 -88 56 -88z" />
    <glyph glyph-name="h" unicode="h" 
d="M268 0h-68l82 371c1 5 3 19 3 24c0 28 -13 39 -38 39c-36 0 -76 -41 -100 -82l-77 -352h-68l147 667h68l-54 -248c30 42 70 76 117 76c52 0 78 -31 78 -74c0 -8 -2 -21 -4 -31z" />
    <glyph glyph-name="i" unicode="i" horiz-adv-x="180" 
d="M163 554c-25 0 -43 19 -43 41c0 33 30 54 54 54s43 -20 43 -42c0 -33 -29 -53 -54 -53zM70 0h-68l107 483h68z" />
    <glyph glyph-name="j" unicode="j" horiz-adv-x="180" 
d="M-57 -196c-30 0 -53 9 -65 34l37 46c3 -12 13 -19 26 -19c19 0 34 14 44 64l124 554h68l-123 -554c-21 -91 -51 -125 -111 -125zM163 554c-25 0 -43 19 -43 41c0 33 30 54 54 54s43 -20 43 -42c0 -33 -29 -53 -54 -53z" />
    <glyph glyph-name="k" unicode="k" horiz-adv-x="361" 
d="M291 0h-72l-44 222l-78 -99l-27 -123h-68l147 667h68l-98 -446l204 262h76l-171 -216z" />
    <glyph glyph-name="l" unicode="l" horiz-adv-x="180" 
d="M70 0h-68l147 667h68z" />
    <glyph glyph-name="l.alt1" horiz-adv-x="208" 
d="M100 -12c-51 0 -82 22 -82 70c0 10 1 22 4 37l127 572h68l-125 -563c-1 -8 -3 -18 -3 -25c1 -22 11 -30 29 -30c13 0 22 4 31 15l10 -54c-15 -13 -33 -22 -59 -22z" />
    <glyph glyph-name="m" unicode="m" horiz-adv-x="576" 
d="M466 0h-69l82 371c1 4 4 17 4 24c0 27 -12 39 -38 39c-37 0 -77 -42 -100 -82l-77 -352h-68l82 371c1 8 3 18 3 26c0 26 -13 37 -38 37c-37 0 -76 -42 -100 -82l-77 -352h-68l107 483h68l-14 -64c30 43 72 76 117 76c49 0 78 -30 78 -68c0 -4 0 -6 -1 -12
c32 46 75 80 120 80c49 0 79 -27 79 -72c0 -12 -3 -24 -5 -33z" />
    <glyph glyph-name="n" unicode="n" 
d="M268 0h-68l82 371c1 6 3 19 3 24c0 28 -13 39 -38 39c-36 0 -76 -41 -100 -82l-77 -352h-68l107 483h68l-14 -64c30 42 70 76 117 76c49 0 78 -27 78 -74c0 -6 -2 -25 -4 -31z" />
    <glyph glyph-name="o" unicode="o" horiz-adv-x="382" 
d="M150 -12c-78 0 -126 50 -126 157c0 138 70 350 207 350c78 0 125 -50 125 -157c0 -138 -70 -350 -206 -350zM154 49c84 0 132 199 132 289c0 73 -24 96 -59 96c-85 0 -133 -200 -133 -290c0 -73 24 -95 60 -95z" />
    <glyph glyph-name="p" unicode="p" horiz-adv-x="384" 
d="M173 -12c-38 0 -73 25 -88 81l-56 -253h-67l147 667h68l-14 -62c30 50 65 74 101 74c62 0 96 -52 96 -143c0 -119 -60 -364 -187 -364zM162 49c84 0 127 212 127 298c0 61 -18 87 -55 87c-32 0 -67 -38 -86 -80l-50 -224c4 -45 32 -81 64 -81z" />
    <glyph glyph-name="q" unicode="q" horiz-adv-x="384" 
d="M210 495c38 0 74 -25 88 -81l15 69h68l-148 -667h-68l55 246c-30 -50 -65 -74 -101 -74c-62 0 -96 52 -96 143c0 119 61 364 187 364zM221 434c-84 0 -127 -212 -127 -298c0 -61 18 -87 55 -87c32 0 67 38 86 80l50 224c-4 45 -32 81 -64 81z" />
    <glyph glyph-name="r" unicode="r" horiz-adv-x="252" 
d="M70 0h-68l107 483h68l-14 -68c29 49 68 78 129 78l-16 -70c-6 2 -15 3 -23 3c-43 0 -80 -34 -107 -82z" />
    <glyph glyph-name="s" unicode="s" horiz-adv-x="309" 
d="M110 -12c-57 0 -105 25 -127 67l42 44c17 -32 47 -55 88 -55c44 0 79 39 79 84c0 85 -132 111 -132 224c0 75 52 143 141 143c46 0 91 -22 116 -59l-41 -43c-13 28 -45 46 -77 46c-43 0 -72 -31 -72 -74c0 -77 134 -109 134 -223c0 -83 -62 -154 -151 -154z" />
    <glyph glyph-name="t" unicode="t" horiz-adv-x="233" 
d="M114 -12c-53 0 -82 23 -82 71c0 11 1 21 4 36l74 328h-49l13 60h49l29 132h69l-29 -132h65l-13 -60h-66l-71 -319c-2 -9 -4 -20 -4 -27c0 -19 10 -28 29 -28c12 0 23 5 31 13l10 -53c-13 -11 -31 -21 -59 -21z" />
    <glyph glyph-name="u" unicode="u" 
d="M109 483h68l-82 -371c-2 -9 -3 -19 -3 -24c0 -28 13 -39 38 -39c36 0 73 37 97 77l80 357h68l-107 -483h-68l14 64c-30 -42 -70 -76 -117 -76c-49 0 -78 27 -78 74c0 6 2 25 4 31z" />
    <glyph glyph-name="v" unicode="v" horiz-adv-x="326" 
d="M146 0h-75l-9 483h71l-8 -399l170 399h74z" />
    <glyph glyph-name="w" unicode="w" horiz-adv-x="541" 
d="M369 0h-71l4 389l-167 -389h-71l2 483h70l-14 -387l164 387h69l-7 -387l159 387h74z" />
    <glyph glyph-name="x" unicode="x" horiz-adv-x="326" 
d="M259 0h-71l-35 191l-119 -191h-76l163 244l-50 239h71l30 -184l114 184h74l-156 -239z" />
    <glyph glyph-name="y" unicode="y" horiz-adv-x="326" 
d="M-61 -186l23 57c4 -4 17 -6 23 -6c21 0 32 12 48 45l37 77l-8 496h71l-8 -396l170 396h74l-274 -589c-34 -70 -64 -90 -107 -90c-20 0 -39 5 -49 10z" />
    <glyph glyph-name="y.alt1" 
d="M92 -196c-55 0 -107 23 -131 56l41 54c20 -32 56 -49 91 -49c53 0 84 37 102 116l20 93c-30 -43 -69 -78 -116 -78c-52 0 -79 28 -79 74c0 10 2 20 4 31l85 382h68l-81 -363c-1 -9 -2 -17 -2 -25c0 -24 10 -39 38 -39c37 0 74 39 97 79l78 348h68l-110 -495
c-29 -126 -82 -184 -173 -184z" />
    <glyph glyph-name="z" unicode="z" horiz-adv-x="303" 
d="M214 0h-234l11 54l232 369h-149l13 60h230l-11 -52l-231 -371h152z" />
    <glyph glyph-name="A.smcp" unicode="&#xf761;" horiz-adv-x="315" 
d="M184 550h81l-10 -550h-72l6 124h-115l-49 -124h-74zM193 187l13 275l-110 -275h97z" />
    <glyph glyph-name="B.smcp" unicode="&#xf762;" horiz-adv-x="341" 
d="M138 0h-136l121 550h97c74 0 123 -38 123 -109c0 -67 -33 -141 -103 -161c35 -15 52 -51 52 -94c0 -86 -48 -186 -154 -186zM87 63h49c53 0 83 67 83 125c0 40 -20 62 -53 62h-38zM188 313c49 0 78 65 78 115c0 42 -21 59 -64 59h-21l-40 -174h47z" />
    <glyph glyph-name="C.smcp" unicode="&#xf763;" horiz-adv-x="351" 
d="M155 -12c-75 0 -127 47 -127 166c0 117 63 408 220 408c70 0 109 -47 117 -117l-63 -15c-5 44 -25 69 -55 69c-97 0 -146 -257 -146 -343c0 -78 22 -105 59 -105c35 0 55 26 78 73l55 -26c-34 -63 -70 -110 -138 -110z" />
    <glyph glyph-name="D.smcp" unicode="&#xf764;" horiz-adv-x="386" 
d="M133 0h-131l121 550h87c92 0 158 -43 158 -174c0 -134 -64 -376 -235 -376zM137 63h5c99 0 153 207 153 312c0 82 -33 112 -92 112h-22l-94 -424h50z" />
    <glyph glyph-name="E.smcp" unicode="&#xf765;" horiz-adv-x="313" 
d="M221 0h-219l121 550h219l-13 -63h-148l-39 -174h142l-13 -63h-143l-41 -187h148z" />
    <glyph glyph-name="F.smcp" unicode="&#xf766;" horiz-adv-x="312" 
d="M74 0h-72l121 550h219l-13 -63h-148l-39 -174h142l-13 -63h-143z" />
    <glyph glyph-name="G.smcp" unicode="&#xf767;" horiz-adv-x="371" 
d="M160 -12c-89 0 -132 59 -132 166c0 137 71 408 220 408c72 0 109 -52 116 -118l-62 -14c-6 40 -20 69 -57 69c-92 0 -144 -249 -144 -345c0 -77 22 -103 62 -103c25 0 46 11 59 28l32 144h-71l14 60h135l-53 -241c-35 -35 -73 -54 -119 -54z" />
    <glyph glyph-name="G.smcp.alt1" horiz-adv-x="371" 
d="M154 -12c-83 0 -126 62 -126 158c0 136 70 416 221 416c70 0 107 -47 117 -114l-61 -17c-8 42 -26 68 -60 68c-97 0 -145 -276 -145 -352c0 -60 22 -96 59 -96c60 0 96 91 112 172h-88l14 59h156c-26 -143 -87 -294 -199 -294z" />
    <glyph glyph-name="H.smcp" unicode="&#xf768;" horiz-adv-x="389" 
d="M278 0h-71l55 252h-134l-54 -252h-72l121 550h72l-53 -236h134l52 236h71z" />
    <glyph glyph-name="I.smcp" unicode="&#xf769;" horiz-adv-x="184" 
d="M74 0h-72l121 550h72z" />
    <glyph glyph-name="J.smcp" unicode="&#xf76a;" horiz-adv-x="283" 
d="M62 -12c-45 0 -84 15 -103 47l37 51c11 -21 33 -35 60 -35c39 0 60 21 71 72l96 427h71l-96 -434c-21 -94 -67 -128 -136 -128z" />
    <glyph glyph-name="K.smcp" unicode="&#xf76b;" horiz-adv-x="370" 
d="M306 0h-81l-66 233l-49 -66l-36 -167h-72l121 550h72l-59 -267l199 267h81l-204 -261z" />
    <glyph glyph-name="L.smcp" unicode="&#xf76c;" horiz-adv-x="296" 
d="M221 0h-219l121 550h72l-108 -487h148z" />
    <glyph glyph-name="M.smcp" unicode="&#xf76d;" horiz-adv-x="490" 
d="M380 0h-70l88 403l-191 -403h-31l-14 403l-88 -403h-72l121 550h92l14 -375l179 375h93z" />
    <glyph glyph-name="N.smcp" unicode="&#xf76e;" horiz-adv-x="385" 
d="M275 0h-72l-46 379l-83 -379h-72l121 550h76l45 -369l81 369h71z" />
    <glyph glyph-name="O.smcp" unicode="&#xf76f;" horiz-adv-x="393" 
d="M156 -12c-79 0 -128 55 -128 165c0 95 52 409 222 409c78 0 127 -55 127 -165c0 -95 -53 -409 -221 -409zM159 51c103 0 145 284 145 347c0 68 -17 101 -57 101c-104 0 -146 -284 -146 -347c0 -68 17 -101 58 -101z" />
    <glyph glyph-name="P.smcp" unicode="&#xf770;" horiz-adv-x="333" 
d="M74 0h-72l121 550h97c76 0 126 -45 126 -127c0 -94 -56 -206 -169 -206h-56zM135 280h45c59 0 91 77 91 136c0 48 -23 71 -64 71h-26z" />
    <glyph glyph-name="Q.smcp" unicode="&#xf771;" horiz-adv-x="393" 
d="M156 -12c-79 0 -128 55 -128 165c0 95 52 409 222 409c78 0 127 -55 127 -165c0 -79 -37 -309 -146 -385l6 -36l-54 -9l-4 24c-7 -2 -15 -3 -23 -3zM159 51c3 0 7 0 10 1l-17 114l54 10l13 -88c60 79 85 261 85 310c0 68 -17 101 -57 101c-104 0 -146 -284 -146 -347
c0 -68 17 -101 58 -101z" />
    <glyph glyph-name="R.smcp" unicode="&#xf772;" horiz-adv-x="350" 
d="M263 0h-77l-23 217h-42l-47 -217h-72l121 550h100c76 0 124 -49 124 -128c0 -90 -52 -176 -117 -196zM169 280h12c60 0 91 82 91 135c0 49 -25 72 -59 72h-32l-46 -207h34z" />
    <glyph glyph-name="S.smcp" unicode="&#xf773;" horiz-adv-x="309" 
d="M109 -12c-54 0 -100 19 -130 63l44 50c19 -31 49 -50 83 -50c45 0 80 46 80 104c0 92 -114 126 -114 241c0 93 67 166 149 166c44 0 84 -16 111 -50l-42 -51c-17 26 -41 38 -69 38c-39 0 -74 -43 -74 -92c0 -85 116 -119 116 -251c0 -83 -66 -168 -154 -168z" />
    <glyph glyph-name="T.smcp" unicode="&#xf774;" horiz-adv-x="272" 
d="M118 0h-72l107 487h-85l14 63h242l-14 -63h-85z" />
    <glyph glyph-name="U.smcp" unicode="&#xf775;" horiz-adv-x="389" 
d="M158 -12c-86 0 -128 42 -128 110c0 25 4 49 8 65l85 387h72l-89 -400c-3 -13 -5 -29 -5 -36c0 -49 25 -63 60 -63c42 0 64 34 80 104l87 395h72l-86 -384c-25 -111 -65 -178 -156 -178z" />
    <glyph glyph-name="V.smcp" unicode="&#xf776;" horiz-adv-x="315" 
d="M144 0h-81l9 550h72l-20 -447l178 447h74z" />
    <glyph glyph-name="W.smcp" unicode="&#xf777;" horiz-adv-x="480" 
d="M322 0h-74l27 404l-151 -404h-74l25 550h73l-29 -415l158 415h60l-25 -415l154 415h74z" />
    <glyph glyph-name="X.smcp" unicode="&#xf778;" horiz-adv-x="324" 
d="M268 0h-78l-34 216l-128 -216h-80l178 280l-51 270h78l30 -206l119 206h80l-169 -269z" />
    <glyph glyph-name="Y.smcp" unicode="&#xf779;" horiz-adv-x="328" 
d="M146 0h-72l51 233l-58 317h74l36 -243l142 243h77l-199 -317z" />
    <glyph glyph-name="Z.smcp" unicode="&#xf77a;" horiz-adv-x="292" 
d="M211 0h-238l12 56l247 431h-152l14 63h232l-12 -55l-248 -432h159z" />
    <glyph glyph-name="Aacute" unicode="&#xc1;" horiz-adv-x="364" 
d="M303 0h-75l7 153h-143l-60 -153h-79l278 667h87zM240 220l17 357l-141 -357h124zM429 867l-132 -144h-48l111 144h69z" />
    <glyph glyph-name="Abreve" unicode="&#x102;" horiz-adv-x="364" 
d="M303 0h-75l7 153h-143l-60 -153h-79l278 667h87zM240 220l17 357l-141 -357h124zM415 780c-35 -37 -83 -61 -132 -61s-87 24 -106 61l39 28c12 -27 43 -44 74 -44c32 0 69 17 92 44z" />
    <glyph glyph-name="Acircumflex" unicode="&#xc2;" horiz-adv-x="364" 
d="M387 723h-39l-38 105l-79 -105h-44l98 144h66zM303 0h-75l7 153h-143l-60 -153h-79l278 667h87zM240 220l17 357l-141 -357h124z" />
    <glyph glyph-name="Adieresis" unicode="&#xc4;" horiz-adv-x="364" 
d="M411 775c0 -26 -23 -48 -49 -48c-21 0 -38 16 -38 39c0 25 23 47 49 47c21 0 38 -16 38 -38zM271 775c0 -26 -23 -48 -49 -48c-22 0 -39 16 -39 39c0 25 23 47 49 47c22 0 39 -16 39 -38zM303 0h-75l7 153h-143l-60 -153h-79l278 667h87zM240 220l17 357l-141 -357h124z
" />
    <glyph glyph-name="Agrave" unicode="&#xc0;" horiz-adv-x="364" 
d="M303 0h-75l7 153h-143l-60 -153h-79l278 667h87zM240 220l17 357l-141 -357h124zM324 723h-46l-68 144h67z" />
    <glyph glyph-name="Amacron" unicode="&#x100;" horiz-adv-x="364" 
d="M303 0h-75l7 153h-143l-60 -153h-79l278 667h87zM240 220l17 357l-141 -357h124zM416 740h-247l9 45h248z" />
    <glyph glyph-name="Aogonek" unicode="&#x104;" horiz-adv-x="364" 
d="M272 -116l31 -22c-16 -29 -39 -48 -72 -48c-37 0 -62 20 -62 58c0 35 16 82 74 128h-15l7 153h-143l-60 -153h-79l278 667h87l-15 -667c-48 -29 -93 -69 -93 -123c0 -16 10 -26 26 -26c17 0 30 14 36 33zM240 220l17 357l-141 -357h124z" />
    <glyph glyph-name="Aring" unicode="&#xc5;" horiz-adv-x="364" 
d="M303 0h-75l7 153h-143l-60 -153h-79l278 667h87zM240 220l17 357l-141 -357h124zM290 692c-44 0 -74 32 -74 76c0 49 43 92 92 92c43 0 74 -32 74 -76c0 -49 -43 -92 -92 -92zM292 728c29 0 54 24 54 53c0 24 -17 43 -40 43c-29 0 -54 -24 -54 -53c0 -24 16 -43 40 -43z
" />
    <glyph glyph-name="Atilde" unicode="&#xc3;" horiz-adv-x="364" 
d="M303 0h-75l7 153h-143l-60 -153h-79l278 667h87zM240 220l17 357l-141 -357h124zM335 721c-62 0 -34 95 -71 95c-19 0 -35 -27 -48 -89h-40c17 74 44 134 95 134c62 0 34 -95 71 -95c18 0 34 27 48 89h40c-16 -74 -45 -134 -95 -134z" />
    <glyph glyph-name="uni1EA0" unicode="&#x1ea0;" horiz-adv-x="364" 
d="M303 0h-75l7 153h-143l-60 -153h-79l278 667h87zM240 220l17 357l-141 -357h124zM142 -133c0 -27 -24 -49 -50 -49c-23 0 -40 17 -40 40c0 26 23 49 50 49c23 0 40 -17 40 -40z" />
    <glyph glyph-name="uni1EA2" unicode="&#x1ea2;" horiz-adv-x="364" 
d="M303 0h-75l7 153h-143l-60 -153h-79l278 667h87zM240 220l17 357l-141 -357h124zM269 767l-28 10c11 24 29 43 59 43c32 0 50 -18 50 -48s-17 -57 -35 -75h-37c23 20 37 44 38 69c1 14 -5 24 -18 24s-22 -9 -29 -23z" />
    <glyph glyph-name="uni1EA4" unicode="&#x1ea4;" horiz-adv-x="364" 
d="M372 682h-39l-38 79l-79 -79h-44l98 108h66zM303 0h-75l7 153h-143l-60 -153h-79l278 667h87zM240 220l17 357l-141 -357h124zM539 843l-132 -108h-48l111 108h69z" />
    <glyph glyph-name="uni1EAC" unicode="&#x1eac;" horiz-adv-x="364" 
d="M303 0h-75l7 153h-143l-60 -153h-79l278 667h87zM240 220l17 357l-141 -357h124zM387 723h-39l-38 105l-79 -105h-44l98 144h66zM143 -133c0 -27 -24 -49 -50 -49c-23 0 -40 17 -40 40c0 26 23 49 50 49c23 0 40 -17 40 -40z" />
    <glyph glyph-name="uni1EA6" unicode="&#x1ea6;" horiz-adv-x="364" 
d="M372 682h-39l-38 79l-79 -79h-44l98 108h66zM303 0h-75l7 153h-143l-60 -153h-79l278 667h87zM240 220l17 357l-141 -357h124zM210 735h-46l-68 108h67z" />
    <glyph glyph-name="uni1EA8" unicode="&#x1ea8;" horiz-adv-x="364" 
d="M372 682h-39l-38 79l-79 -79h-44l98 108h66zM303 0h-75l7 153h-143l-60 -153h-79l278 667h87zM240 220l17 357l-141 -357h124zM352 809l-28 7c11 18 29 32 59 32c32 0 50 -13 50 -36c0 -22 -17 -42 -35 -56h-37c23 15 37 33 38 52c1 10 -5 18 -18 18s-22 -7 -29 -17z" />
    <glyph glyph-name="uni1EAE" unicode="&#x1eae;" horiz-adv-x="364" 
d="M303 0h-75l7 153h-143l-60 -153h-79l278 667h87zM240 220l17 357l-141 -357h124zM422 838l-132 -98h-48l111 98h69zM405 732c-35 -32 -83 -53 -132 -53s-87 21 -106 53l39 24c12 -23 43 -38 74 -38c32 0 69 15 92 38z" />
    <glyph glyph-name="uni1EAA" unicode="&#x1eaa;" horiz-adv-x="364" 
d="M367 678h-39l-38 52l-79 -52h-44l98 72h66zM303 0h-75l7 153h-143l-60 -153h-79l278 667h87zM240 220l17 357l-141 -357h124zM336 757c-62 0 -34 47 -71 47c-19 0 -35 -13 -48 -44h-40c17 37 44 67 95 67c62 0 34 -48 71 -48c18 0 34 14 48 45h40
c-16 -37 -45 -67 -95 -67z" />
    <glyph glyph-name="uni1EB0" unicode="&#x1eb0;" horiz-adv-x="364" 
d="M303 0h-75l7 153h-143l-60 -153h-79l278 667h87zM240 220l17 357l-141 -357h124zM330 740h-46l-68 98h67zM405 732c-35 -32 -83 -53 -132 -53s-87 21 -106 53l39 24c12 -23 43 -38 74 -38c32 0 69 15 92 38z" />
    <glyph glyph-name="uni1EB2" unicode="&#x1eb2;" horiz-adv-x="364" 
d="M303 0h-75l7 153h-143l-60 -153h-79l278 667h87zM240 220l17 357l-141 -357h124zM277 792l-28 7c11 16 29 29 59 29c32 0 50 -12 50 -33c0 -20 -17 -39 -35 -51h-37c23 13 37 30 38 47c1 10 -5 17 -18 17s-22 -7 -29 -16zM405 732c-35 -32 -83 -53 -132 -53
s-87 21 -106 53l39 24c12 -23 43 -38 74 -38c32 0 69 15 92 38z" />
    <glyph glyph-name="uni1EB4" unicode="&#x1eb4;" horiz-adv-x="364" 
d="M303 0h-75l7 153h-143l-60 -153h-79l278 667h87zM240 220l17 357l-141 -357h124zM405 723c-35 -26 -83 -42 -132 -42s-87 16 -106 42l39 19c12 -19 43 -30 74 -30c32 0 69 11 92 30zM336 757c-62 0 -34 47 -71 47c-19 0 -35 -13 -48 -44h-40c17 37 44 67 95 67
c62 0 34 -48 71 -48c18 0 34 14 48 45h40c-16 -37 -45 -67 -95 -67z" />
    <glyph glyph-name="uni1EB6" unicode="&#x1eb6;" horiz-adv-x="364" 
d="M303 0h-75l7 153h-143l-60 -153h-79l278 667h87zM240 220l17 357l-141 -357h124zM143 -133c0 -27 -24 -49 -50 -49c-23 0 -40 17 -40 40c0 26 23 49 50 49c23 0 40 -17 40 -40zM415 780c-35 -37 -83 -61 -132 -61s-87 24 -106 61l39 28c12 -27 43 -44 74 -44
c32 0 69 17 92 44z" />
    <glyph glyph-name="AE" unicode="&#xc6;" horiz-adv-x="554" 
d="M457 0h-248l34 153h-123l-80 -153h-80l364 667h280l-14 -67h-172l-50 -225h165l-15 -67h-166l-52 -241h172zM258 220l77 348l-181 -348h104z" />
    <glyph glyph-name="AEacute" unicode="&#x1fc;" horiz-adv-x="554" 
d="M550 867l-132 -144h-48l111 144h69zM457 0h-248l34 153h-123l-80 -153h-80l364 667h280l-14 -67h-172l-50 -225h165l-15 -67h-166l-52 -241h172zM258 220l77 348l-181 -348h104z" />
    <glyph glyph-name="uni1E02" unicode="&#x1e02;" horiz-adv-x="403" 
d="M172 0h-163l147 667h117c87 0 135 -57 135 -134c0 -87 -46 -180 -126 -196c48 -15 66 -70 66 -117c0 -105 -60 -220 -176 -220zM229 375c68 0 99 89 99 146c0 53 -29 79 -75 79h-36l-50 -225h62zM163 67c64 0 108 78 108 158c0 58 -27 83 -77 83h-42l-53 -241h64z
M364 773c0 -27 -24 -49 -50 -49c-23 0 -40 17 -40 40c0 26 23 49 50 49c23 0 40 -17 40 -40z" />
    <glyph glyph-name="Cacute" unicode="&#x106;" horiz-adv-x="390" 
d="M464 872l-132 -144h-48l111 144h69zM175 -12c-85 0 -136 63 -136 189c0 147 73 501 257 501c88 0 123 -71 130 -154l-71 -14c-5 64 -23 100 -65 100c-113 0 -173 -323 -173 -436c0 -85 21 -118 63 -118c36 0 64 31 94 85l60 -28c-42 -80 -92 -125 -159 -125z" />
    <glyph glyph-name="Ccedilla" unicode="&#xc7;" horiz-adv-x="390" 
d="M128 -191c-34 0 -61 12 -82 37l24 33c15 -21 35 -32 59 -32c30 0 50 24 50 50c0 16 -9 27 -25 27c-11 0 -20 -5 -28 -14l-27 17l39 66c-63 16 -99 77 -99 184c0 147 73 501 257 501c88 0 123 -71 130 -154l-71 -14c-5 64 -23 100 -65 100c-113 0 -173 -323 -173 -436
c0 -85 21 -118 63 -118c36 0 64 31 94 85l60 -28c-42 -79 -91 -124 -157 -125l-27 -44c7 7 16 10 24 10c29 0 48 -23 48 -55c0 -50 -42 -90 -94 -90z" />
    <glyph glyph-name="Ccircumflex" unicode="&#x108;" horiz-adv-x="390" 
d="M423 723h-39l-38 105l-79 -105h-44l98 144h66zM175 -12c-85 0 -136 63 -136 189c0 147 73 501 257 501c88 0 123 -71 130 -154l-71 -14c-5 64 -23 100 -65 100c-113 0 -173 -323 -173 -436c0 -85 21 -118 63 -118c36 0 64 31 94 85l60 -28c-42 -80 -92 -125 -159 -125z
" />
    <glyph glyph-name="Cdotaccent" unicode="&#x10a;" horiz-adv-x="390" 
d="M175 -12c-85 0 -136 63 -136 189c0 147 73 501 257 501c88 0 123 -71 130 -154l-71 -14c-5 64 -23 100 -65 100c-113 0 -173 -323 -173 -436c0 -85 21 -118 63 -118c36 0 64 31 94 85l60 -28c-42 -80 -92 -125 -159 -125zM376 773c0 -27 -24 -49 -50 -49
c-23 0 -40 17 -40 40c0 26 23 49 50 49c23 0 40 -17 40 -40z" />
    <glyph glyph-name="Ccaron" unicode="&#x10c;" horiz-adv-x="390" 
d="M359 723h-66l-37 144h40l36 -105l81 105h43zM175 -12c-85 0 -136 63 -136 189c0 147 73 501 257 501c88 0 123 -71 130 -154l-71 -14c-5 64 -23 100 -65 100c-113 0 -173 -323 -173 -436c0 -85 21 -118 63 -118c36 0 64 31 94 85l60 -28c-42 -80 -92 -125 -159 -125z" />
    <glyph glyph-name="Dcaron" unicode="&#x10e;" horiz-adv-x="427" 
d="M363 723h-66l-37 144h40l36 -105l81 105h43zM137 0h-128l147 667h124c69 0 140 -57 140 -200c0 -106 -57 -467 -283 -467zM99 67h50c144 0 193 318 193 399c0 96 -36 134 -76 134h-49z" />
    <glyph glyph-name="Dcroat" unicode="&#x110;" horiz-adv-x="446" 
d="M156 0h-128l66 302h-60l14 63h60l67 302h124c69 0 140 -57 140 -200c0 -106 -57 -467 -283 -467zM254 302h-84l-52 -235h50c144 0 193 318 193 399c0 96 -36 134 -76 134h-49l-52 -235h84z" />
    <glyph glyph-name="uni1E0A" unicode="&#x1e0a;" horiz-adv-x="427" 
d="M137 0h-128l147 667h124c69 0 140 -57 140 -200c0 -106 -57 -467 -283 -467zM99 67h50c144 0 193 318 193 399c0 96 -36 134 -76 134h-49zM382 773c0 -27 -24 -49 -50 -49c-23 0 -40 17 -40 40c0 26 23 49 50 49c23 0 40 -17 40 -40z" />
    <glyph glyph-name="Eacute" unicode="&#xc9;" horiz-adv-x="352" 
d="M433 867l-132 -144h-48l111 144h69zM257 0h-248l147 667h248l-15 -67h-172l-50 -225h165l-15 -67h-165l-53 -241h172z" />
    <glyph glyph-name="Ebreve" unicode="&#x114;" horiz-adv-x="352" 
d="M257 0h-248l147 667h248l-15 -67h-172l-50 -225h165l-15 -67h-165l-53 -241h172zM420 780c-35 -37 -83 -61 -132 -61s-87 24 -106 61l39 28c12 -27 43 -44 74 -44c32 0 69 17 92 44z" />
    <glyph glyph-name="Ecircumflex" unicode="&#xca;" horiz-adv-x="352" 
d="M393 723h-39l-38 105l-79 -105h-44l98 144h66zM257 0h-248l147 667h248l-15 -67h-172l-50 -225h165l-15 -67h-165l-53 -241h172z" />
    <glyph glyph-name="Edieresis" unicode="&#xcb;" horiz-adv-x="352" 
d="M416 775c0 -26 -23 -48 -49 -48c-21 0 -38 16 -38 39c0 25 23 47 49 47c21 0 38 -16 38 -38zM276 775c0 -26 -23 -48 -49 -48c-22 0 -39 16 -39 39c0 25 23 47 49 47c22 0 39 -16 39 -38zM257 0h-248l147 667h248l-15 -67h-172l-50 -225h165l-15 -67h-165l-53 -241h172z
" />
    <glyph glyph-name="Edotaccent" unicode="&#x116;" horiz-adv-x="352" 
d="M257 0h-248l147 667h248l-15 -67h-172l-50 -225h165l-15 -67h-165l-53 -241h172zM347 775c0 -27 -24 -49 -50 -49c-23 0 -40 17 -40 40c0 26 23 49 50 49c23 0 40 -17 40 -40z" />
    <glyph glyph-name="Egrave" unicode="&#xc8;" horiz-adv-x="352" 
d="M257 0h-248l147 667h248l-15 -67h-172l-50 -225h165l-15 -67h-165l-53 -241h172zM328 723h-46l-68 144h67z" />
    <glyph glyph-name="Emacron" unicode="&#x112;" horiz-adv-x="352" 
d="M257 0h-248l147 667h248l-15 -67h-172l-50 -225h165l-15 -67h-165l-53 -241h172zM419 740h-247l9 45h248z" />
    <glyph glyph-name="Eogonek" unicode="&#x118;" horiz-adv-x="352" 
d="M257 0c-48 -29 -93 -69 -93 -123c0 -16 10 -26 26 -26c17 0 30 14 36 33l31 -22c-16 -29 -39 -48 -72 -48c-37 0 -62 20 -62 58c0 35 16 82 74 128h-188l147 667h248l-15 -67h-172l-50 -225h165l-15 -67h-165l-53 -241h172z" />
    <glyph glyph-name="Ecaron" unicode="&#x11a;" horiz-adv-x="352" 
d="M327 723h-66l-37 144h40l36 -105l81 105h43zM257 0h-248l147 667h248l-15 -67h-172l-50 -225h165l-15 -67h-165l-53 -241h172z" />
    <glyph glyph-name="uni1EB8" unicode="&#x1eb8;" horiz-adv-x="352" 
d="M257 0h-248l147 667h248l-15 -67h-172l-50 -225h165l-15 -67h-165l-53 -241h172zM146 -133c0 -27 -24 -49 -50 -49c-23 0 -40 17 -40 40c0 26 23 49 50 49c23 0 40 -17 40 -40z" />
    <glyph glyph-name="uni1EBA" unicode="&#x1eba;" horiz-adv-x="352" 
d="M257 0h-248l147 667h248l-15 -67h-172l-50 -225h165l-15 -67h-165l-53 -241h172zM274 767l-28 10c11 24 29 43 59 43c32 0 50 -18 50 -48s-17 -57 -35 -75h-37c23 20 37 44 38 69c1 14 -5 24 -18 24s-22 -9 -29 -23z" />
    <glyph glyph-name="uni1EBC" unicode="&#x1ebc;" horiz-adv-x="352" 
d="M257 0h-248l147 667h248l-15 -67h-172l-50 -225h165l-15 -67h-165l-53 -241h172zM340 721c-62 0 -34 95 -71 95c-19 0 -35 -27 -48 -89h-40c17 74 44 134 95 134c62 0 34 -95 71 -95c18 0 34 27 48 89h40c-16 -74 -45 -134 -95 -134z" />
    <glyph glyph-name="uni1EBE" unicode="&#x1ebe;" horiz-adv-x="352" 
d="M377 682h-39l-38 79l-79 -79h-44l98 108h66zM544 843l-132 -108h-48l111 108h69zM257 0h-248l147 667h248l-15 -67h-172l-50 -225h165l-15 -67h-165l-53 -241h172z" />
    <glyph glyph-name="uni1EC0" unicode="&#x1ec0;" horiz-adv-x="352" 
d="M378 682h-39l-38 79l-79 -79h-44l98 108h66zM257 0h-248l147 667h248l-15 -67h-172l-50 -225h165l-15 -67h-165l-53 -241h172zM216 735h-46l-68 108h67z" />
    <glyph glyph-name="uni1EC2" unicode="&#x1ec2;" horiz-adv-x="352" 
d="M377 682h-39l-38 79l-79 -79h-44l98 108h66zM257 0h-248l147 667h248l-15 -67h-172l-50 -225h165l-15 -67h-165l-53 -241h172zM357 809l-28 7c11 18 29 32 59 32c32 0 50 -13 50 -36c0 -22 -17 -42 -35 -56h-37c23 15 37 33 38 52c1 10 -5 18 -18 18s-22 -7 -29 -17z" />
    <glyph glyph-name="uni1EC4" unicode="&#x1ec4;" horiz-adv-x="352" 
d="M371 678h-39l-38 52l-79 -52h-44l98 72h66zM257 0h-248l147 667h248l-15 -67h-172l-50 -225h165l-15 -67h-165l-53 -241h172zM340 757c-62 0 -34 47 -71 47c-19 0 -35 -13 -48 -44h-40c17 37 44 67 95 67c62 0 34 -48 71 -48c18 0 34 14 48 45h40
c-16 -37 -45 -67 -95 -67z" />
    <glyph glyph-name="uni1EC6" unicode="&#x1ec6;" horiz-adv-x="352" 
d="M393 723h-39l-38 105l-79 -105h-44l98 144h66zM257 0h-248l147 667h248l-15 -67h-172l-50 -225h165l-15 -67h-165l-53 -241h172zM146 -133c0 -27 -24 -49 -50 -49c-23 0 -40 17 -40 40c0 26 23 49 50 49c23 0 40 -17 40 -40z" />
    <glyph glyph-name="uni1E1E" unicode="&#x1e1e;" horiz-adv-x="351" 
d="M347 773c0 -27 -24 -49 -50 -49c-23 0 -40 17 -40 40c0 26 23 49 50 49c23 0 40 -17 40 -40zM84 0h-75l147 667h248l-15 -67h-172l-50 -225h165l-15 -67h-165z" />
    <glyph glyph-name="Gcircumflex" unicode="&#x11c;" horiz-adv-x="411" 
d="M423 723h-39l-38 105l-79 -105h-44l98 144h66zM175 -12c-84 0 -136 61 -136 189c0 159 79 501 257 501c91 0 123 -75 127 -147l-66 -15c-4 51 -18 94 -67 94c-110 0 -173 -309 -173 -436c0 -88 21 -118 63 -118c34 0 57 25 80 56l34 161h-89l15 67h158l-56 -255
c-40 -61 -88 -97 -147 -97z" />
    <glyph glyph-name="Gbreve" unicode="&#x11e;" horiz-adv-x="411" 
d="M175 -12c-84 0 -136 61 -136 189c0 159 79 501 257 501c91 0 123 -75 127 -147l-66 -15c-4 51 -18 94 -67 94c-110 0 -173 -309 -173 -436c0 -88 21 -118 63 -118c34 0 57 25 80 56l34 161h-89l15 67h158l-56 -255c-40 -61 -88 -97 -147 -97zM450 780
c-35 -37 -83 -61 -132 -61s-87 24 -106 61l39 28c12 -27 43 -44 74 -44c32 0 69 17 92 44z" />
    <glyph glyph-name="Gdotaccent" unicode="&#x120;" horiz-adv-x="411" 
d="M175 -12c-84 0 -136 61 -136 189c0 159 79 501 257 501c91 0 123 -75 127 -147l-66 -15c-4 51 -18 94 -67 94c-110 0 -173 -309 -173 -436c0 -88 21 -118 63 -118c34 0 57 25 80 56l34 161h-89l15 67h158l-56 -255c-40 -61 -88 -97 -147 -97zM376 773
c0 -27 -24 -49 -50 -49c-23 0 -40 17 -40 40c0 26 23 49 50 49c23 0 40 -17 40 -40z" />
    <glyph glyph-name="Gcommaaccent" unicode="&#x122;" horiz-adv-x="411" 
d="M179 -121c0 -56 -47 -115 -100 -143l-25 27c34 18 66 49 75 79c-2 -1 -5 -1 -7 -1c-18 0 -34 16 -34 37c0 27 23 49 48 49c24 0 43 -17 43 -48zM175 -12c-84 0 -136 61 -136 189c0 159 79 501 257 501c91 0 123 -75 127 -147l-66 -15c-4 51 -18 94 -67 94
c-110 0 -173 -309 -173 -436c0 -88 21 -118 63 -118c34 0 57 25 80 56l34 161h-89l15 67h158l-56 -255c-40 -61 -88 -97 -147 -97z" />
    <glyph glyph-name="Gbreve.alt1" horiz-adv-x="411" 
d="M450 780c-35 -37 -83 -61 -132 -61s-87 24 -106 61l39 28c12 -27 43 -44 74 -44c32 0 69 17 92 44zM164 -12c-76 0 -125 62 -125 189c0 138 71 501 269 501c76 0 111 -71 115 -147l-66 -15c-4 51 -21 94 -59 94c-119 0 -181 -319 -181 -436c0 -77 17 -118 59 -118
c63 0 107 105 133 217h-104l15 67h178c-47 -226 -113 -352 -234 -352z" />
    <glyph glyph-name="Gcommaaccent.alt1" horiz-adv-x="411" 
d="M181 -121c0 -56 -47 -115 -100 -143l-25 27c34 18 66 49 75 79c-2 -1 -5 -1 -7 -1c-18 0 -34 16 -34 37c0 27 23 49 48 49c24 0 43 -17 43 -48zM164 -12c-76 0 -125 62 -125 189c0 138 71 501 269 501c76 0 111 -71 115 -147l-66 -15c-4 51 -21 94 -59 94
c-119 0 -181 -319 -181 -436c0 -77 17 -118 59 -118c63 0 107 105 133 217h-104l15 67h178c-47 -226 -113 -352 -234 -352z" />
    <glyph glyph-name="Gcircumflex.alt1" horiz-adv-x="411" 
d="M422 723h-39l-38 105l-79 -105h-44l98 144h66zM164 -12c-76 0 -125 62 -125 189c0 138 71 501 269 501c76 0 111 -71 115 -147l-66 -15c-4 51 -21 94 -59 94c-119 0 -181 -319 -181 -436c0 -77 17 -118 59 -118c63 0 107 105 133 217h-104l15 67h178
c-47 -226 -113 -352 -234 -352z" />
    <glyph glyph-name="Gdotaccent.alt1" horiz-adv-x="411" 
d="M377 773c0 -27 -24 -49 -50 -49c-23 0 -40 17 -40 40c0 26 23 49 50 49c23 0 40 -17 40 -40zM164 -12c-76 0 -125 62 -125 189c0 138 71 501 269 501c76 0 111 -71 115 -147l-66 -15c-4 51 -21 94 -59 94c-119 0 -181 -319 -181 -436c0 -77 17 -118 59 -118
c63 0 107 105 133 217h-104l15 67h178c-47 -226 -113 -352 -234 -352z" />
    <glyph glyph-name="Hbar" unicode="&#x126;" horiz-adv-x="478" 
d="M340 0h-75l68 309h-160l-68 -309h-75l110 501h-62l10 45h62l27 121h75l-27 -121h160l27 121h75l-27 -121h61l-10 -45h-61zM188 377h160l27 124h-160z" />
    <glyph glyph-name="Hcircumflex" unicode="&#x124;" horiz-adv-x="436" 
d="M424 723h-39l-38 105l-79 -105h-44l98 144h66zM319 0h-75l68 309h-160l-68 -309h-75l147 667h75l-64 -290h160l64 290h75z" />
    <glyph glyph-name="uni1E22" unicode="&#x1e22;" horiz-adv-x="436" 
d="M319 0h-75l68 309h-160l-68 -309h-75l147 667h75l-64 -290h160l64 290h75zM379 773c0 -27 -24 -49 -50 -49c-23 0 -40 17 -40 40c0 26 23 49 50 49c23 0 40 -17 40 -40z" />
    <glyph glyph-name="Iacute" unicode="&#xcd;" horiz-adv-x="201" 
d="M84 0h-75l147 667h75zM347 867l-132 -144h-48l111 144h69z" />
    <glyph glyph-name="Ibreve" unicode="&#x12c;" horiz-adv-x="201" 
d="M84 0h-75l147 667h75zM334 780c-35 -37 -83 -61 -132 -61s-87 24 -106 61l39 28c12 -27 43 -44 74 -44c32 0 69 17 92 44z" />
    <glyph glyph-name="Icircumflex" unicode="&#xce;" horiz-adv-x="201" 
d="M307 723h-39l-38 105l-79 -105h-44l98 144h66zM84 0h-75l147 667h75z" />
    <glyph glyph-name="Idieresis" unicode="&#xcf;" horiz-adv-x="201" 
d="M330 775c0 -26 -23 -48 -49 -48c-21 0 -38 16 -38 39c0 25 23 47 49 47c21 0 38 -16 38 -38zM190 775c0 -26 -23 -48 -49 -48c-22 0 -39 16 -39 39c0 25 23 47 49 47c22 0 39 -16 39 -38zM84 0h-75l147 667h75z" />
    <glyph glyph-name="Idotaccent" unicode="&#x130;" horiz-adv-x="201" 
d="M84 0h-75l147 667h75zM261 773c0 -27 -24 -49 -50 -49c-23 0 -40 17 -40 40c0 26 23 49 50 49c23 0 40 -17 40 -40z" />
    <glyph glyph-name="Igrave" unicode="&#xcc;" horiz-adv-x="201" 
d="M84 0h-75l147 667h75zM242 723h-46l-68 144h67z" />
    <glyph glyph-name="Imacron" unicode="&#x12a;" horiz-adv-x="201" 
d="M84 0h-75l147 667h75zM334 740h-247l9 45h248z" />
    <glyph glyph-name="Iogonek" unicode="&#x12e;" horiz-adv-x="201" 
d="M54 -116l31 -22c-16 -29 -39 -48 -72 -48c-37 0 -62 20 -62 58c0 35 16 82 74 128h-16l147 667h75l-147 -667h1c-48 -29 -93 -69 -93 -123c0 -16 10 -26 26 -26c17 0 30 14 36 33z" />
    <glyph glyph-name="Itilde" unicode="&#x128;" horiz-adv-x="201" 
d="M84 0h-75l147 667h75zM254 721c-62 0 -34 95 -71 95c-19 0 -35 -27 -48 -89h-40c17 74 44 134 95 134c62 0 34 -95 71 -95c18 0 34 27 48 89h40c-16 -74 -45 -134 -95 -134z" />
    <glyph glyph-name="uni1EC8" unicode="&#x1ec8;" horiz-adv-x="201" 
d="M84 0h-75l147 667h75zM188 767l-28 10c11 24 29 43 59 43c32 0 50 -18 50 -48s-17 -57 -35 -75h-37c23 20 37 44 38 69c1 14 -5 24 -18 24s-22 -9 -29 -23z" />
    <glyph glyph-name="uni1ECA" unicode="&#x1eca;" horiz-adv-x="201" 
d="M84 0h-75l147 667h75zM61 -133c0 -27 -24 -49 -50 -49c-23 0 -40 17 -40 40c0 26 23 49 50 49c23 0 40 -17 40 -40z" />
    <glyph glyph-name="IJ" unicode="&#x132;" horiz-adv-x="522" 
d="M84 0h-75l147 667h75zM277 -12c-46 0 -88 16 -112 50l37 58c16 -28 45 -40 70 -40c49 0 76 26 90 89l116 522h75l-116 -525c-24 -107 -72 -154 -160 -154z" />
    <glyph glyph-name="Jcircumflex" unicode="&#x134;" horiz-adv-x="321" 
d="M427 723h-39l-38 105l-79 -105h-44l98 144h66zM76 -12c-46 0 -88 16 -112 50l37 58c16 -28 45 -40 70 -40c49 0 76 26 90 89l116 522h75l-116 -525c-24 -107 -72 -154 -160 -154z" />
    <glyph glyph-name="Kcommaaccent" unicode="&#x136;" horiz-adv-x="418" 
d="M193 -121c0 -56 -47 -115 -100 -143l-25 27c34 18 66 49 75 79c-2 -1 -5 -1 -7 -1c-18 0 -34 16 -34 37c0 27 23 49 48 49c24 0 43 -17 43 -48zM353 0h-81l-79 292l-64 -89l-45 -203h-75l147 667h75l-73 -335l239 335h90l-238 -317z" />
    <glyph glyph-name="Lacute" unicode="&#x139;" horiz-adv-x="333" 
d="M435 867l-132 -144h-48l111 144h69zM257 0h-248l147 667h75l-132 -600h172z" />
    <glyph glyph-name="Lcaron" unicode="&#x13d;" horiz-adv-x="333" 
d="M369 632c0 -56 -47 -115 -100 -143l-25 27c34 18 66 49 75 79c-2 -1 -5 -1 -7 -1c-18 0 -34 16 -34 37c0 27 23 49 48 49c24 0 43 -17 43 -48zM257 0h-248l147 667h75l-132 -600h172z" />
    <glyph glyph-name="Lcommaaccent" unicode="&#x13b;" horiz-adv-x="333" 
d="M159 -121c0 -56 -47 -115 -100 -143l-25 27c34 18 66 49 75 79c-2 -1 -5 -1 -7 -1c-18 0 -34 16 -34 37c0 27 23 49 48 49c24 0 43 -17 43 -48zM257 0h-248l147 667h75l-132 -600h172z" />
    <glyph glyph-name="Ldot" unicode="&#x13f;" horiz-adv-x="362" 
d="M257 0h-248l147 667h75l-132 -600h172zM297 290c-26 0 -47 21 -47 47c0 31 26 56 57 56c26 0 47 -21 47 -47c0 -32 -25 -56 -57 -56z" />
    <glyph glyph-name="Lslash" unicode="&#x141;" horiz-adv-x="346" 
d="M22 247l14 67l62 32l71 321h75l-62 -278l69 35l-14 -66l-69 -36l-56 -255h172l-14 -67h-248l61 278z" />
    <glyph glyph-name="Nacute" unicode="&#x143;" horiz-adv-x="436" 
d="M466 867l-132 -144h-48l111 144h69zM319 0h-72l-58 477l-105 -477h-75l147 667h75l56 -466l104 466h75z" />
    <glyph glyph-name="Ncaron" unicode="&#x147;" horiz-adv-x="436" 
d="M360 723h-66l-37 144h40l36 -105l81 105h43zM319 0h-72l-58 477l-105 -477h-75l147 667h75l56 -466l104 466h75z" />
    <glyph glyph-name="Ncommaaccent" unicode="&#x145;" horiz-adv-x="436" 
d="M184 -121c0 -56 -47 -115 -100 -143l-25 27c34 18 66 49 75 79c-2 -1 -5 -1 -7 -1c-18 0 -34 16 -34 37c0 27 23 49 48 49c24 0 43 -17 43 -48zM319 0h-72l-58 477l-105 -477h-75l147 667h75l56 -466l104 466h75z" />
    <glyph glyph-name="Ntilde" unicode="&#xd1;" horiz-adv-x="436" 
d="M372 721c-62 0 -34 95 -71 95c-19 0 -35 -27 -48 -89h-40c17 74 44 134 95 134c62 0 34 -95 71 -95c18 0 34 27 48 89h40c-16 -74 -45 -134 -95 -134zM319 0h-72l-58 477l-105 -477h-75l147 667h75l56 -466l104 466h75z" />
    <glyph glyph-name="Eng" unicode="&#x14a;" horiz-adv-x="436" 
d="M150 -196c-45 0 -87 16 -112 50l36 55c16 -26 45 -38 71 -38c49 0 75 26 90 89l11 50l-57 467l-105 -477h-75l147 667h75l56 -466l104 466h75l-156 -709c-24 -107 -71 -154 -160 -154z" />
    <glyph glyph-name="Oacute" unicode="&#xd3;" horiz-adv-x="434" 
d="M465 867l-132 -144h-48l111 144h69zM175 -12c-97 0 -136 85 -136 189c0 143 75 501 257 501c98 0 137 -88 137 -191c0 -142 -75 -499 -258 -499zM180 56c109 0 174 309 174 434c0 73 -17 120 -64 120c-110 0 -173 -310 -173 -436c0 -72 16 -118 63 -118z" />
    <glyph glyph-name="Obreve" unicode="&#x14e;" horiz-adv-x="434" 
d="M175 -12c-97 0 -136 85 -136 189c0 143 75 501 257 501c98 0 137 -88 137 -191c0 -142 -75 -499 -258 -499zM180 56c109 0 174 309 174 434c0 73 -17 120 -64 120c-110 0 -173 -310 -173 -436c0 -72 16 -118 63 -118zM451 780c-35 -37 -83 -61 -132 -61s-87 24 -106 61
l39 28c12 -27 43 -44 74 -44c32 0 69 17 92 44z" />
    <glyph glyph-name="Ocircumflex" unicode="&#xd4;" horiz-adv-x="434" 
d="M423 723h-39l-38 105l-79 -105h-44l98 144h66zM175 -12c-97 0 -136 85 -136 189c0 143 75 501 257 501c98 0 137 -88 137 -191c0 -142 -75 -499 -258 -499zM180 56c109 0 174 309 174 434c0 73 -17 120 -64 120c-110 0 -173 -310 -173 -436c0 -72 16 -118 63 -118z" />
    <glyph glyph-name="Odieresis" unicode="&#xd6;" horiz-adv-x="434" 
d="M446 775c0 -26 -23 -48 -49 -48c-21 0 -38 16 -38 39c0 25 23 47 49 47c21 0 38 -16 38 -38zM306 775c0 -26 -23 -48 -49 -48c-22 0 -39 16 -39 39c0 25 23 47 49 47c22 0 39 -16 39 -38zM175 -12c-97 0 -136 85 -136 189c0 143 75 501 257 501c98 0 137 -88 137 -191
c0 -142 -75 -499 -258 -499zM180 56c109 0 174 309 174 434c0 73 -17 120 -64 120c-110 0 -173 -310 -173 -436c0 -72 16 -118 63 -118z" />
    <glyph glyph-name="Ograve" unicode="&#xd2;" horiz-adv-x="434" 
d="M358 723h-46l-68 144h67zM175 -12c-97 0 -136 85 -136 189c0 143 75 501 257 501c98 0 137 -88 137 -191c0 -142 -75 -499 -258 -499zM180 56c109 0 174 309 174 434c0 73 -17 120 -64 120c-110 0 -173 -310 -173 -436c0 -72 16 -118 63 -118z" />
    <glyph glyph-name="Ohungarumlaut" unicode="&#x150;" horiz-adv-x="434" 
d="M380 867l-109 -144h-40l88 144h61zM497 867l-110 -144h-40l88 144h62zM175 -12c-97 0 -136 85 -136 189c0 143 75 501 257 501c98 0 137 -88 137 -191c0 -142 -75 -499 -258 -499zM180 56c109 0 174 309 174 434c0 73 -17 120 -64 120c-110 0 -173 -310 -173 -436
c0 -72 16 -118 63 -118z" />
    <glyph glyph-name="Omacron" unicode="&#x14c;" horiz-adv-x="434" 
d="M450 740h-247l9 45h248zM175 -12c-97 0 -136 85 -136 189c0 143 75 501 257 501c98 0 137 -88 137 -191c0 -142 -75 -499 -258 -499zM180 56c109 0 174 309 174 434c0 73 -17 120 -64 120c-110 0 -173 -310 -173 -436c0 -72 16 -118 63 -118z" />
    <glyph glyph-name="Oslash" unicode="&#xd8;" horiz-adv-x="434" 
d="M175 -12c-46 0 -79 18 -101 49l-23 -37h-52l53 83c-9 28 -13 60 -13 94c0 143 75 501 257 501c46 0 79 -20 101 -51l26 40h51l-55 -86c9 -28 14 -60 14 -94c0 -142 -75 -499 -258 -499zM290 610c-107 0 -170 -292 -173 -424l231 364c-8 37 -26 60 -58 60zM180 56
c105 0 170 289 174 421l-232 -364c8 -36 26 -57 58 -57z" />
    <glyph glyph-name="Oslashacute" unicode="&#x1fe;" horiz-adv-x="434" 
d="M465 867l-132 -144h-48l111 144h69zM175 -12c-46 0 -79 18 -101 49l-23 -37h-52l53 83c-9 28 -13 60 -13 94c0 143 75 501 257 501c46 0 79 -20 101 -51l26 40h51l-55 -86c9 -28 14 -60 14 -94c0 -142 -75 -499 -258 -499zM290 610c-107 0 -170 -292 -173 -424l231 364
c-8 37 -26 60 -58 60zM180 56c105 0 170 289 174 421l-232 -364c8 -36 26 -57 58 -57z" />
    <glyph glyph-name="Otilde" unicode="&#xd5;" horiz-adv-x="434" 
d="M175 -12c-97 0 -136 85 -136 189c0 143 75 501 257 501c98 0 137 -88 137 -191c0 -142 -75 -499 -258 -499zM180 56c109 0 174 309 174 434c0 73 -17 120 -64 120c-110 0 -173 -310 -173 -436c0 -72 16 -118 63 -118zM370 721c-62 0 -34 95 -71 95c-19 0 -35 -27 -48 -89
h-40c17 74 44 134 95 134c62 0 34 -95 71 -95c18 0 34 27 48 89h40c-16 -74 -45 -134 -95 -134z" />
    <glyph glyph-name="uni1ECC" unicode="&#x1ecc;" horiz-adv-x="434" 
d="M175 -12c-97 0 -136 85 -136 189c0 143 75 501 257 501c98 0 137 -88 137 -191c0 -142 -75 -499 -258 -499zM180 56c109 0 174 309 174 434c0 73 -17 120 -64 120c-110 0 -173 -310 -173 -436c0 -72 16 -118 63 -118zM177 -133c0 -27 -24 -49 -50 -49
c-23 0 -40 17 -40 40c0 26 23 49 50 49c23 0 40 -17 40 -40z" />
    <glyph glyph-name="uni1ECE" unicode="&#x1ece;" horiz-adv-x="434" 
d="M175 -12c-97 0 -136 85 -136 189c0 143 75 501 257 501c98 0 137 -88 137 -191c0 -142 -75 -499 -258 -499zM180 56c109 0 174 309 174 434c0 73 -17 120 -64 120c-110 0 -173 -310 -173 -436c0 -72 16 -118 63 -118zM304 767l-28 10c11 24 29 43 59 43
c32 0 50 -18 50 -48s-17 -57 -35 -75h-37c23 20 37 44 38 69c1 14 -5 24 -18 24s-22 -9 -29 -23z" />
    <glyph glyph-name="uni1ED0" unicode="&#x1ed0;" horiz-adv-x="434" 
d="M408 682h-39l-38 79l-79 -79h-44l98 108h66zM575 843l-132 -108h-48l111 108h69zM175 -12c-97 0 -136 85 -136 189c0 143 75 501 257 501c98 0 137 -88 137 -191c0 -142 -75 -499 -258 -499zM180 56c109 0 174 309 174 434c0 73 -17 120 -64 120
c-110 0 -173 -310 -173 -436c0 -72 16 -118 63 -118z" />
    <glyph glyph-name="uni1ED2" unicode="&#x1ed2;" horiz-adv-x="434" 
d="M407 682h-39l-38 79l-79 -79h-44l98 108h66zM175 -12c-97 0 -136 85 -136 189c0 143 75 501 257 501c98 0 137 -88 137 -191c0 -142 -75 -499 -258 -499zM180 56c109 0 174 309 174 434c0 73 -17 120 -64 120c-110 0 -173 -310 -173 -436c0 -72 16 -118 63 -118zM245 735
h-46l-68 108h67z" />
    <glyph glyph-name="uni1ED4" unicode="&#x1ed4;" horiz-adv-x="434" 
d="M407 682h-39l-38 79l-79 -79h-44l98 108h66zM175 -12c-97 0 -136 85 -136 189c0 143 75 501 257 501c98 0 137 -88 137 -191c0 -142 -75 -499 -258 -499zM180 56c109 0 174 309 174 434c0 73 -17 120 -64 120c-110 0 -173 -310 -173 -436c0 -72 16 -118 63 -118zM387 809
l-28 7c11 18 29 32 59 32c32 0 50 -13 50 -36c0 -22 -17 -42 -35 -56h-37c23 15 37 33 38 52c1 10 -5 18 -18 18s-22 -7 -29 -17z" />
    <glyph glyph-name="uni1ED6" unicode="&#x1ed6;" horiz-adv-x="434" 
d="M402 678h-39l-38 52l-79 -52h-44l98 72h66zM175 -12c-97 0 -136 85 -136 189c0 143 75 501 257 501c98 0 137 -88 137 -191c0 -142 -75 -499 -258 -499zM180 56c109 0 174 309 174 434c0 73 -17 120 -64 120c-110 0 -173 -310 -173 -436c0 -72 16 -118 63 -118zM370 757
c-62 0 -34 47 -71 47c-19 0 -35 -13 -48 -44h-40c17 37 44 67 95 67c62 0 34 -48 71 -48c18 0 34 14 48 45h40c-16 -37 -45 -67 -95 -67z" />
    <glyph glyph-name="uni1ED8" unicode="&#x1ed8;" horiz-adv-x="434" 
d="M423 723h-39l-38 105l-79 -105h-44l98 144h66zM175 -12c-97 0 -136 85 -136 189c0 143 75 501 257 501c98 0 137 -88 137 -191c0 -142 -75 -499 -258 -499zM180 56c109 0 174 309 174 434c0 73 -17 120 -64 120c-110 0 -173 -310 -173 -436c0 -72 16 -118 63 -118z
M177 -133c0 -27 -24 -49 -50 -49c-23 0 -40 17 -40 40c0 26 23 49 50 49c23 0 40 -17 40 -40z" />
    <glyph glyph-name="Ohorn" unicode="&#x1a0;" horiz-adv-x="434" 
d="M175 -12c-97 0 -136 85 -136 189c0 143 75 501 257 501c66 0 105 -40 123 -97c25 17 45 41 52 64h-7c-18 0 -33 14 -33 35c0 25 22 46 46 46c23 0 41 -16 41 -46c0 -52 -42 -106 -90 -134c4 -19 5 -39 5 -59c0 -142 -75 -499 -258 -499zM180 56c109 0 174 309 174 434
c0 73 -17 120 -64 120c-110 0 -173 -310 -173 -436c0 -72 16 -118 63 -118z" />
    <glyph glyph-name="uni1EDA" unicode="&#x1eda;" horiz-adv-x="434" 
d="M465 867l-132 -144h-48l111 144h69zM175 -12c-97 0 -136 85 -136 189c0 143 75 501 257 501c66 0 105 -40 123 -97c25 17 45 41 52 64h-7c-18 0 -33 14 -33 35c0 25 22 46 46 46c23 0 41 -16 41 -46c0 -52 -42 -106 -90 -134c4 -19 5 -39 5 -59
c0 -142 -75 -499 -258 -499zM180 56c109 0 174 309 174 434c0 73 -17 120 -64 120c-110 0 -173 -310 -173 -436c0 -72 16 -118 63 -118z" />
    <glyph glyph-name="uni1EDC" unicode="&#x1edc;" horiz-adv-x="434" 
d="M175 -12c-97 0 -136 85 -136 189c0 143 75 501 257 501c66 0 105 -40 123 -97c25 17 45 41 52 64h-7c-18 0 -33 14 -33 35c0 25 22 46 46 46c23 0 41 -16 41 -46c0 -52 -42 -106 -90 -134c4 -19 5 -39 5 -59c0 -142 -75 -499 -258 -499zM180 56c109 0 174 309 174 434
c0 73 -17 120 -64 120c-110 0 -173 -310 -173 -436c0 -72 16 -118 63 -118zM358 723h-46l-68 144h67z" />
    <glyph glyph-name="uni1EDE" unicode="&#x1ede;" horiz-adv-x="434" 
d="M175 -12c-97 0 -136 85 -136 189c0 143 75 501 257 501c66 0 105 -40 123 -97c25 17 45 41 52 64h-7c-18 0 -33 14 -33 35c0 25 22 46 46 46c23 0 41 -16 41 -46c0 -52 -42 -106 -90 -134c4 -19 5 -39 5 -59c0 -142 -75 -499 -258 -499zM180 56c109 0 174 309 174 434
c0 73 -17 120 -64 120c-110 0 -173 -310 -173 -436c0 -72 16 -118 63 -118zM304 767l-28 10c11 24 29 43 59 43c32 0 50 -18 50 -48s-17 -57 -35 -75h-37c23 20 37 44 38 69c1 14 -5 24 -18 24s-22 -9 -29 -23z" />
    <glyph glyph-name="uni1EE0" unicode="&#x1ee0;" horiz-adv-x="434" 
d="M175 -12c-97 0 -136 85 -136 189c0 143 75 501 257 501c66 0 105 -40 123 -97c25 17 45 41 52 64h-7c-18 0 -33 14 -33 35c0 25 22 46 46 46c23 0 41 -16 41 -46c0 -52 -42 -106 -90 -134c4 -19 5 -39 5 -59c0 -142 -75 -499 -258 -499zM180 56c109 0 174 309 174 434
c0 73 -17 120 -64 120c-110 0 -173 -310 -173 -436c0 -72 16 -118 63 -118zM370 721c-62 0 -34 95 -71 95c-19 0 -35 -27 -48 -89h-40c17 74 44 134 95 134c62 0 34 -95 71 -95c18 0 34 27 48 89h40c-16 -74 -45 -134 -95 -134z" />
    <glyph glyph-name="uni1EE2" unicode="&#x1ee2;" horiz-adv-x="434" 
d="M175 -12c-97 0 -136 85 -136 189c0 143 75 501 257 501c66 0 105 -40 123 -97c25 17 45 41 52 64h-7c-18 0 -33 14 -33 35c0 25 22 46 46 46c23 0 41 -16 41 -46c0 -52 -42 -106 -90 -134c4 -19 5 -39 5 -59c0 -142 -75 -499 -258 -499zM180 56c109 0 174 309 174 434
c0 73 -17 120 -64 120c-110 0 -173 -310 -173 -436c0 -72 16 -118 63 -118zM177 -133c0 -27 -24 -49 -50 -49c-23 0 -40 17 -40 40c0 26 23 49 50 49c23 0 40 -17 40 -40z" />
    <glyph glyph-name="OE" unicode="&#x152;" horiz-adv-x="594" 
d="M497 0h-248l14 66c-40 -66 -85 -78 -112 -78c-72 0 -112 74 -112 189c0 150 79 500 261 500c29 0 70 -14 82 -76l14 66h248l-14 -67h-172l-50 -225h165l-15 -67h-166l-52 -241h172zM289 178l69 311c-2 81 -21 120 -62 120c-118 0 -179 -307 -179 -435
c0 -66 12 -118 58 -118c41 0 83 46 114 122z" />
    <glyph glyph-name="uni1E56" unicode="&#x1e56;" horiz-adv-x="387" 
d="M84 0h-75l147 667h125c77 0 131 -61 131 -152c0 -118 -69 -246 -209 -246h-60zM158 336h52c82 0 122 93 122 174c0 61 -29 90 -68 90h-47zM367 773c0 -27 -24 -49 -50 -49c-23 0 -40 17 -40 40c0 26 23 49 50 49c23 0 40 -17 40 -40z" />
    <glyph glyph-name="Racute" unicode="&#x154;" horiz-adv-x="409" 
d="M455 867l-132 -144h-48l111 144h69zM311 0h-78l-27 269h-63l-59 -269h-75l147 667h123c80 0 134 -64 134 -150c0 -116 -64 -213 -137 -235zM158 336h53c82 0 122 93 122 176c0 60 -27 88 -67 88h-49z" />
    <glyph glyph-name="Rcaron" unicode="&#x158;" horiz-adv-x="409" 
d="M347 723h-66l-37 144h40l36 -105l81 105h43zM311 0h-78l-27 269h-63l-59 -269h-75l147 667h123c80 0 134 -64 134 -150c0 -116 -64 -213 -137 -235zM158 336h53c82 0 122 93 122 176c0 60 -27 88 -67 88h-49z" />
    <glyph glyph-name="Rcommaaccent" unicode="&#x156;" horiz-adv-x="409" 
d="M173 -121c0 -56 -47 -115 -100 -143l-25 27c34 18 66 49 75 79c-2 -1 -5 -1 -7 -1c-18 0 -34 16 -34 37c0 27 23 49 48 49c24 0 43 -17 43 -48zM311 0h-78l-27 269h-63l-59 -269h-75l147 667h123c80 0 134 -64 134 -150c0 -116 -64 -213 -137 -235zM158 336h53
c82 0 122 93 122 176c0 60 -27 88 -67 88h-49z" />
    <glyph glyph-name="Sacute" unicode="&#x15a;" horiz-adv-x="354" 
d="M423 867l-132 -144h-48l111 144h69zM125 -12c-59 0 -115 28 -142 69l49 55c19 -33 57 -56 93 -56c53 0 105 49 105 132c0 106 -140 161 -140 297c0 109 83 193 176 193c46 0 95 -19 123 -55l-43 -56c-19 27 -48 43 -81 43c-57 0 -96 -54 -96 -114
c0 -94 139 -160 139 -297c0 -119 -78 -211 -183 -211z" />
    <glyph glyph-name="Scaron" unicode="&#x160;" horiz-adv-x="354" 
d="M318 723h-66l-37 144h40l36 -105l81 105h43zM125 -12c-59 0 -115 28 -142 69l49 55c19 -33 57 -56 93 -56c53 0 105 49 105 132c0 106 -140 161 -140 297c0 109 83 193 176 193c46 0 95 -19 123 -55l-43 -56c-19 27 -48 43 -81 43c-57 0 -96 -54 -96 -114
c0 -94 139 -160 139 -297c0 -119 -78 -211 -183 -211z" />
    <glyph glyph-name="Scircumflex" unicode="&#x15c;" horiz-adv-x="354" 
d="M383 723h-39l-38 105l-79 -105h-44l98 144h66zM125 -12c-59 0 -115 28 -142 69l49 55c19 -33 57 -56 93 -56c53 0 105 49 105 132c0 106 -140 161 -140 297c0 109 83 193 176 193c46 0 95 -19 123 -55l-43 -56c-19 27 -48 43 -81 43c-57 0 -96 -54 -96 -114
c0 -94 139 -160 139 -297c0 -119 -78 -211 -183 -211z" />
    <glyph glyph-name="Scedilla" unicode="&#x15e;" horiz-adv-x="354" 
d="M75 -191c-34 0 -61 12 -82 37l24 33c15 -21 35 -32 59 -32c30 0 50 24 50 50c0 16 -9 27 -25 27c-11 0 -20 -5 -28 -14l-27 17l39 65c-44 9 -81 33 -102 65l49 55c19 -33 57 -56 93 -56c53 0 105 49 105 132c0 106 -140 161 -140 297c0 109 83 193 176 193
c46 0 95 -19 123 -55l-43 -56c-19 27 -48 43 -81 43c-57 0 -96 -54 -96 -114c0 -94 139 -160 139 -297c0 -119 -78 -211 -183 -211h-1l-27 -44c7 7 16 10 24 10c29 0 48 -23 48 -55c0 -50 -42 -90 -94 -90z" />
    <glyph glyph-name="Scommaaccent" unicode="&#x218;" horiz-adv-x="354" 
d="M142 -121c0 -56 -47 -115 -100 -143l-25 27c34 18 66 49 75 79c-2 -1 -5 -1 -7 -1c-18 0 -34 16 -34 37c0 27 23 49 48 49c24 0 43 -17 43 -48zM125 -12c-59 0 -115 28 -142 69l49 55c19 -33 57 -56 93 -56c53 0 105 49 105 132c0 106 -140 161 -140 297
c0 109 83 193 176 193c46 0 95 -19 123 -55l-43 -56c-19 27 -48 43 -81 43c-57 0 -96 -54 -96 -114c0 -94 139 -160 139 -297c0 -119 -78 -211 -183 -211z" />
    <glyph glyph-name="uni1E60" unicode="&#x1e60;" horiz-adv-x="354" 
d="M125 -12c-59 0 -115 28 -142 69l49 55c19 -33 57 -56 93 -56c53 0 105 49 105 132c0 106 -140 161 -140 297c0 109 83 193 176 193c46 0 95 -19 123 -55l-43 -56c-19 27 -48 43 -81 43c-57 0 -96 -54 -96 -114c0 -94 139 -160 139 -297c0 -119 -78 -211 -183 -211z
M337 773c0 -27 -24 -49 -50 -49c-23 0 -40 17 -40 40c0 26 23 49 50 49c23 0 40 -17 40 -40z" />
    <glyph glyph-name="Tbar" unicode="&#x166;" horiz-adv-x="322" 
d="M145 0h-76l66 298h-75l10 45h75l57 257h-105l14 67h286l-14 -67h-106l-57 -257h75l-9 -45h-76z" />
    <glyph glyph-name="Tcaron" unicode="&#x164;" horiz-adv-x="322" 
d="M298 723h-66l-37 144h40l36 -105l81 105h43zM145 0h-76l133 600h-105l14 67h286l-14 -67h-106z" />
    <glyph glyph-name="Tcommaaccent" unicode="&#x162;" horiz-adv-x="322" 
d="M131 -121c0 -56 -47 -115 -100 -143l-25 27c34 18 66 49 75 79c-2 -1 -5 -1 -7 -1c-18 0 -34 16 -34 37c0 27 23 49 48 49c24 0 43 -17 43 -48zM145 0h-76l133 600h-105l14 67h286l-14 -67h-106z" />
    <glyph glyph-name="uni021A" unicode="&#x21a;" horiz-adv-x="322" 
d="M131 -121c0 -56 -47 -115 -100 -143l-25 27c34 18 66 49 75 79c-2 -1 -5 -1 -7 -1c-18 0 -34 16 -34 37c0 27 23 49 48 49c24 0 43 -17 43 -48zM145 0h-76l133 600h-105l14 67h286l-14 -67h-106z" />
    <glyph glyph-name="uni1E6A" unicode="&#x1e6a;" horiz-adv-x="322" 
d="M145 0h-76l133 600h-105l14 67h286l-14 -67h-106zM323 773c0 -27 -24 -49 -50 -49c-23 0 -40 17 -40 40c0 26 23 49 50 49c23 0 40 -17 40 -40z" />
    <glyph glyph-name="Uacute" unicode="&#xda;" horiz-adv-x="437" 
d="M465 867l-132 -144h-48l111 144h69zM181 -12c-79 0 -139 51 -139 140c0 15 2 33 5 46l109 493h75l-110 -498c-1 -7 -4 -25 -4 -36c0 -52 30 -78 70 -78c47 0 77 31 95 114l110 498h75l-109 -495c-29 -129 -89 -184 -177 -184z" />
    <glyph glyph-name="Ubreve" unicode="&#x16c;" horiz-adv-x="437" 
d="M181 -12c-79 0 -139 51 -139 140c0 15 2 33 5 46l109 493h75l-110 -498c-1 -7 -4 -25 -4 -36c0 -52 30 -78 70 -78c47 0 77 31 95 114l110 498h75l-109 -495c-29 -129 -89 -184 -177 -184zM450 780c-35 -37 -83 -61 -132 -61s-87 24 -106 61l39 28c12 -27 43 -44 74 -44
c32 0 69 17 92 44z" />
    <glyph glyph-name="Ucircumflex" unicode="&#xdb;" horiz-adv-x="437" 
d="M424 723h-39l-38 105l-79 -105h-44l98 144h66zM181 -12c-79 0 -139 51 -139 140c0 15 2 33 5 46l109 493h75l-110 -498c-1 -7 -4 -25 -4 -36c0 -52 30 -78 70 -78c47 0 77 31 95 114l110 498h75l-109 -495c-29 -129 -89 -184 -177 -184z" />
    <glyph glyph-name="Udieresis" unicode="&#xdc;" horiz-adv-x="437" 
d="M447 775c0 -26 -23 -48 -49 -48c-21 0 -38 16 -38 39c0 25 23 47 49 47c21 0 38 -16 38 -38zM307 775c0 -26 -23 -48 -49 -48c-22 0 -39 16 -39 39c0 25 23 47 49 47c22 0 39 -16 39 -38zM181 -12c-79 0 -139 51 -139 140c0 15 2 33 5 46l109 493h75l-110 -498
c-1 -7 -4 -25 -4 -36c0 -52 30 -78 70 -78c47 0 77 31 95 114l110 498h75l-109 -495c-29 -129 -89 -184 -177 -184z" />
    <glyph glyph-name="Ugrave" unicode="&#xd9;" horiz-adv-x="437" 
d="M181 -12c-79 0 -139 51 -139 140c0 15 2 33 5 46l109 493h75l-110 -498c-1 -7 -4 -25 -4 -36c0 -52 30 -78 70 -78c47 0 77 31 95 114l110 498h75l-109 -495c-29 -129 -89 -184 -177 -184zM359 723h-46l-68 144h67z" />
    <glyph glyph-name="Uhungarumlaut" unicode="&#x170;" horiz-adv-x="437" 
d="M181 -12c-79 0 -139 51 -139 140c0 15 2 33 5 46l109 493h75l-110 -498c-1 -7 -4 -25 -4 -36c0 -52 30 -78 70 -78c47 0 77 31 95 114l110 498h75l-109 -495c-29 -129 -89 -184 -177 -184zM382 867l-109 -144h-40l88 144h61zM499 867l-110 -144h-40l88 144h62z" />
    <glyph glyph-name="Umacron" unicode="&#x16a;" horiz-adv-x="437" 
d="M181 -12c-79 0 -139 51 -139 140c0 15 2 33 5 46l109 493h75l-110 -498c-1 -7 -4 -25 -4 -36c0 -52 30 -78 70 -78c47 0 77 31 95 114l110 498h75l-109 -495c-29 -129 -89 -184 -177 -184zM451 740h-247l9 45h248z" />
    <glyph glyph-name="Uogonek" unicode="&#x172;" horiz-adv-x="437" 
d="M214 -116l31 -22c-16 -29 -39 -48 -72 -48c-37 0 -62 20 -62 58c0 32 13 74 60 117c-74 4 -129 54 -129 139c0 15 2 33 5 46l109 493h75l-110 -498c-1 -7 -4 -25 -4 -36c0 -52 30 -78 70 -78c47 0 77 31 95 114l110 498h75l-109 -495c-22 -95 -60 -150 -113 -172
c-48 -29 -93 -69 -93 -123c0 -16 10 -26 26 -26c17 0 30 14 36 33z" />
    <glyph glyph-name="Uring" unicode="&#x16e;" horiz-adv-x="437" 
d="M326 692c-44 0 -74 32 -74 76c0 49 43 92 92 92c43 0 74 -32 74 -76c0 -49 -43 -92 -92 -92zM328 728c29 0 54 24 54 53c0 24 -17 43 -40 43c-29 0 -54 -24 -54 -53c0 -24 16 -43 40 -43zM181 -12c-79 0 -139 51 -139 140c0 15 2 33 5 46l109 493h75l-110 -498
c-1 -7 -4 -25 -4 -36c0 -52 30 -78 70 -78c47 0 77 31 95 114l110 498h75l-109 -495c-29 -129 -89 -184 -177 -184z" />
    <glyph glyph-name="Utilde" unicode="&#x168;" horiz-adv-x="437" 
d="M181 -12c-79 0 -139 51 -139 140c0 15 2 33 5 46l109 493h75l-110 -498c-1 -7 -4 -25 -4 -36c0 -52 30 -78 70 -78c47 0 77 31 95 114l110 498h75l-109 -495c-29 -129 -89 -184 -177 -184zM371 721c-62 0 -34 95 -71 95c-19 0 -35 -27 -48 -89h-40c17 74 44 134 95 134
c62 0 34 -95 71 -95c18 0 34 27 48 89h40c-16 -74 -45 -134 -95 -134z" />
    <glyph glyph-name="uni1EE4" unicode="&#x1ee4;" horiz-adv-x="437" 
d="M181 -12c-79 0 -139 51 -139 140c0 15 2 33 5 46l109 493h75l-110 -498c-1 -7 -4 -25 -4 -36c0 -52 30 -78 70 -78c47 0 77 31 95 114l110 498h75l-109 -495c-29 -129 -89 -184 -177 -184zM177 -133c0 -27 -24 -49 -50 -49c-23 0 -40 17 -40 40c0 26 23 49 50 49
c23 0 40 -17 40 -40z" />
    <glyph glyph-name="Uhorn" unicode="&#x1af;" horiz-adv-x="437" 
d="M562 744c0 -54 -51 -117 -110 -143l-94 -429c-29 -129 -89 -184 -177 -184c-79 0 -139 51 -139 140c0 15 2 33 5 46l109 493h75l-110 -498c-1 -7 -4 -25 -4 -36c0 -52 30 -78 70 -78c47 0 77 31 95 114l110 498h75l-5 -22c25 17 46 42 53 64h-7c-18 0 -33 15 -33 35
c0 25 22 46 46 46c23 0 41 -16 41 -46z" />
    <glyph glyph-name="uni1EE6" unicode="&#x1ee6;" horiz-adv-x="437" 
d="M181 -12c-79 0 -139 51 -139 140c0 15 2 33 5 46l109 493h75l-110 -498c-1 -7 -4 -25 -4 -36c0 -52 30 -78 70 -78c47 0 77 31 95 114l110 498h75l-109 -495c-29 -129 -89 -184 -177 -184zM305 767l-28 10c11 24 29 43 59 43c32 0 50 -18 50 -48s-17 -57 -35 -75h-37
c23 20 37 44 38 69c1 14 -5 24 -18 24s-22 -9 -29 -23z" />
    <glyph glyph-name="uni1EE8" unicode="&#x1ee8;" horiz-adv-x="437" 
d="M465 867l-132 -144h-48l111 144h69zM562 744c0 -54 -51 -117 -110 -143l-94 -429c-29 -129 -89 -184 -177 -184c-79 0 -139 51 -139 140c0 15 2 33 5 46l109 493h75l-110 -498c-1 -7 -4 -25 -4 -36c0 -52 30 -78 70 -78c47 0 77 31 95 114l110 498h75l-5 -22
c25 17 46 42 53 64h-7c-18 0 -33 15 -33 35c0 25 22 46 46 46c23 0 41 -16 41 -46z" />
    <glyph glyph-name="uni1EEA" unicode="&#x1eea;" horiz-adv-x="437" 
d="M359 723h-46l-68 144h67zM562 744c0 -54 -51 -117 -110 -143l-94 -429c-29 -129 -89 -184 -177 -184c-79 0 -139 51 -139 140c0 15 2 33 5 46l109 493h75l-110 -498c-1 -7 -4 -25 -4 -36c0 -52 30 -78 70 -78c47 0 77 31 95 114l110 498h75l-5 -22c25 17 46 42 53 64h-7
c-18 0 -33 15 -33 35c0 25 22 46 46 46c23 0 41 -16 41 -46z" />
    <glyph glyph-name="uni1EEC" unicode="&#x1eec;" horiz-adv-x="437" 
d="M305 767l-28 10c11 24 29 43 59 43c32 0 50 -18 50 -48s-17 -57 -35 -75h-37c23 20 37 44 38 69c1 14 -5 24 -18 24s-22 -9 -29 -23zM562 744c0 -54 -51 -117 -110 -143l-94 -429c-29 -129 -89 -184 -177 -184c-79 0 -139 51 -139 140c0 15 2 33 5 46l109 493h75
l-110 -498c-1 -7 -4 -25 -4 -36c0 -52 30 -78 70 -78c47 0 77 31 95 114l110 498h75l-5 -22c25 17 46 42 53 64h-7c-18 0 -33 15 -33 35c0 25 22 46 46 46c23 0 41 -16 41 -46z" />
    <glyph glyph-name="uni1EEE" unicode="&#x1eee;" horiz-adv-x="437" 
d="M562 744c0 -54 -51 -117 -110 -143l-94 -429c-29 -129 -89 -184 -177 -184c-79 0 -139 51 -139 140c0 15 2 33 5 46l109 493h75l-110 -498c-1 -7 -4 -25 -4 -36c0 -52 30 -78 70 -78c47 0 77 31 95 114l110 498h75l-5 -22c25 17 46 42 53 64h-7c-18 0 -33 15 -33 35
c0 25 22 46 46 46c23 0 41 -16 41 -46zM371 721c-62 0 -34 95 -71 95c-19 0 -35 -27 -48 -89h-40c17 74 44 134 95 134c62 0 34 -95 71 -95c18 0 34 27 48 89h40c-16 -74 -45 -134 -95 -134z" />
    <glyph glyph-name="uni1EF0" unicode="&#x1ef0;" horiz-adv-x="437" 
d="M177 -133c0 -27 -24 -49 -50 -49c-23 0 -40 17 -40 40c0 26 23 49 50 49c23 0 40 -17 40 -40zM562 744c0 -54 -51 -117 -110 -143l-94 -429c-29 -129 -89 -184 -177 -184c-79 0 -139 51 -139 140c0 15 2 33 5 46l109 493h75l-110 -498c-1 -7 -4 -25 -4 -36
c0 -52 30 -78 70 -78c47 0 77 31 95 114l110 498h75l-5 -22c25 17 46 42 53 64h-7c-18 0 -33 15 -33 35c0 25 22 46 46 46c23 0 41 -16 41 -46z" />
    <glyph glyph-name="Wacute" unicode="&#x1e82;" horiz-adv-x="548" 
d="M518 867l-132 -144h-48l111 144h69zM370 0h-80l44 514l-184 -514h-79l40 667h77l-47 -531l193 531h64l-42 -531l188 531h79z" />
    <glyph glyph-name="Wcircumflex" unicode="&#x174;" horiz-adv-x="548" 
d="M479 723h-39l-38 105l-79 -105h-44l98 144h66zM370 0h-80l44 514l-184 -514h-79l40 667h77l-47 -531l193 531h64l-42 -531l188 531h79z" />
    <glyph glyph-name="Wdieresis" unicode="&#x1e84;" horiz-adv-x="548" 
d="M502 775c0 -26 -23 -48 -49 -48c-21 0 -38 16 -38 39c0 25 23 47 49 47c21 0 38 -16 38 -38zM362 775c0 -26 -23 -48 -49 -48c-22 0 -39 16 -39 39c0 25 23 47 49 47c22 0 39 -16 39 -38zM370 0h-80l44 514l-184 -514h-79l40 667h77l-47 -531l193 531h64l-42 -531
l188 531h79z" />
    <glyph glyph-name="Wgrave" unicode="&#x1e80;" horiz-adv-x="548" 
d="M370 0h-80l44 514l-184 -514h-79l40 667h77l-47 -531l193 531h64l-42 -531l188 531h79zM413 723h-46l-68 144h67z" />
    <glyph glyph-name="Yacute" unicode="&#xdd;" horiz-adv-x="372" 
d="M170 0h-75l62 283l-65 384h78l38 -307l174 307h84l-234 -384zM434 867l-132 -144h-48l111 144h69z" />
    <glyph glyph-name="Ycircumflex" unicode="&#x176;" horiz-adv-x="372" 
d="M393 723h-39l-38 105l-79 -105h-44l98 144h66zM170 0h-75l62 283l-65 384h78l38 -307l174 307h84l-234 -384z" />
    <glyph glyph-name="Ydieresis" unicode="&#x178;" horiz-adv-x="372" 
d="M418 775c0 -26 -23 -48 -49 -48c-21 0 -38 16 -38 39c0 25 23 47 49 47c21 0 38 -16 38 -38zM278 775c0 -26 -23 -48 -49 -48c-22 0 -39 16 -39 39c0 25 23 47 49 47c22 0 39 -16 39 -38zM170 0h-75l62 283l-65 384h78l38 -307l174 307h84l-234 -384z" />
    <glyph glyph-name="Ygrave" unicode="&#x1ef2;" horiz-adv-x="372" 
d="M170 0h-75l62 283l-65 384h78l38 -307l174 307h84l-234 -384zM329 723h-46l-68 144h67z" />
    <glyph glyph-name="Zacute" unicode="&#x179;" horiz-adv-x="340" 
d="M414 867l-132 -144h-48l111 144h69zM253 0h-274l14 66l298 534h-179l14 67h267l-14 -63l-300 -537h189z" />
    <glyph glyph-name="Zcaron" unicode="&#x17d;" horiz-adv-x="340" 
d="M308 723h-66l-37 144h40l36 -105l81 105h43zM253 0h-274l14 66l298 534h-179l14 67h267l-14 -63l-300 -537h189z" />
    <glyph glyph-name="Zdotaccent" unicode="&#x17b;" horiz-adv-x="340" 
d="M253 0h-274l14 66l298 534h-179l14 67h267l-14 -63l-300 -537h189zM327 773c0 -27 -24 -49 -50 -49c-23 0 -40 17 -40 40c0 26 23 49 50 49c23 0 40 -17 40 -40z" />
    <glyph glyph-name="Eth" unicode="&#xd0;" horiz-adv-x="446" 
d="M156 0h-128l66 302h-60l14 63h60l67 302h124c69 0 140 -57 140 -200c0 -106 -57 -467 -283 -467zM254 302h-84l-52 -235h50c144 0 193 318 193 399c0 96 -36 134 -76 134h-49l-52 -235h84z" />
    <glyph glyph-name="Thorn" unicode="&#xde;" horiz-adv-x="387" 
d="M84 0h-75l147 667h75l-26 -121h49c78 0 131 -61 131 -151c0 -107 -61 -247 -209 -247h-59zM183 215c80 0 122 91 122 174c0 55 -24 90 -69 90h-46l-58 -264h51z" />
    <glyph glyph-name="aacute" unicode="&#xe1;" horiz-adv-x="384" 
d="M210 495c38 0 74 -25 88 -81l15 69h68l-107 -483h-68l14 62c-30 -50 -65 -74 -101 -74c-62 0 -96 52 -96 143c0 119 61 364 187 364zM221 434c-84 0 -127 -212 -127 -298c0 -61 18 -87 55 -87c32 0 67 38 86 80l50 224c-4 45 -32 81 -64 81zM398 700l-132 -144h-48
l111 144h69z" />
    <glyph glyph-name="abreve" unicode="&#x103;" horiz-adv-x="384" 
d="M210 495c38 0 74 -25 88 -81l15 69h68l-107 -483h-68l14 62c-30 -50 -65 -74 -101 -74c-62 0 -96 52 -96 143c0 119 61 364 187 364zM221 434c-84 0 -127 -212 -127 -298c0 -61 18 -87 55 -87c32 0 67 38 86 80l50 224c-4 45 -32 81 -64 81zM385 613
c-35 -37 -83 -61 -132 -61s-87 24 -106 61l39 28c12 -27 43 -44 74 -44c32 0 69 17 92 44z" />
    <glyph glyph-name="acircumflex" unicode="&#xe2;" horiz-adv-x="384" 
d="M210 495c38 0 74 -25 88 -81l15 69h68l-107 -483h-68l14 62c-30 -50 -65 -74 -101 -74c-62 0 -96 52 -96 143c0 119 61 364 187 364zM221 434c-84 0 -127 -212 -127 -298c0 -61 18 -87 55 -87c32 0 67 38 86 80l50 224c-4 45 -32 81 -64 81zM357 556h-39l-38 105
l-79 -105h-44l98 144h66z" />
    <glyph glyph-name="adieresis" unicode="&#xe4;" horiz-adv-x="384" 
d="M210 495c38 0 74 -25 88 -81l15 69h68l-107 -483h-68l14 62c-30 -50 -65 -74 -101 -74c-62 0 -96 52 -96 143c0 119 61 364 187 364zM221 434c-84 0 -127 -212 -127 -298c0 -61 18 -87 55 -87c32 0 67 38 86 80l50 224c-4 45 -32 81 -64 81zM381 608
c0 -26 -23 -48 -49 -48c-21 0 -38 16 -38 39c0 25 23 47 49 47c21 0 38 -16 38 -38zM241 608c0 -26 -23 -48 -49 -48c-22 0 -39 16 -39 39c0 25 23 47 49 47c22 0 39 -16 39 -38z" />
    <glyph glyph-name="agrave" unicode="&#xe0;" horiz-adv-x="384" 
d="M210 495c38 0 74 -25 88 -81l15 69h68l-107 -483h-68l14 62c-30 -50 -65 -74 -101 -74c-62 0 -96 52 -96 143c0 119 61 364 187 364zM221 434c-84 0 -127 -212 -127 -298c0 -61 18 -87 55 -87c32 0 67 38 86 80l50 224c-4 45 -32 81 -64 81zM293 556h-46l-68 144h67z" />
    <glyph glyph-name="amacron" unicode="&#x101;" horiz-adv-x="384" 
d="M210 495c38 0 74 -25 88 -81l15 69h68l-107 -483h-68l14 62c-30 -50 -65 -74 -101 -74c-62 0 -96 52 -96 143c0 119 61 364 187 364zM221 434c-84 0 -127 -212 -127 -298c0 -61 18 -87 55 -87c32 0 67 38 86 80l50 224c-4 45 -32 81 -64 81zM384 573h-247l9 45h248z" />
    <glyph glyph-name="aogonek" unicode="&#x105;" horiz-adv-x="384" 
d="M243 -116l31 -22c-16 -29 -39 -48 -72 -48c-37 0 -62 20 -62 58c0 35 16 82 74 128h-8l14 62c-30 -50 -65 -74 -101 -74c-62 0 -96 52 -96 143c0 119 61 364 187 364c38 0 74 -25 88 -81l15 69h68l-107 -483c-48 -29 -93 -69 -93 -123c0 -16 10 -26 26 -26
c17 0 30 14 36 33zM221 434c-84 0 -127 -212 -127 -298c0 -61 18 -87 55 -87c32 0 67 38 86 80l50 224c-4 45 -32 81 -64 81z" />
    <glyph glyph-name="aring" unicode="&#xe5;" horiz-adv-x="384" 
d="M210 495c38 0 74 -25 88 -81l15 69h68l-107 -483h-68l14 62c-30 -50 -65 -74 -101 -74c-62 0 -96 52 -96 143c0 119 61 364 187 364zM221 434c-84 0 -127 -212 -127 -298c0 -61 18 -87 55 -87c32 0 67 38 86 80l50 224c-4 45 -32 81 -64 81zM263 538c-44 0 -74 32 -74 76
c0 49 43 92 92 92c43 0 74 -32 74 -76c0 -49 -43 -92 -92 -92zM265 574c29 0 54 24 54 53c0 24 -17 43 -40 43c-29 0 -54 -24 -54 -53c0 -24 16 -43 40 -43z" />
    <glyph glyph-name="atilde" unicode="&#xe3;" horiz-adv-x="384" 
d="M210 495c38 0 74 -25 88 -81l15 69h68l-107 -483h-68l14 62c-30 -50 -65 -74 -101 -74c-62 0 -96 52 -96 143c0 119 61 364 187 364zM221 434c-84 0 -127 -212 -127 -298c0 -61 18 -87 55 -87c32 0 67 38 86 80l50 224c-4 45 -32 81 -64 81zM304 554c-62 0 -34 95 -71 95
c-19 0 -35 -27 -48 -89h-40c17 74 44 134 95 134c62 0 34 -95 71 -95c18 0 34 27 48 89h40c-16 -74 -45 -134 -95 -134z" />
    <glyph glyph-name="uni1EA1" unicode="&#x1ea1;" horiz-adv-x="384" 
d="M210 495c38 0 74 -25 88 -81l15 69h68l-107 -483h-68l14 62c-30 -50 -65 -74 -101 -74c-62 0 -96 52 -96 143c0 119 61 364 187 364zM221 434c-84 0 -127 -212 -127 -298c0 -61 18 -87 55 -87c32 0 67 38 86 80l50 224c-4 45 -32 81 -64 81zM147 -133
c0 -27 -24 -49 -50 -49c-23 0 -40 17 -40 40c0 26 23 49 50 49c23 0 40 -17 40 -40z" />
    <glyph glyph-name="uni1EA3" unicode="&#x1ea3;" horiz-adv-x="384" 
d="M210 495c38 0 74 -25 88 -81l15 69h68l-107 -483h-68l14 62c-30 -50 -65 -74 -101 -74c-62 0 -96 52 -96 143c0 119 61 364 187 364zM221 434c-84 0 -127 -212 -127 -298c0 -61 18 -87 55 -87c32 0 67 38 86 80l50 224c-4 45 -32 81 -64 81zM238 597l-28 10
c11 24 29 43 59 43c32 0 50 -18 50 -48s-17 -57 -35 -75h-37c23 20 37 44 38 69c1 14 -5 24 -18 24s-22 -9 -29 -23z" />
    <glyph glyph-name="uni1EA5" unicode="&#x1ea5;" horiz-adv-x="384" 
d="M210 495c38 0 74 -25 88 -81l15 69h68l-107 -483h-68l14 62c-30 -50 -65 -74 -101 -74c-62 0 -96 52 -96 143c0 119 61 364 187 364zM221 434c-84 0 -127 -212 -127 -298c0 -61 18 -87 55 -87c32 0 67 38 86 80l50 224c-4 45 -32 81 -64 81zM357 556h-39l-38 105
l-79 -105h-44l98 144h66zM525 771l-132 -144h-48l111 144h69z" />
    <glyph glyph-name="uni1EAD" unicode="&#x1ead;" horiz-adv-x="384" 
d="M210 495c38 0 74 -25 88 -81l15 69h68l-107 -483h-68l14 62c-30 -50 -65 -74 -101 -74c-62 0 -96 52 -96 143c0 119 61 364 187 364zM221 434c-84 0 -127 -212 -127 -298c0 -61 18 -87 55 -87c32 0 67 38 86 80l50 224c-4 45 -32 81 -64 81zM356 556h-39l-38 105
l-79 -105h-44l98 144h66zM147 -133c0 -27 -24 -49 -50 -49c-23 0 -40 17 -40 40c0 26 23 49 50 49c23 0 40 -17 40 -40z" />
    <glyph glyph-name="uni1EA7" unicode="&#x1ea7;" horiz-adv-x="384" 
d="M210 495c38 0 74 -25 88 -81l15 69h68l-107 -483h-68l14 62c-30 -50 -65 -74 -101 -74c-62 0 -96 52 -96 143c0 119 61 364 187 364zM221 434c-84 0 -127 -212 -127 -298c0 -61 18 -87 55 -87c32 0 67 38 86 80l50 224c-4 45 -32 81 -64 81zM356 556h-39l-38 105
l-79 -105h-44l98 144h66zM197 627h-46l-68 144h67z" />
    <glyph glyph-name="uni1EA9" unicode="&#x1ea9;" horiz-adv-x="384" 
d="M210 495c38 0 74 -25 88 -81l15 69h68l-107 -483h-68l14 62c-30 -50 -65 -74 -101 -74c-62 0 -96 52 -96 143c0 119 61 364 187 364zM221 434c-84 0 -127 -212 -127 -298c0 -61 18 -87 55 -87c32 0 67 38 86 80l50 224c-4 45 -32 81 -64 81zM357 556h-39l-38 105
l-79 -105h-44l98 144h66zM334 737l-28 10c11 24 29 43 59 43c32 0 50 -18 50 -48s-17 -57 -35 -75h-37c23 20 37 44 38 69c1 14 -5 24 -18 24s-22 -9 -29 -23z" />
    <glyph glyph-name="uni1EAF" unicode="&#x1eaf;" horiz-adv-x="384" 
d="M210 495c38 0 74 -25 88 -81l15 69h68l-107 -483h-68l14 62c-30 -50 -65 -74 -101 -74c-62 0 -96 52 -96 143c0 119 61 364 187 364zM221 434c-84 0 -127 -212 -127 -298c0 -61 18 -87 55 -87c32 0 67 38 86 80l50 224c-4 45 -32 81 -64 81zM398 761l-132 -144h-48
l111 144h69zM378 584c-35 -37 -83 -61 -132 -61s-87 24 -106 61l39 28c12 -27 43 -44 74 -44c32 0 69 17 92 44z" />
    <glyph glyph-name="uni1EAB" unicode="&#x1eab;" horiz-adv-x="384" 
d="M210 495c38 0 74 -25 88 -81l15 69h68l-107 -483h-68l14 62c-30 -50 -65 -74 -101 -74c-62 0 -96 52 -96 143c0 119 61 364 187 364zM221 434c-84 0 -127 -212 -127 -298c0 -61 18 -87 55 -87c32 0 67 38 86 80l50 224c-4 45 -32 81 -64 81zM349 523h-39l-38 105
l-79 -105h-44l98 144h66zM333 682c-62 0 -34 95 -71 95c-19 0 -35 -27 -48 -89h-40c17 74 44 134 95 134c62 0 34 -95 71 -95c18 0 34 27 48 89h40c-16 -74 -45 -134 -95 -134z" />
    <glyph glyph-name="uni1EB1" unicode="&#x1eb1;" horiz-adv-x="384" 
d="M210 495c38 0 74 -25 88 -81l15 69h68l-107 -483h-68l14 62c-30 -50 -65 -74 -101 -74c-62 0 -96 52 -96 143c0 119 61 364 187 364zM221 434c-84 0 -127 -212 -127 -298c0 -61 18 -87 55 -87c32 0 67 38 86 80l50 224c-4 45 -32 81 -64 81zM311 621h-46l-68 144h67z
M378 584c-35 -37 -83 -61 -132 -61s-87 24 -106 61l39 28c12 -27 43 -44 74 -44c32 0 69 17 92 44z" />
    <glyph glyph-name="uni1EB3" unicode="&#x1eb3;" horiz-adv-x="384" 
d="M210 495c38 0 74 -25 88 -81l15 69h68l-107 -483h-68l14 62c-30 -50 -65 -74 -101 -74c-62 0 -96 52 -96 143c0 119 61 364 187 364zM221 434c-84 0 -127 -212 -127 -298c0 -61 18 -87 55 -87c32 0 67 38 86 80l50 224c-4 45 -32 81 -64 81zM258 687l-28 10
c11 24 29 43 59 43c32 0 50 -18 50 -48s-17 -57 -35 -75h-37c23 20 37 44 38 69c1 14 -5 24 -18 24s-22 -9 -29 -23zM378 584c-35 -37 -83 -61 -132 -61s-87 24 -106 61l39 28c12 -27 43 -44 74 -44c32 0 69 17 92 44z" />
    <glyph glyph-name="uni1EB5" unicode="&#x1eb5;" horiz-adv-x="384" 
d="M210 495c38 0 74 -25 88 -81l15 69h68l-107 -483h-68l14 62c-30 -50 -65 -74 -101 -74c-62 0 -96 52 -96 143c0 119 61 364 187 364zM221 434c-84 0 -127 -212 -127 -298c0 -61 18 -87 55 -87c32 0 67 38 86 80l50 224c-4 45 -32 81 -64 81zM378 584
c-35 -37 -83 -61 -132 -61s-87 24 -106 61l39 28c12 -27 43 -44 74 -44c32 0 69 17 92 44zM321 631c-62 0 -34 95 -71 95c-19 0 -35 -27 -48 -89h-40c17 74 44 134 95 134c62 0 34 -95 71 -95c18 0 34 27 48 89h40c-16 -74 -45 -134 -95 -134z" />
    <glyph glyph-name="uni1EB7" unicode="&#x1eb7;" horiz-adv-x="384" 
d="M210 495c38 0 74 -25 88 -81l15 69h68l-107 -483h-68l14 62c-30 -50 -65 -74 -101 -74c-62 0 -96 52 -96 143c0 119 61 364 187 364zM221 434c-84 0 -127 -212 -127 -298c0 -61 18 -87 55 -87c32 0 67 38 86 80l50 224c-4 45 -32 81 -64 81zM147 -133
c0 -27 -24 -49 -50 -49c-23 0 -40 17 -40 40c0 26 23 49 50 49c23 0 40 -17 40 -40zM385 613c-35 -37 -83 -61 -132 -61s-87 24 -106 61l39 28c12 -27 43 -44 74 -44c32 0 69 17 92 44z" />
    <glyph glyph-name="ae" unicode="&#xe6;" horiz-adv-x="597" 
d="M221 434c-84 0 -127 -212 -127 -298c0 -61 18 -87 55 -87c32 0 67 38 86 80l50 224c-4 45 -32 81 -64 81zM296 97l-22 -97h-68l14 62c-30 -50 -65 -74 -101 -74c-62 0 -96 52 -96 143c0 119 61 364 187 364c38 0 74 -25 88 -81l15 69h68l-15 -67c24 42 62 79 108 79
c62 -1 102 -39 102 -145c0 -44 -8 -92 -18 -131h-234c-6 -24 -7 -47 -7 -68c0 -60 26 -105 84 -105c30 0 61 23 85 54l30 -47c-35 -43 -72 -65 -114 -65c-62 0 -97 33 -106 109zM334 270h168c6 26 10 50 10 75c0 50 -17 93 -60 93c-67 0 -106 -100 -118 -168z" />
    <glyph glyph-name="aeacute" unicode="&#x1fd;" horiz-adv-x="597" 
d="M505 700l-132 -144h-48l111 144h69zM221 434c-84 0 -127 -212 -127 -298c0 -61 18 -87 55 -87c32 0 67 38 86 80l50 224c-4 45 -32 81 -64 81zM296 97l-22 -97h-68l14 62c-30 -50 -65 -74 -101 -74c-62 0 -96 52 -96 143c0 119 61 364 187 364c38 0 74 -25 88 -81l15 69
h68l-15 -67c24 42 62 79 108 79c62 -1 102 -39 102 -145c0 -44 -8 -92 -18 -131h-234c-6 -24 -7 -47 -7 -68c0 -60 26 -105 84 -105c30 0 61 23 85 54l30 -47c-35 -43 -72 -65 -114 -65c-62 0 -97 33 -106 109zM334 270h168c6 26 10 50 10 75c0 50 -17 93 -60 93
c-67 0 -106 -100 -118 -168z" />
    <glyph glyph-name="aacute.alt1" horiz-adv-x="376" 
d="M400 700l-132 -144h-48l111 144h69zM274 0h-68l10 47c-23 -37 -59 -59 -98 -59c-56 0 -104 40 -104 119c0 102 60 201 151 201c34 0 79 -22 94 -67l20 89c4 18 6 28 6 42c0 43 -28 65 -70 65c-33 0 -67 -13 -99 -43l-19 51c37 32 86 50 132 50c73 0 127 -35 127 -105
c0 -16 -2 -28 -8 -52zM147 38c28 0 57 18 79 59l23 96c-8 41 -36 65 -71 65c-62 0 -92 -84 -92 -146c0 -51 25 -74 61 -74z" />
    <glyph glyph-name="abreve.alt1" horiz-adv-x="376" 
d="M274 0h-68l10 47c-23 -37 -59 -59 -98 -59c-56 0 -104 40 -104 119c0 102 60 201 151 201c34 0 79 -22 94 -67l20 89c4 18 6 28 6 42c0 43 -28 65 -70 65c-33 0 -67 -13 -99 -43l-19 51c37 32 86 50 132 50c73 0 127 -35 127 -105c0 -16 -2 -28 -8 -52zM147 38
c28 0 57 18 79 59l23 96c-8 41 -36 65 -71 65c-62 0 -92 -84 -92 -146c0 -51 25 -74 61 -74zM387 613c-35 -37 -83 -61 -132 -61s-87 24 -106 61l39 28c12 -27 43 -44 74 -44c32 0 69 17 92 44z" />
    <glyph glyph-name="acircumflex.alt1" horiz-adv-x="376" 
d="M358 556h-39l-38 105l-79 -105h-44l98 144h66zM274 0h-68l10 47c-23 -37 -59 -59 -98 -59c-56 0 -104 40 -104 119c0 102 60 201 151 201c34 0 79 -22 94 -67l20 89c4 18 6 28 6 42c0 43 -28 65 -70 65c-33 0 -67 -13 -99 -43l-19 51c37 32 86 50 132 50
c73 0 127 -35 127 -105c0 -16 -2 -28 -8 -52zM147 38c28 0 57 18 79 59l23 96c-8 41 -36 65 -71 65c-62 0 -92 -84 -92 -146c0 -51 25 -74 61 -74z" />
    <glyph glyph-name="adieresis.alt1" horiz-adv-x="376" 
d="M382 608c0 -26 -23 -48 -49 -48c-21 0 -38 16 -38 39c0 25 23 47 49 47c21 0 38 -16 38 -38zM242 608c0 -26 -23 -48 -49 -48c-22 0 -39 16 -39 39c0 25 23 47 49 47c22 0 39 -16 39 -38zM274 0h-68l10 47c-23 -37 -59 -59 -98 -59c-56 0 -104 40 -104 119
c0 102 60 201 151 201c34 0 79 -22 94 -67l20 89c4 18 6 28 6 42c0 43 -28 65 -70 65c-33 0 -67 -13 -99 -43l-19 51c37 32 86 50 132 50c73 0 127 -35 127 -105c0 -16 -2 -28 -8 -52zM147 38c28 0 57 18 79 59l23 96c-8 41 -36 65 -71 65c-62 0 -92 -84 -92 -146
c0 -51 25 -74 61 -74z" />
    <glyph glyph-name="agrave.alt1" horiz-adv-x="376" 
d="M274 0h-68l10 47c-23 -37 -59 -59 -98 -59c-56 0 -104 40 -104 119c0 102 60 201 151 201c34 0 79 -22 94 -67l20 89c4 18 6 28 6 42c0 43 -28 65 -70 65c-33 0 -67 -13 -99 -43l-19 51c37 32 86 50 132 50c73 0 127 -35 127 -105c0 -16 -2 -28 -8 -52zM147 38
c28 0 57 18 79 59l23 96c-8 41 -36 65 -71 65c-62 0 -92 -84 -92 -146c0 -51 25 -74 61 -74zM295 556h-46l-68 144h67z" />
    <glyph glyph-name="amacron.alt1" horiz-adv-x="376" 
d="M386 573h-247l9 45h248zM274 0h-68l10 47c-23 -37 -59 -59 -98 -59c-56 0 -104 40 -104 119c0 102 60 201 151 201c34 0 79 -22 94 -67l20 89c4 18 6 28 6 42c0 43 -28 65 -70 65c-33 0 -67 -13 -99 -43l-19 51c37 32 86 50 132 50c73 0 127 -35 127 -105
c0 -16 -2 -28 -8 -52zM147 38c28 0 57 18 79 59l23 96c-8 41 -36 65 -71 65c-62 0 -92 -84 -92 -146c0 -51 25 -74 61 -74z" />
    <glyph glyph-name="aogonek.alt1" horiz-adv-x="376" 
d="M244 -116l31 -22c-16 -29 -39 -48 -72 -48c-37 0 -62 20 -62 58c0 35 16 82 74 128h-9l10 47c-23 -37 -59 -59 -98 -59c-56 0 -104 40 -104 119c0 102 60 201 151 201c34 0 79 -22 94 -67l20 89c4 18 6 28 6 42c0 43 -28 65 -70 65c-33 0 -67 -13 -99 -43l-19 51
c37 32 86 50 132 50c73 0 127 -35 127 -105c0 -16 -2 -28 -8 -52l-74 -338h1c-48 -29 -93 -69 -93 -123c0 -16 10 -26 26 -26c17 0 30 14 36 33zM147 38c28 0 57 18 79 59l23 96c-8 41 -36 65 -71 65c-62 0 -92 -84 -92 -146c0 -51 25 -74 61 -74z" />
    <glyph glyph-name="aring.alt1" horiz-adv-x="376" 
d="M267 545c-44 0 -74 32 -74 76c0 49 43 92 92 92c43 0 74 -32 74 -76c0 -49 -43 -92 -92 -92zM269 581c29 0 54 24 54 53c0 24 -17 43 -40 43c-29 0 -54 -24 -54 -53c0 -24 16 -43 40 -43zM274 0h-68l10 47c-23 -37 -59 -59 -98 -59c-56 0 -104 40 -104 119
c0 102 60 201 151 201c34 0 79 -22 94 -67l20 89c4 18 6 28 6 42c0 43 -28 65 -70 65c-33 0 -67 -13 -99 -43l-19 51c37 32 86 50 132 50c73 0 127 -35 127 -105c0 -16 -2 -28 -8 -52zM147 38c28 0 57 18 79 59l23 96c-8 41 -36 65 -71 65c-62 0 -92 -84 -92 -146
c0 -51 25 -74 61 -74z" />
    <glyph glyph-name="atilde.alt1" horiz-adv-x="376" 
d="M274 0h-68l10 47c-23 -37 -59 -59 -98 -59c-56 0 -104 40 -104 119c0 102 60 201 151 201c34 0 79 -22 94 -67l20 89c4 18 6 28 6 42c0 43 -28 65 -70 65c-33 0 -67 -13 -99 -43l-19 51c37 32 86 50 132 50c73 0 127 -35 127 -105c0 -16 -2 -28 -8 -52zM147 38
c28 0 57 18 79 59l23 96c-8 41 -36 65 -71 65c-62 0 -92 -84 -92 -146c0 -51 25 -74 61 -74zM306 554c-62 0 -34 95 -71 95c-19 0 -35 -27 -48 -89h-40c17 74 44 134 95 134c62 0 34 -95 71 -95c18 0 34 27 48 89h40c-16 -74 -45 -134 -95 -134z" />
    <glyph glyph-name="uni1EA1.alt1" horiz-adv-x="376" 
d="M274 0h-68l10 47c-23 -37 -59 -59 -98 -59c-56 0 -104 40 -104 119c0 102 60 201 151 201c34 0 79 -22 94 -67l20 89c4 18 6 28 6 42c0 43 -28 65 -70 65c-33 0 -67 -13 -99 -43l-19 51c37 32 86 50 132 50c73 0 127 -35 127 -105c0 -16 -2 -28 -8 -52zM147 38
c28 0 57 18 79 59l23 96c-8 41 -36 65 -71 65c-62 0 -92 -84 -92 -146c0 -51 25 -74 61 -74zM149 -133c0 -27 -24 -49 -50 -49c-23 0 -40 17 -40 40c0 26 23 49 50 49c23 0 40 -17 40 -40z" />
    <glyph glyph-name="uni1EA3.alt1" horiz-adv-x="376" 
d="M274 0h-68l10 47c-23 -37 -59 -59 -98 -59c-56 0 -104 40 -104 119c0 102 60 201 151 201c34 0 79 -22 94 -67l20 89c4 18 6 28 6 42c0 43 -28 65 -70 65c-33 0 -67 -13 -99 -43l-19 51c37 32 86 50 132 50c73 0 127 -35 127 -105c0 -16 -2 -28 -8 -52zM147 38
c28 0 57 18 79 59l23 96c-8 41 -36 65 -71 65c-62 0 -92 -84 -92 -146c0 -51 25 -74 61 -74zM239 597l-28 10c11 24 29 43 59 43c32 0 50 -18 50 -48s-17 -57 -35 -75h-37c23 20 37 44 38 69c1 14 -5 24 -18 24s-22 -9 -29 -23z" />
    <glyph glyph-name="uni1EA5.alt1" horiz-adv-x="376" 
d="M359 556h-39l-38 105l-79 -105h-44l98 144h66zM528 771l-132 -144h-48l111 144h69zM274 0h-68l10 47c-23 -37 -59 -59 -98 -59c-56 0 -104 40 -104 119c0 102 60 201 151 201c34 0 79 -22 94 -67l20 89c4 18 6 28 6 42c0 43 -28 65 -70 65c-33 0 -67 -13 -99 -43l-19 51
c37 32 86 50 132 50c73 0 127 -35 127 -105c0 -16 -2 -28 -8 -52zM147 38c28 0 57 18 79 59l23 96c-8 41 -36 65 -71 65c-62 0 -92 -84 -92 -146c0 -51 25 -74 61 -74z" />
    <glyph glyph-name="uni1EAD.alt1" horiz-adv-x="376" 
d="M358 556h-39l-38 105l-79 -105h-44l98 144h66zM274 0h-68l10 47c-23 -37 -59 -59 -98 -59c-56 0 -104 40 -104 119c0 102 60 201 151 201c34 0 79 -22 94 -67l20 89c4 18 6 28 6 42c0 43 -28 65 -70 65c-33 0 -67 -13 -99 -43l-19 51c37 32 86 50 132 50
c73 0 127 -35 127 -105c0 -16 -2 -28 -8 -52zM147 38c28 0 57 18 79 59l23 96c-8 41 -36 65 -71 65c-62 0 -92 -84 -92 -146c0 -51 25 -74 61 -74zM149 -133c0 -27 -24 -49 -50 -49c-23 0 -40 17 -40 40c0 26 23 49 50 49c23 0 40 -17 40 -40z" />
    <glyph glyph-name="uni1EA7.alt1" horiz-adv-x="376" 
d="M359 556h-39l-38 105l-79 -105h-44l98 144h66zM274 0h-68l10 47c-23 -37 -59 -59 -98 -59c-56 0 -104 40 -104 119c0 102 60 201 151 201c34 0 79 -22 94 -67l20 89c4 18 6 28 6 42c0 43 -28 65 -70 65c-33 0 -67 -13 -99 -43l-19 51c37 32 86 50 132 50
c73 0 127 -35 127 -105c0 -16 -2 -28 -8 -52zM147 38c28 0 57 18 79 59l23 96c-8 41 -36 65 -71 65c-62 0 -92 -84 -92 -146c0 -51 25 -74 61 -74zM199 627h-46l-68 144h67z" />
    <glyph glyph-name="uni1EA9.alt1" horiz-adv-x="376" 
d="M359 556h-39l-38 105l-79 -105h-44l98 144h66zM274 0h-68l10 47c-23 -37 -59 -59 -98 -59c-56 0 -104 40 -104 119c0 102 60 201 151 201c34 0 79 -22 94 -67l20 89c4 18 6 28 6 42c0 43 -28 65 -70 65c-33 0 -67 -13 -99 -43l-19 51c37 32 86 50 132 50
c73 0 127 -35 127 -105c0 -16 -2 -28 -8 -52zM147 38c28 0 57 18 79 59l23 96c-8 41 -36 65 -71 65c-62 0 -92 -84 -92 -146c0 -51 25 -74 61 -74zM336 737l-28 10c11 24 29 43 59 43c32 0 50 -18 50 -48s-17 -57 -35 -75h-37c23 20 37 44 38 69c1 14 -5 24 -18 24
s-22 -9 -29 -23z" />
    <glyph glyph-name="uni1EAF.alt1" horiz-adv-x="376" 
d="M404 761l-132 -144h-48l111 144h69zM274 0h-68l10 47c-23 -37 -59 -59 -98 -59c-56 0 -104 40 -104 119c0 102 60 201 151 201c34 0 79 -22 94 -67l20 89c4 18 6 28 6 42c0 43 -28 65 -70 65c-33 0 -67 -13 -99 -43l-19 51c37 32 86 50 132 50c73 0 127 -35 127 -105
c0 -16 -2 -28 -8 -52zM147 38c28 0 57 18 79 59l23 96c-8 41 -36 65 -71 65c-62 0 -92 -84 -92 -146c0 -51 25 -74 61 -74zM380 584c-35 -37 -83 -61 -132 -61s-87 24 -106 61l39 28c12 -27 43 -44 74 -44c32 0 69 17 92 44z" />
    <glyph glyph-name="uni1EAB.alt1" horiz-adv-x="376" 
d="M351 523h-39l-38 105l-79 -105h-44l98 144h66zM274 0h-68l10 47c-23 -37 -59 -59 -98 -59c-56 0 -104 40 -104 119c0 102 60 201 151 201c34 0 79 -22 94 -67l20 89c4 18 6 28 6 42c0 43 -28 65 -70 65c-33 0 -67 -13 -99 -43l-19 51c37 32 86 50 132 50
c73 0 127 -35 127 -105c0 -16 -2 -28 -8 -52zM147 38c28 0 57 18 79 59l23 96c-8 41 -36 65 -71 65c-62 0 -92 -84 -92 -146c0 -51 25 -74 61 -74zM334 682c-62 0 -34 95 -71 95c-19 0 -35 -27 -48 -89h-40c17 74 44 134 95 134c62 0 34 -95 71 -95c18 0 34 27 48 89h40
c-16 -74 -45 -134 -95 -134z" />
    <glyph glyph-name="uni1EB1.alt1" horiz-adv-x="376" 
d="M274 0h-68l10 47c-23 -37 -59 -59 -98 -59c-56 0 -104 40 -104 119c0 102 60 201 151 201c34 0 79 -22 94 -67l20 89c4 18 6 28 6 42c0 43 -28 65 -70 65c-33 0 -67 -13 -99 -43l-19 51c37 32 86 50 132 50c73 0 127 -35 127 -105c0 -16 -2 -28 -8 -52zM147 38
c28 0 57 18 79 59l23 96c-8 41 -36 65 -71 65c-62 0 -92 -84 -92 -146c0 -51 25 -74 61 -74zM319 621h-46l-68 144h67zM380 584c-35 -37 -83 -61 -132 -61s-87 24 -106 61l39 28c12 -27 43 -44 74 -44c32 0 69 17 92 44z" />
    <glyph glyph-name="uni1EB3.alt1" horiz-adv-x="376" 
d="M274 0h-68l10 47c-23 -37 -59 -59 -98 -59c-56 0 -104 40 -104 119c0 102 60 201 151 201c34 0 79 -22 94 -67l20 89c4 18 6 28 6 42c0 43 -28 65 -70 65c-33 0 -67 -13 -99 -43l-19 51c37 32 86 50 132 50c73 0 127 -35 127 -105c0 -16 -2 -28 -8 -52zM147 38
c28 0 57 18 79 59l23 96c-8 41 -36 65 -71 65c-62 0 -92 -84 -92 -146c0 -51 25 -74 61 -74zM259 687l-28 10c11 24 29 43 59 43c32 0 50 -18 50 -48s-17 -57 -35 -75h-37c23 20 37 44 38 69c1 14 -5 24 -18 24s-22 -9 -29 -23zM380 584c-35 -37 -83 -61 -132 -61
s-87 24 -106 61l39 28c12 -27 43 -44 74 -44c32 0 69 17 92 44z" />
    <glyph glyph-name="uni1EB5.alt1" horiz-adv-x="376" 
d="M380 584c-35 -37 -83 -61 -132 -61s-87 24 -106 61l39 28c12 -27 43 -44 74 -44c32 0 69 17 92 44zM274 0h-68l10 47c-23 -37 -59 -59 -98 -59c-56 0 -104 40 -104 119c0 102 60 201 151 201c34 0 79 -22 94 -67l20 89c4 18 6 28 6 42c0 43 -28 65 -70 65
c-33 0 -67 -13 -99 -43l-19 51c37 32 86 50 132 50c73 0 127 -35 127 -105c0 -16 -2 -28 -8 -52zM147 38c28 0 57 18 79 59l23 96c-8 41 -36 65 -71 65c-62 0 -92 -84 -92 -146c0 -51 25 -74 61 -74zM323 631c-62 0 -34 95 -71 95c-19 0 -35 -27 -48 -89h-40
c17 74 44 134 95 134c62 0 34 -95 71 -95c18 0 34 27 48 89h40c-16 -74 -45 -134 -95 -134z" />
    <glyph glyph-name="uni1EB7.alt1" horiz-adv-x="376" 
d="M274 0h-68l10 47c-23 -37 -59 -59 -98 -59c-56 0 -104 40 -104 119c0 102 60 201 151 201c34 0 79 -22 94 -67l20 89c4 18 6 28 6 42c0 43 -28 65 -70 65c-33 0 -67 -13 -99 -43l-19 51c37 32 86 50 132 50c73 0 127 -35 127 -105c0 -16 -2 -28 -8 -52zM147 38
c28 0 57 18 79 59l23 96c-8 41 -36 65 -71 65c-62 0 -92 -84 -92 -146c0 -51 25 -74 61 -74zM149 -133c0 -27 -24 -49 -50 -49c-23 0 -40 17 -40 40c0 26 23 49 50 49c23 0 40 -17 40 -40zM386 613c-35 -37 -83 -61 -132 -61s-87 24 -106 61l39 28c12 -27 43 -44 74 -44
c32 0 69 17 92 44z" />
    <glyph glyph-name="ae.alt1" horiz-adv-x="593" 
d="M554 219h-231c-5 -24 -8 -47 -8 -68c0 -63 25 -106 79 -106c28 0 59 19 86 54l31 -43c-38 -43 -79 -68 -126 -68c-70 0 -104 42 -115 95c-26 -56 -79 -95 -138 -95c-71 0 -118 44 -118 121c0 108 62 199 151 199c34 0 83 -19 98 -63l19 85c4 16 5 30 5 41
c0 43 -29 66 -72 66c-33 0 -64 -12 -99 -43l-19 51c41 35 88 50 132 50c68 0 100 -32 106 -82c28 47 65 82 122 82c67 0 116 -43 116 -149c0 -41 -10 -90 -19 -127zM335 270h164c6 24 9 50 9 72c0 53 -19 96 -61 96c-69 0 -98 -100 -112 -168zM242 151l10 42
c-8 47 -41 65 -71 65c-58 0 -95 -77 -95 -142c0 -46 23 -71 61 -71c46 0 82 47 95 106z" />
    <glyph glyph-name="aeacute.alt1" horiz-adv-x="593" 
d="M554 219h-231c-5 -24 -8 -47 -8 -68c0 -63 25 -106 79 -106c28 0 59 19 86 54l31 -43c-38 -43 -79 -68 -126 -68c-70 0 -104 42 -115 95c-26 -56 -79 -95 -138 -95c-71 0 -118 44 -118 121c0 108 62 199 151 199c34 0 83 -19 98 -63l19 85c4 16 5 30 5 41
c0 43 -29 66 -72 66c-33 0 -64 -12 -99 -43l-19 51c41 35 88 50 132 50c68 0 100 -32 106 -82c28 47 65 82 122 82c67 0 116 -43 116 -149c0 -41 -10 -90 -19 -127zM335 270h164c6 24 9 50 9 72c0 53 -19 96 -61 96c-69 0 -98 -100 -112 -168zM242 151l10 42
c-8 47 -41 65 -71 65c-58 0 -95 -77 -95 -142c0 -46 23 -71 61 -71c46 0 82 47 95 106zM503 700l-132 -144h-48l111 144h69z" />
    <glyph glyph-name="uni1E03" unicode="&#x1e03;" horiz-adv-x="384" 
d="M173 -12c-38 0 -73 25 -88 81l-15 -69h-67l146 667h68l-54 -246c30 50 65 74 101 74c62 0 96 -52 96 -143c0 -119 -60 -364 -187 -364zM162 49c84 0 127 212 127 298c0 61 -18 87 -55 87c-32 0 -67 -38 -86 -80l-50 -224c4 -45 32 -81 64 -81zM360 773
c0 -27 -24 -49 -50 -49c-23 0 -40 17 -40 40c0 26 23 49 50 49c23 0 40 -17 40 -40z" />
    <glyph glyph-name="cacute" unicode="&#x107;" horiz-adv-x="317" 
d="M408 700l-132 -144h-48l111 144h69zM158 -12c-81 0 -133 53 -133 166c0 132 72 341 211 341c44 0 80 -20 100 -49l-38 -50c-14 27 -37 38 -60 38c-94 0 -141 -183 -141 -279c0 -75 29 -106 73 -106c25 0 45 12 62 31l19 -53c-30 -28 -57 -39 -93 -39z" />
    <glyph glyph-name="ccedilla" unicode="&#xe7;" horiz-adv-x="317" 
d="M110 -191c-34 0 -61 12 -82 37l24 33c15 -21 35 -32 59 -32c30 0 50 24 50 50c0 16 -9 27 -25 27c-11 0 -20 -5 -28 -14l-27 17l39 66c-59 14 -95 67 -95 161c0 132 72 341 211 341c44 0 80 -20 100 -49l-38 -50c-14 27 -37 38 -60 38c-94 0 -141 -183 -141 -279
c0 -75 29 -106 73 -106c25 0 45 12 62 31l19 -53c-30 -27 -57 -38 -92 -39l-27 -44c7 7 16 10 24 10c29 0 48 -23 48 -55c0 -50 -42 -90 -94 -90z" />
    <glyph glyph-name="ccircumflex" unicode="&#x109;" horiz-adv-x="317" 
d="M367 556h-39l-38 105l-79 -105h-44l98 144h66zM158 -12c-81 0 -133 53 -133 166c0 132 72 341 211 341c44 0 80 -20 100 -49l-38 -50c-14 27 -37 38 -60 38c-94 0 -141 -183 -141 -279c0 -75 29 -106 73 -106c25 0 45 12 62 31l19 -53c-30 -28 -57 -39 -93 -39z" />
    <glyph glyph-name="cdotaccent" unicode="&#x10b;" horiz-adv-x="317" 
d="M158 -12c-81 0 -133 53 -133 166c0 132 72 341 211 341c44 0 80 -20 100 -49l-38 -50c-14 27 -37 38 -60 38c-94 0 -141 -183 -141 -279c0 -75 29 -106 73 -106c25 0 45 12 62 31l19 -53c-30 -28 -57 -39 -93 -39zM322 606c0 -27 -24 -49 -50 -49c-23 0 -40 17 -40 40
c0 26 23 49 50 49c23 0 40 -17 40 -40z" />
    <glyph glyph-name="ccaron" unicode="&#x10d;" horiz-adv-x="317" 
d="M301 556h-66l-37 144h40l36 -105l81 105h43zM158 -12c-81 0 -133 53 -133 166c0 132 72 341 211 341c44 0 80 -20 100 -49l-38 -50c-14 27 -37 38 -60 38c-94 0 -141 -183 -141 -279c0 -75 29 -106 73 -106c25 0 45 12 62 31l19 -53c-30 -28 -57 -39 -93 -39z" />
    <glyph glyph-name="dcaron" unicode="&#x10f;" horiz-adv-x="466" 
d="M552 631c0 -56 -47 -115 -100 -143l-25 27c34 18 66 49 75 79c-2 -1 -5 -1 -7 -1c-18 0 -34 16 -34 37c0 27 23 49 48 49c24 0 43 -17 43 -48zM210 495c38 0 74 -25 88 -81l56 253h68l-148 -667h-68l14 62c-30 -50 -65 -74 -101 -74c-62 0 -96 52 -96 143
c0 119 61 364 187 364zM221 434c-84 0 -127 -212 -127 -298c0 -61 18 -87 55 -87c32 0 67 38 86 80l50 224c-4 45 -32 81 -64 81z" />
    <glyph glyph-name="dcroat" unicode="&#x111;" horiz-adv-x="390" 
d="M210 495c38 0 74 -25 88 -81l27 122h-124l8 45h126l19 86h68l-19 -86h40l-10 -45h-40l-119 -536h-68l14 62c-30 -50 -65 -74 -101 -74c-62 0 -96 52 -96 143c0 119 61 364 187 364zM221 434c-84 0 -127 -212 -127 -298c0 -61 18 -87 55 -87c32 0 67 38 86 80l50 224
c-4 45 -32 81 -64 81z" />
    <glyph glyph-name="uni1E0B" unicode="&#x1e0b;" horiz-adv-x="384" 
d="M210 495c38 0 74 -25 88 -81l56 253h68l-148 -667h-68l14 62c-30 -50 -65 -74 -101 -74c-62 0 -96 52 -96 143c0 119 61 364 187 364zM221 434c-84 0 -127 -212 -127 -298c0 -61 18 -87 55 -87c32 0 67 38 86 80l50 224c-4 45 -32 81 -64 81zM348 773
c0 -27 -24 -49 -50 -49c-23 0 -40 17 -40 40c0 26 23 49 50 49c23 0 40 -17 40 -40z" />
    <glyph glyph-name="eacute" unicode="&#xe9;" horiz-adv-x="373" 
d="M406 700l-132 -144h-48l111 144h69zM164 -12c-86 0 -140 55 -140 166c0 96 56 341 205 341c76 0 123 -46 123 -149c0 -44 -9 -91 -18 -127h-236c-6 -24 -8 -47 -8 -68c0 -60 25 -106 83 -106c30 0 63 23 87 54l31 -43c-37 -45 -82 -68 -127 -68zM108 270h170
c6 26 10 50 10 75c0 50 -20 93 -64 93c-67 0 -104 -100 -116 -168z" />
    <glyph glyph-name="ebreve" unicode="&#x115;" horiz-adv-x="373" 
d="M164 -12c-86 0 -140 55 -140 166c0 96 56 341 205 341c76 0 123 -46 123 -149c0 -44 -9 -91 -18 -127h-236c-6 -24 -8 -47 -8 -68c0 -60 25 -106 83 -106c30 0 63 23 87 54l31 -43c-37 -45 -82 -68 -127 -68zM108 270h170c6 26 10 50 10 75c0 50 -20 93 -64 93
c-67 0 -104 -100 -116 -168zM393 613c-35 -37 -83 -61 -132 -61s-87 24 -106 61l39 28c12 -27 43 -44 74 -44c32 0 69 17 92 44z" />
    <glyph glyph-name="ecircumflex" unicode="&#xea;" horiz-adv-x="373" 
d="M364 556h-39l-38 105l-79 -105h-44l98 144h66zM164 -12c-86 0 -140 55 -140 166c0 96 56 341 205 341c76 0 123 -46 123 -149c0 -44 -9 -91 -18 -127h-236c-6 -24 -8 -47 -8 -68c0 -60 25 -106 83 -106c30 0 63 23 87 54l31 -43c-37 -45 -82 -68 -127 -68zM108 270h170
c6 26 10 50 10 75c0 50 -20 93 -64 93c-67 0 -104 -100 -116 -168z" />
    <glyph glyph-name="edieresis" unicode="&#xeb;" horiz-adv-x="373" 
d="M388 608c0 -26 -23 -48 -49 -48c-21 0 -38 16 -38 39c0 25 23 47 49 47c21 0 38 -16 38 -38zM248 608c0 -26 -23 -48 -49 -48c-22 0 -39 16 -39 39c0 25 23 47 49 47c22 0 39 -16 39 -38zM164 -12c-86 0 -140 55 -140 166c0 96 56 341 205 341c76 0 123 -46 123 -149
c0 -44 -9 -91 -18 -127h-236c-6 -24 -8 -47 -8 -68c0 -60 25 -106 83 -106c30 0 63 23 87 54l31 -43c-37 -45 -82 -68 -127 -68zM108 270h170c6 26 10 50 10 75c0 50 -20 93 -64 93c-67 0 -104 -100 -116 -168z" />
    <glyph glyph-name="edotaccent" unicode="&#x117;" horiz-adv-x="373" 
d="M164 -12c-86 0 -140 55 -140 166c0 96 56 341 205 341c76 0 123 -46 123 -149c0 -44 -9 -91 -18 -127h-236c-6 -24 -8 -47 -8 -68c0 -60 25 -106 83 -106c30 0 63 23 87 54l31 -43c-37 -45 -82 -68 -127 -68zM108 270h170c6 26 10 50 10 75c0 50 -20 93 -64 93
c-67 0 -104 -100 -116 -168zM320 606c0 -27 -24 -49 -50 -49c-23 0 -40 17 -40 40c0 26 23 49 50 49c23 0 40 -17 40 -40z" />
    <glyph glyph-name="egrave" unicode="&#xe8;" horiz-adv-x="373" 
d="M164 -12c-86 0 -140 55 -140 166c0 96 56 341 205 341c76 0 123 -46 123 -149c0 -44 -9 -91 -18 -127h-236c-6 -24 -8 -47 -8 -68c0 -60 25 -106 83 -106c30 0 63 23 87 54l31 -43c-37 -45 -82 -68 -127 -68zM108 270h170c6 26 10 50 10 75c0 50 -20 93 -64 93
c-67 0 -104 -100 -116 -168zM301 556h-46l-68 144h67z" />
    <glyph glyph-name="emacron" unicode="&#x113;" horiz-adv-x="373" 
d="M164 -12c-86 0 -140 55 -140 166c0 96 56 341 205 341c76 0 123 -46 123 -149c0 -44 -9 -91 -18 -127h-236c-6 -24 -8 -47 -8 -68c0 -60 25 -106 83 -106c30 0 63 23 87 54l31 -43c-37 -45 -82 -68 -127 -68zM108 270h170c6 26 10 50 10 75c0 50 -20 93 -64 93
c-67 0 -104 -100 -116 -168zM393 573h-247l9 45h248z" />
    <glyph glyph-name="eogonek" unicode="&#x119;" horiz-adv-x="373" 
d="M189 -116l31 -22c-16 -29 -39 -48 -72 -48c-37 0 -62 20 -62 58c0 32 13 75 61 117c-76 7 -123 61 -123 165c0 96 56 341 205 341c76 0 123 -46 123 -149c0 -44 -9 -91 -18 -127h-236c-6 -24 -8 -47 -8 -68c0 -60 25 -106 83 -106c30 0 63 23 87 54l31 -43
c-22 -26 -46 -45 -71 -56c-48 -29 -93 -69 -93 -123c0 -16 10 -26 26 -26c17 0 30 14 36 33zM108 270h170c6 26 10 50 10 75c0 50 -20 93 -64 93c-67 0 -104 -100 -116 -168z" />
    <glyph glyph-name="ecaron" unicode="&#x11b;" horiz-adv-x="373" 
d="M300 556h-66l-37 144h40l36 -105l81 105h43zM164 -12c-86 0 -140 55 -140 166c0 96 56 341 205 341c76 0 123 -46 123 -149c0 -44 -9 -91 -18 -127h-236c-6 -24 -8 -47 -8 -68c0 -60 25 -106 83 -106c30 0 63 23 87 54l31 -43c-37 -45 -82 -68 -127 -68zM108 270h170
c6 26 10 50 10 75c0 50 -20 93 -64 93c-67 0 -104 -100 -116 -168z" />
    <glyph glyph-name="uni1EB9" unicode="&#x1eb9;" horiz-adv-x="373" 
d="M164 -12c-86 0 -140 55 -140 166c0 96 56 341 205 341c76 0 123 -46 123 -149c0 -44 -9 -91 -18 -127h-236c-6 -24 -8 -47 -8 -68c0 -60 25 -106 83 -106c30 0 63 23 87 54l31 -43c-37 -45 -82 -68 -127 -68zM108 270h170c6 26 10 50 10 75c0 50 -20 93 -64 93
c-67 0 -104 -100 -116 -168zM157 -133c0 -27 -24 -49 -50 -49c-23 0 -40 17 -40 40c0 26 23 49 50 49c23 0 40 -17 40 -40z" />
    <glyph glyph-name="uni1EBB" unicode="&#x1ebb;" horiz-adv-x="373" 
d="M164 -12c-86 0 -140 55 -140 166c0 96 56 341 205 341c76 0 123 -46 123 -149c0 -44 -9 -91 -18 -127h-236c-6 -24 -8 -47 -8 -68c0 -60 25 -106 83 -106c30 0 63 23 87 54l31 -43c-37 -45 -82 -68 -127 -68zM108 270h170c6 26 10 50 10 75c0 50 -20 93 -64 93
c-67 0 -104 -100 -116 -168zM246 597l-28 10c11 24 29 43 59 43c32 0 50 -18 50 -48s-17 -57 -35 -75h-37c23 20 37 44 38 69c1 14 -5 24 -18 24s-22 -9 -29 -23z" />
    <glyph glyph-name="uni1EBD" unicode="&#x1ebd;" horiz-adv-x="373" 
d="M164 -12c-86 0 -140 55 -140 166c0 96 56 341 205 341c76 0 123 -46 123 -149c0 -44 -9 -91 -18 -127h-236c-6 -24 -8 -47 -8 -68c0 -60 25 -106 83 -106c30 0 63 23 87 54l31 -43c-37 -45 -82 -68 -127 -68zM108 270h170c6 26 10 50 10 75c0 50 -20 93 -64 93
c-67 0 -104 -100 -116 -168zM313 554c-62 0 -34 95 -71 95c-19 0 -35 -27 -48 -89h-40c17 74 44 134 95 134c62 0 34 -95 71 -95c18 0 34 27 48 89h40c-16 -74 -45 -134 -95 -134z" />
    <glyph glyph-name="uni1EBF" unicode="&#x1ebf;" horiz-adv-x="373" 
d="M365 556h-39l-38 105l-79 -105h-44l98 144h66zM533 771l-132 -144h-48l111 144h69zM164 -12c-86 0 -140 55 -140 166c0 96 56 341 205 341c76 0 123 -46 123 -149c0 -44 -9 -91 -18 -127h-236c-6 -24 -8 -47 -8 -68c0 -60 25 -106 83 -106c30 0 63 23 87 54l31 -43
c-37 -45 -82 -68 -127 -68zM108 270h170c6 26 10 50 10 75c0 50 -20 93 -64 93c-67 0 -104 -100 -116 -168z" />
    <glyph glyph-name="uni1EC1" unicode="&#x1ec1;" horiz-adv-x="373" 
d="M365 556h-39l-38 105l-79 -105h-44l98 144h66zM164 -12c-86 0 -140 55 -140 166c0 96 56 341 205 341c76 0 123 -46 123 -149c0 -44 -9 -91 -18 -127h-236c-6 -24 -8 -47 -8 -68c0 -60 25 -106 83 -106c30 0 63 23 87 54l31 -43c-37 -45 -82 -68 -127 -68zM108 270h170
c6 26 10 50 10 75c0 50 -20 93 -64 93c-67 0 -104 -100 -116 -168zM206 627h-46l-68 144h67z" />
    <glyph glyph-name="uni1EC3" unicode="&#x1ec3;" horiz-adv-x="373" 
d="M365 556h-39l-38 105l-79 -105h-44l98 144h66zM164 -12c-86 0 -140 55 -140 166c0 96 56 341 205 341c76 0 123 -46 123 -149c0 -44 -9 -91 -18 -127h-236c-6 -24 -8 -47 -8 -68c0 -60 25 -106 83 -106c30 0 63 23 87 54l31 -43c-37 -45 -82 -68 -127 -68zM108 270h170
c6 26 10 50 10 75c0 50 -20 93 -64 93c-67 0 -104 -100 -116 -168zM343 737l-28 10c11 24 29 43 59 43c32 0 50 -18 50 -48s-17 -57 -35 -75h-37c23 20 37 44 38 69c1 14 -5 24 -18 24s-22 -9 -29 -23z" />
    <glyph glyph-name="uni1EC5" unicode="&#x1ec5;" horiz-adv-x="373" 
d="M358 523h-39l-38 105l-79 -105h-44l98 144h66zM164 -12c-86 0 -140 55 -140 166c0 96 56 341 205 341c76 0 123 -46 123 -149c0 -44 -9 -91 -18 -127h-236c-6 -24 -8 -47 -8 -68c0 -60 25 -106 83 -106c30 0 63 23 87 54l31 -43c-37 -45 -82 -68 -127 -68zM108 270h170
c6 26 10 50 10 75c0 50 -20 93 -64 93c-67 0 -104 -100 -116 -168zM341 682c-62 0 -34 95 -71 95c-19 0 -35 -27 -48 -89h-40c17 74 44 134 95 134c62 0 34 -95 71 -95c18 0 34 27 48 89h40c-16 -74 -45 -134 -95 -134z" />
    <glyph glyph-name="uni1EC7" unicode="&#x1ec7;" horiz-adv-x="373" 
d="M364 556h-39l-38 105l-79 -105h-44l98 144h66zM164 -12c-86 0 -140 55 -140 166c0 96 56 341 205 341c76 0 123 -46 123 -149c0 -44 -9 -91 -18 -127h-236c-6 -24 -8 -47 -8 -68c0 -60 25 -106 83 -106c30 0 63 23 87 54l31 -43c-37 -45 -82 -68 -127 -68zM108 270h170
c6 26 10 50 10 75c0 50 -20 93 -64 93c-67 0 -104 -100 -116 -168zM157 -133c0 -27 -24 -49 -50 -49c-23 0 -40 17 -40 40c0 26 23 49 50 49c23 0 40 -17 40 -40z" />
    <glyph glyph-name="fl.alt1" horiz-adv-x="432" 
d="M85 0h-69l94 423h-48l14 60h47l17 81c18 81 62 113 117 113c19 0 37 -4 52 -11l-26 -56c-6 4 -15 6 -21 6c-29 0 -46 -20 -53 -52l-17 -81h65l-13 -60h-66zM324 -12c-51 0 -82 22 -82 70c0 10 1 22 4 37l127 572h68l-125 -563c-1 -8 -3 -18 -3 -25c1 -22 11 -30 29 -30
c13 0 22 4 31 15l10 -54c-15 -13 -33 -22 -59 -22z" />
    <glyph glyph-name="f_f_l.alt1" horiz-adv-x="655" 
d="M309 0h-69l94 423h-48l14 60h47l17 81c18 81 62 113 117 113c19 0 37 -4 52 -11l-26 -56c-6 4 -15 6 -21 6c-29 0 -46 -20 -53 -52l-17 -81h65l-13 -60h-66zM548 -12c-51 0 -82 22 -82 70c0 10 1 22 4 37l127 572h68l-125 -563c-1 -8 -3 -18 -3 -25c1 -22 11 -30 29 -30
c13 0 22 4 31 15l10 -54c-15 -13 -33 -22 -59 -22zM85 0h-69l94 423h-48l14 60h47l17 81c14 65 50 113 117 113c28 0 60 -11 73 -29l-34 -52c-9 15 -21 20 -34 20c-30 0 -46 -20 -53 -52l-17 -81h65l-13 -60h-66z" />
    <glyph glyph-name="uni1E1F" unicode="&#x1e1f;" horiz-adv-x="224" 
d="M313 773c0 -27 -24 -49 -50 -49c-23 0 -40 17 -40 40c0 26 23 49 50 49c23 0 40 -17 40 -40zM85 0h-69l94 423h-48l14 60h47l17 81c14 65 50 113 117 113c28 0 60 -11 73 -29l-34 -52c-9 15 -21 20 -34 20c-30 0 -46 -20 -53 -52l-17 -81h65l-13 -60h-66z" />
    <glyph glyph-name="gcircumflex" unicode="&#x11d;" horiz-adv-x="384" 
d="M352 550h-39l-38 105l-79 -105h-44l98 144h66zM99 -196c-51 0 -102 19 -132 56l41 54c17 -28 52 -49 91 -49c51 0 84 35 102 116l22 89c-29 -50 -65 -74 -102 -74c-58 0 -98 43 -98 139c0 116 56 360 188 360c35 0 78 -29 88 -81l15 69h67l-110 -495
c-31 -138 -91 -184 -172 -184zM150 56c33 0 67 39 86 81l49 216c-4 40 -31 81 -65 81c-81 0 -126 -199 -126 -290c0 -66 21 -88 56 -88z" />
    <glyph glyph-name="gbreve" unicode="&#x11f;" horiz-adv-x="384" 
d="M99 -196c-51 0 -102 19 -132 56l41 54c17 -28 52 -49 91 -49c51 0 84 35 102 116l22 89c-29 -50 -65 -74 -102 -74c-58 0 -98 43 -98 139c0 116 56 360 188 360c35 0 78 -29 88 -81l15 69h67l-110 -495c-31 -138 -91 -184 -172 -184zM150 56c33 0 67 39 86 81l49 216
c-4 40 -31 81 -65 81c-81 0 -126 -199 -126 -290c0 -66 21 -88 56 -88zM383 613c-35 -37 -83 -61 -132 -61s-87 24 -106 61l39 28c12 -27 43 -44 74 -44c32 0 69 17 92 44z" />
    <glyph glyph-name="gdotaccent" unicode="&#x121;" horiz-adv-x="384" 
d="M99 -196c-51 0 -102 19 -132 56l41 54c17 -28 52 -49 91 -49c51 0 84 35 102 116l22 89c-29 -50 -65 -74 -102 -74c-58 0 -98 43 -98 139c0 116 56 360 188 360c35 0 78 -29 88 -81l15 69h67l-110 -495c-31 -138 -91 -184 -172 -184zM150 56c33 0 67 39 86 81l49 216
c-4 40 -31 81 -65 81c-81 0 -126 -199 -126 -290c0 -66 21 -88 56 -88zM310 606c0 -27 -24 -49 -50 -49c-23 0 -40 17 -40 40c0 26 23 49 50 49c23 0 40 -17 40 -40z" />
    <glyph glyph-name="gcommaaccent" unicode="&#x123;" horiz-adv-x="384" 
d="M220 606c0 55 48 116 101 143l24 -27c-34 -17 -66 -49 -75 -78h7c19 0 35 -16 35 -38c0 -27 -23 -49 -49 -49c-24 0 -43 17 -43 49zM99 -196c-51 0 -102 19 -132 56l41 54c17 -28 52 -49 91 -49c51 0 84 35 102 116l22 89c-29 -50 -65 -74 -102 -74c-58 0 -98 43 -98 139
c0 116 56 360 188 360c35 0 78 -29 88 -81l15 69h67l-110 -495c-31 -138 -91 -184 -172 -184zM150 56c33 0 67 39 86 81l49 216c-4 40 -31 81 -65 81c-81 0 -126 -199 -126 -290c0 -66 21 -88 56 -88z" />
    <glyph glyph-name="hbar" unicode="&#x127;" horiz-adv-x="384" 
d="M274 0h-68l82 371c1 5 3 19 3 24c0 28 -13 39 -38 39c-36 0 -76 -41 -100 -82l-77 -352h-68l118 536h-48l10 45h48l19 86h68l-19 -86h118l-9 -45h-119l-25 -117c30 42 70 76 117 76c52 0 78 -31 78 -74c0 -8 -2 -21 -4 -31z" />
    <glyph glyph-name="hcircumflex" unicode="&#x125;" 
d="M396 723h-39l-38 105l-79 -105h-44l98 144h66zM268 0h-68l82 371c1 5 3 19 3 24c0 28 -13 39 -38 39c-36 0 -76 -41 -100 -82l-77 -352h-68l147 667h68l-54 -248c30 42 70 76 117 76c52 0 78 -31 78 -74c0 -8 -2 -21 -4 -31z" />
    <glyph glyph-name="uni1E23" unicode="&#x1e23;" 
d="M268 0h-68l82 371c1 5 3 19 3 24c0 28 -13 39 -38 39c-36 0 -76 -41 -100 -82l-77 -352h-68l147 667h68l-54 -248c30 42 70 76 117 76c52 0 78 -31 78 -74c0 -8 -2 -21 -4 -31zM351 773c0 -27 -24 -49 -50 -49c-23 0 -40 17 -40 40c0 26 23 49 50 49c23 0 40 -17 40 -40z
" />
    <glyph glyph-name="dotlessi" unicode="&#x131;" horiz-adv-x="180" 
d="M70 0h-68l107 483h68z" />
    <glyph glyph-name="iacute" unicode="&#xed;" horiz-adv-x="180" 
d="M300 700l-132 -144h-48l111 144h69zM70 0h-68l107 483h68z" />
    <glyph glyph-name="ibreve" unicode="&#x12d;" horiz-adv-x="180" 
d="M70 0h-68l107 483h68zM287 613c-35 -37 -83 -61 -132 -61s-87 24 -106 61l39 28c12 -27 43 -44 74 -44c32 0 69 17 92 44z" />
    <glyph glyph-name="icircumflex" unicode="&#xee;" horiz-adv-x="180" 
d="M260 556h-39l-38 105l-79 -105h-44l98 144h66zM70 0h-68l107 483h68z" />
    <glyph glyph-name="idieresis" unicode="&#xef;" horiz-adv-x="180" 
d="M283 608c0 -26 -23 -48 -49 -48c-21 0 -38 16 -38 39c0 25 23 47 49 47c21 0 38 -16 38 -38zM143 608c0 -26 -23 -48 -49 -48c-22 0 -39 16 -39 39c0 25 23 47 49 47c22 0 39 -16 39 -38zM70 0h-68l107 483h68z" />
    <glyph glyph-name="igrave" unicode="&#xec;" horiz-adv-x="180" 
d="M70 0h-68l107 483h68zM195 556h-46l-68 144h67z" />
    <glyph glyph-name="imacron" unicode="&#x12b;" horiz-adv-x="180" 
d="M70 0h-68l107 483h68zM287 573h-247l9 45h248z" />
    <glyph glyph-name="iogonek" unicode="&#x12f;" horiz-adv-x="180" 
d="M39 -116l31 -22c-16 -29 -39 -48 -72 -48c-37 0 -62 20 -62 58c0 35 16 82 74 128h-8l107 483h68l-107 -483c-48 -29 -93 -69 -93 -123c0 -16 10 -26 26 -26c17 0 30 14 36 33zM163 554c-25 0 -43 19 -43 41c0 33 30 54 54 54s43 -20 43 -42c0 -33 -29 -53 -54 -53z" />
    <glyph glyph-name="itilde" unicode="&#x129;" horiz-adv-x="180" 
d="M70 0h-68l107 483h68zM207 554c-62 0 -34 95 -71 95c-19 0 -35 -27 -48 -89h-40c17 74 44 134 95 134c62 0 34 -95 71 -95c18 0 34 27 48 89h40c-16 -74 -45 -134 -95 -134z" />
    <glyph glyph-name="uni1EC9" unicode="&#x1ec9;" horiz-adv-x="180" 
d="M70 0h-68l107 483h68zM140 597l-28 10c11 24 29 43 59 43c32 0 50 -18 50 -48s-17 -57 -35 -75h-37c23 20 37 44 38 69c1 14 -5 24 -18 24s-22 -9 -29 -23z" />
    <glyph glyph-name="uni1ECB" unicode="&#x1ecb;" horiz-adv-x="180" 
d="M163 554c-25 0 -43 19 -43 41c0 33 30 54 54 54s43 -20 43 -42c0 -33 -29 -53 -54 -53zM70 0h-68l107 483h68zM52 -133c0 -27 -24 -49 -50 -49c-23 0 -40 17 -40 40c0 26 23 49 50 49c23 0 40 -17 40 -40z" />
    <glyph glyph-name="ij" unicode="&#x133;" horiz-adv-x="361" 
d="M163 554c-25 0 -43 19 -43 41c0 33 30 54 54 54s43 -20 43 -42c0 -33 -29 -53 -54 -53zM70 0h-68l107 483h68zM123 -196c-30 0 -53 9 -65 34l37 46c3 -12 13 -19 26 -19c19 0 34 14 44 64l124 554h68l-123 -554c-21 -91 -51 -125 -111 -125zM343 554c-25 0 -43 19 -43 41
c0 33 30 54 54 54s43 -20 43 -42c0 -33 -29 -53 -54 -53z" />
    <glyph glyph-name="uni0237" unicode="&#x237;" horiz-adv-x="180" 
d="M-57 -196c-30 0 -53 9 -65 34l37 46c3 -12 13 -19 26 -19c19 0 34 14 44 64l124 554h68l-123 -554c-21 -91 -51 -125 -111 -125z" />
    <glyph glyph-name="jcircumflex" unicode="&#x135;" horiz-adv-x="180" 
d="M261 556h-39l-38 105l-79 -105h-44l98 144h66zM-57 -196c-30 0 -53 9 -65 34l37 46c3 -12 13 -19 26 -19c19 0 34 14 44 64l124 554h68l-123 -554c-21 -91 -51 -125 -111 -125z" />
    <glyph glyph-name="kcommaaccent" unicode="&#x137;" horiz-adv-x="361" 
d="M159 -121c0 -56 -47 -115 -100 -143l-25 27c34 18 66 49 75 79c-2 -1 -5 -1 -7 -1c-18 0 -34 16 -34 37c0 27 23 49 48 49c24 0 43 -17 43 -48zM291 0h-72l-44 222l-78 -99l-27 -123h-68l147 667h68l-98 -446l204 262h76l-171 -216z" />
    <glyph glyph-name="kgreenlandic" unicode="&#x138;" horiz-adv-x="361" 
d="M291 0h-72l-44 222l-78 -99l-27 -123h-68l107 483h68l-58 -262l204 262h76l-171 -216z" />
    <glyph glyph-name="lacute" unicode="&#x13a;" horiz-adv-x="180" 
d="M337 867l-132 -144h-48l111 144h69zM70 0h-68l147 667h68z" />
    <glyph glyph-name="lcommaaccent" unicode="&#x13c;" horiz-adv-x="180" 
d="M53 -121c0 -56 -47 -115 -100 -143l-25 27c34 18 66 49 75 79c-2 -1 -5 -1 -7 -1c-18 0 -34 16 -34 37c0 27 23 49 48 49c24 0 43 -17 43 -48zM70 0h-68l147 667h68z" />
    <glyph glyph-name="lcaron" unicode="&#x13e;" horiz-adv-x="261" 
d="M363 632c0 -56 -47 -115 -100 -143l-25 27c34 18 66 49 75 79c-2 -1 -5 -1 -7 -1c-18 0 -34 16 -34 37c0 27 23 49 48 49c24 0 43 -17 43 -48zM70 0h-68l147 667h68z" />
    <glyph glyph-name="ldot" unicode="&#x140;" horiz-adv-x="287" 
d="M70 0h-68l147 667h68zM229 193c-26 0 -47 21 -47 47c0 31 26 56 57 56c26 0 47 -21 47 -47c0 -32 -25 -56 -57 -56z" />
    <glyph glyph-name="lslash" unicode="&#x142;" horiz-adv-x="222" 
d="M25 262l12 56l63 32l70 317h68l-62 -279l64 32l-13 -55l-63 -32l-73 -333h-68l65 294z" />
    <glyph glyph-name="lacute.alt1" horiz-adv-x="208" 
d="M339 869l-132 -144h-48l111 144h69zM100 -12c-51 0 -82 22 -82 70c0 10 1 22 4 37l127 572h68l-125 -563c-1 -8 -3 -18 -3 -25c1 -22 11 -30 29 -30c13 0 22 4 31 15l10 -54c-15 -13 -33 -22 -59 -22z" />
    <glyph glyph-name="lcommaaccent.alt1" horiz-adv-x="208" 
d="M55 -121c0 -56 -47 -115 -100 -143l-25 27c34 18 66 49 75 79c-2 -1 -5 -1 -7 -1c-18 0 -34 16 -34 37c0 27 23 49 48 49c24 0 43 -17 43 -48zM100 -12c-51 0 -82 22 -82 70c0 10 1 22 4 37l127 572h68l-125 -563c-1 -8 -3 -18 -3 -25c1 -22 11 -30 29 -30
c13 0 22 4 31 15l10 -54c-15 -13 -33 -22 -59 -22z" />
    <glyph glyph-name="lcaron.alt1" horiz-adv-x="261" 
d="M363 632c0 -56 -47 -115 -100 -143l-25 27c34 18 66 49 75 79c-2 -1 -5 -1 -7 -1c-18 0 -34 16 -34 37c0 27 23 49 48 49c24 0 43 -17 43 -48zM100 -12c-51 0 -82 22 -82 70c0 10 1 22 4 37l127 572h68l-125 -563c-1 -8 -3 -18 -3 -25c1 -22 11 -30 29 -30
c13 0 22 4 31 15l10 -54c-15 -13 -33 -22 -59 -22z" />
    <glyph glyph-name="ldot.alt1" horiz-adv-x="287" 
d="M100 -12c-51 0 -82 22 -82 70c0 10 1 22 4 37l127 572h68l-125 -563c-1 -8 -3 -18 -3 -25c1 -22 11 -30 29 -30c13 0 22 4 31 15l10 -54c-15 -13 -33 -22 -59 -22zM229 193c-26 0 -47 21 -47 47c0 31 26 56 57 56c26 0 47 -21 47 -47c0 -32 -25 -56 -57 -56z" />
    <glyph glyph-name="lslash.alt1" horiz-adv-x="229" 
d="M25 262l12 56l62 31l71 318h68l-62 -279l64 32l-13 -55l-63 -33l-51 -228c-1 -8 -3 -18 -3 -25c1 -22 11 -30 29 -30c13 0 22 4 31 15l10 -54c-15 -13 -33 -22 -59 -22c-51 0 -82 22 -82 70c0 10 1 22 4 37l44 198z" />
    <glyph glyph-name="nacute" unicode="&#x144;" 
d="M400 700l-132 -144h-48l111 144h69zM268 0h-68l82 371c1 6 3 19 3 24c0 28 -13 39 -38 39c-36 0 -76 -41 -100 -82l-77 -352h-68l107 483h68l-14 -64c30 42 70 76 117 76c49 0 78 -27 78 -74c0 -6 -2 -25 -4 -31z" />
    <glyph glyph-name="napostrophe" unicode="&#x149;" 
d="M232 693c0 -56 -47 -115 -100 -143l-25 27c34 18 66 49 75 79c-2 -1 -5 -1 -7 -1c-18 0 -34 16 -34 37c0 27 23 49 48 49c24 0 43 -17 43 -48zM268 0h-68l82 371c1 6 3 19 3 24c0 28 -13 39 -38 39c-36 0 -76 -41 -100 -82l-77 -352h-68l107 483h68l-14 -64
c30 42 70 76 117 76c49 0 78 -27 78 -74c0 -6 -2 -25 -4 -31z" />
    <glyph glyph-name="ncaron" unicode="&#x148;" 
d="M293 556h-66l-37 144h40l36 -105l81 105h43zM268 0h-68l82 371c1 6 3 19 3 24c0 28 -13 39 -38 39c-36 0 -76 -41 -100 -82l-77 -352h-68l107 483h68l-14 -64c30 42 70 76 117 76c49 0 78 -27 78 -74c0 -6 -2 -25 -4 -31z" />
    <glyph glyph-name="ncommaaccent" unicode="&#x146;" 
d="M154 -121c0 -56 -47 -115 -100 -143l-25 27c34 18 66 49 75 79c-2 -1 -5 -1 -7 -1c-18 0 -34 16 -34 37c0 27 23 49 48 49c24 0 43 -17 43 -48zM268 0h-68l82 371c1 6 3 19 3 24c0 28 -13 39 -38 39c-36 0 -76 -41 -100 -82l-77 -352h-68l107 483h68l-14 -64
c30 42 70 76 117 76c49 0 78 -27 78 -74c0 -6 -2 -25 -4 -31z" />
    <glyph glyph-name="ntilde" unicode="&#xf1;" 
d="M268 0h-68l82 371c1 6 3 19 3 24c0 28 -13 39 -38 39c-36 0 -76 -41 -100 -82l-77 -352h-68l107 483h68l-14 -64c30 42 70 76 117 76c49 0 78 -27 78 -74c0 -6 -2 -25 -4 -31zM306 554c-62 0 -34 95 -71 95c-19 0 -35 -27 -48 -89h-40c17 74 44 134 95 134
c62 0 34 -95 71 -95c18 0 34 27 48 89h40c-16 -74 -45 -134 -95 -134z" />
    <glyph glyph-name="eng" unicode="&#x14b;" 
d="M354 390l-102 -460c-22 -96 -55 -126 -112 -126c-31 0 -50 9 -64 34l37 46c3 -12 12 -19 25 -19c20 0 34 15 46 65l98 441c1 7 3 19 3 25c0 25 -12 38 -38 38c-36 0 -76 -41 -100 -82l-77 -352h-68l107 483h68l-15 -68c30 44 72 80 118 80c48 0 78 -26 78 -74
c0 -8 -2 -22 -4 -31z" />
    <glyph glyph-name="oacute" unicode="&#xf3;" horiz-adv-x="382" 
d="M402 700l-132 -144h-48l111 144h69zM150 -12c-78 0 -126 50 -126 157c0 138 70 350 207 350c78 0 125 -50 125 -157c0 -138 -70 -350 -206 -350zM154 49c84 0 132 199 132 289c0 73 -24 96 -59 96c-85 0 -133 -200 -133 -290c0 -73 24 -95 60 -95z" />
    <glyph glyph-name="obreve" unicode="&#x14f;" horiz-adv-x="382" 
d="M150 -12c-78 0 -126 50 -126 157c0 138 70 350 207 350c78 0 125 -50 125 -157c0 -138 -70 -350 -206 -350zM154 49c84 0 132 199 132 289c0 73 -24 96 -59 96c-85 0 -133 -200 -133 -290c0 -73 24 -95 60 -95zM389 613c-35 -37 -83 -61 -132 -61s-87 24 -106 61l39 28
c12 -27 43 -44 74 -44c32 0 69 17 92 44z" />
    <glyph glyph-name="ocircumflex" unicode="&#xf4;" horiz-adv-x="382" 
d="M361 556h-39l-38 105l-79 -105h-44l98 144h66zM150 -12c-78 0 -126 50 -126 157c0 138 70 350 207 350c78 0 125 -50 125 -157c0 -138 -70 -350 -206 -350zM154 49c84 0 132 199 132 289c0 73 -24 96 -59 96c-85 0 -133 -200 -133 -290c0 -73 24 -95 60 -95z" />
    <glyph glyph-name="odieresis" unicode="&#xf6;" horiz-adv-x="382" 
d="M385 608c0 -26 -23 -48 -49 -48c-21 0 -38 16 -38 39c0 25 23 47 49 47c21 0 38 -16 38 -38zM245 608c0 -26 -23 -48 -49 -48c-22 0 -39 16 -39 39c0 25 23 47 49 47c22 0 39 -16 39 -38zM150 -12c-78 0 -126 50 -126 157c0 138 70 350 207 350c78 0 125 -50 125 -157
c0 -138 -70 -350 -206 -350zM154 49c84 0 132 199 132 289c0 73 -24 96 -59 96c-85 0 -133 -200 -133 -290c0 -73 24 -95 60 -95z" />
    <glyph glyph-name="ograve" unicode="&#xf2;" horiz-adv-x="382" 
d="M150 -12c-78 0 -126 50 -126 157c0 138 70 350 207 350c78 0 125 -50 125 -157c0 -138 -70 -350 -206 -350zM154 49c84 0 132 199 132 289c0 73 -24 96 -59 96c-85 0 -133 -200 -133 -290c0 -73 24 -95 60 -95zM297 556h-46l-68 144h67z" />
    <glyph glyph-name="ohungarumlaut" unicode="&#x151;" horiz-adv-x="382" 
d="M321 700l-109 -144h-40l88 144h61zM438 700l-110 -144h-40l88 144h62zM150 -12c-78 0 -126 50 -126 157c0 138 70 350 207 350c78 0 125 -50 125 -157c0 -138 -70 -350 -206 -350zM154 49c84 0 132 199 132 289c0 73 -24 96 -59 96c-85 0 -133 -200 -133 -290
c0 -73 24 -95 60 -95z" />
    <glyph glyph-name="omacron" unicode="&#x14d;" horiz-adv-x="382" 
d="M388 573h-247l9 45h248zM150 -12c-78 0 -126 50 -126 157c0 138 70 350 207 350c78 0 125 -50 125 -157c0 -138 -70 -350 -206 -350zM154 49c84 0 132 199 132 289c0 73 -24 96 -59 96c-85 0 -133 -200 -133 -290c0 -73 24 -95 60 -95z" />
    <glyph glyph-name="oslash" unicode="&#xf8;" horiz-adv-x="382" 
d="M38 0h-47l46 63c-9 22 -13 49 -13 82c0 138 70 350 207 350c39 0 71 -13 92 -39l20 27h47l-47 -64c8 -22 13 -49 13 -81c0 -138 -70 -350 -206 -350c-39 0 -71 13 -93 39zM94 144v-3l185 254c-10 29 -29 39 -52 39c-85 0 -133 -200 -133 -290zM154 49
c84 0 132 199 132 289v2l-185 -253c10 -28 29 -38 53 -38z" />
    <glyph glyph-name="oslashacute" unicode="&#x1ff;" horiz-adv-x="382" 
d="M402 700l-132 -144h-48l111 144h69zM38 0h-47l46 63c-9 22 -13 49 -13 82c0 138 70 350 207 350c39 0 71 -13 92 -39l20 27h47l-47 -64c8 -22 13 -49 13 -81c0 -138 -70 -350 -206 -350c-39 0 -71 13 -93 39zM94 144v-3l185 254c-10 29 -29 39 -52 39
c-85 0 -133 -200 -133 -290zM154 49c84 0 132 199 132 289v2l-185 -253c10 -28 29 -38 53 -38z" />
    <glyph glyph-name="otilde" unicode="&#xf5;" horiz-adv-x="382" 
d="M150 -12c-78 0 -126 50 -126 157c0 138 70 350 207 350c78 0 125 -50 125 -157c0 -138 -70 -350 -206 -350zM154 49c84 0 132 199 132 289c0 73 -24 96 -59 96c-85 0 -133 -200 -133 -290c0 -73 24 -95 60 -95zM308 554c-62 0 -34 95 -71 95c-19 0 -35 -27 -48 -89h-40
c17 74 44 134 95 134c62 0 34 -95 71 -95c18 0 34 27 48 89h40c-16 -74 -45 -134 -95 -134z" />
    <glyph glyph-name="uni1ECD" unicode="&#x1ecd;" horiz-adv-x="382" 
d="M150 -12c-78 0 -126 50 -126 157c0 138 70 350 207 350c78 0 125 -50 125 -157c0 -138 -70 -350 -206 -350zM154 49c84 0 132 199 132 289c0 73 -24 96 -59 96c-85 0 -133 -200 -133 -290c0 -73 24 -95 60 -95zM152 -133c0 -27 -24 -49 -50 -49c-23 0 -40 17 -40 40
c0 26 23 49 50 49c23 0 40 -17 40 -40z" />
    <glyph glyph-name="uni1ECF" unicode="&#x1ecf;" horiz-adv-x="382" 
d="M150 -12c-78 0 -126 50 -126 157c0 138 70 350 207 350c78 0 125 -50 125 -157c0 -138 -70 -350 -206 -350zM154 49c84 0 132 199 132 289c0 73 -24 96 -59 96c-85 0 -133 -200 -133 -290c0 -73 24 -95 60 -95zM242 597l-28 10c11 24 29 43 59 43c32 0 50 -18 50 -48
s-17 -57 -35 -75h-37c23 20 37 44 38 69c1 14 -5 24 -18 24s-22 -9 -29 -23z" />
    <glyph glyph-name="uni1ED1" unicode="&#x1ed1;" horiz-adv-x="382" 
d="M360 556h-39l-38 105l-79 -105h-44l98 144h66zM529 771l-132 -144h-48l111 144h69zM150 -12c-78 0 -126 50 -126 157c0 138 70 350 207 350c78 0 125 -50 125 -157c0 -138 -70 -350 -206 -350zM154 49c84 0 132 199 132 289c0 73 -24 96 -59 96
c-85 0 -133 -200 -133 -290c0 -73 24 -95 60 -95z" />
    <glyph glyph-name="uni1ED3" unicode="&#x1ed3;" horiz-adv-x="382" 
d="M360 556h-39l-38 105l-79 -105h-44l98 144h66zM150 -12c-78 0 -126 50 -126 157c0 138 70 350 207 350c78 0 125 -50 125 -157c0 -138 -70 -350 -206 -350zM154 49c84 0 132 199 132 289c0 73 -24 96 -59 96c-85 0 -133 -200 -133 -290c0 -73 24 -95 60 -95zM201 627h-46
l-68 144h67z" />
    <glyph glyph-name="uni1ED5" unicode="&#x1ed5;" horiz-adv-x="382" 
d="M360 556h-39l-38 105l-79 -105h-44l98 144h66zM150 -12c-78 0 -126 50 -126 157c0 138 70 350 207 350c78 0 125 -50 125 -157c0 -138 -70 -350 -206 -350zM154 49c84 0 132 199 132 289c0 73 -24 96 -59 96c-85 0 -133 -200 -133 -290c0 -73 24 -95 60 -95zM338 737
l-28 10c11 24 29 43 59 43c32 0 50 -18 50 -48s-17 -57 -35 -75h-37c23 20 37 44 38 69c1 14 -5 24 -18 24s-22 -9 -29 -23z" />
    <glyph glyph-name="uni1ED7" unicode="&#x1ed7;" horiz-adv-x="382" 
d="M353 523h-39l-38 105l-79 -105h-44l98 144h66zM150 -12c-78 0 -126 50 -126 157c0 138 70 350 207 350c78 0 125 -50 125 -157c0 -138 -70 -350 -206 -350zM154 49c84 0 132 199 132 289c0 73 -24 96 -59 96c-85 0 -133 -200 -133 -290c0 -73 24 -95 60 -95zM336 682
c-62 0 -34 95 -71 95c-19 0 -35 -27 -48 -89h-40c17 74 44 134 95 134c62 0 34 -95 71 -95c18 0 34 27 48 89h40c-16 -74 -45 -134 -95 -134z" />
    <glyph glyph-name="uni1ED9" unicode="&#x1ed9;" horiz-adv-x="382" 
d="M361 556h-39l-38 105l-79 -105h-44l98 144h66zM150 -12c-78 0 -126 50 -126 157c0 138 70 350 207 350c78 0 125 -50 125 -157c0 -138 -70 -350 -206 -350zM154 49c84 0 132 199 132 289c0 73 -24 96 -59 96c-85 0 -133 -200 -133 -290c0 -73 24 -95 60 -95zM152 -133
c0 -27 -24 -49 -50 -49c-23 0 -40 17 -40 40c0 26 23 49 50 49c23 0 40 -17 40 -40z" />
    <glyph glyph-name="ohorn" unicode="&#x1a1;" horiz-adv-x="382" 
d="M427 546c0 -49 -38 -101 -83 -130c8 -21 12 -47 12 -78c0 -138 -70 -350 -206 -350c-78 0 -126 50 -126 157c0 138 70 350 207 350c43 0 77 -15 98 -47c24 17 44 40 51 63h-7c-17 0 -33 14 -33 35c0 25 22 46 46 46c23 0 41 -16 41 -46zM154 49c84 0 132 199 132 289
c0 73 -24 96 -59 96c-85 0 -133 -200 -133 -290c0 -73 24 -95 60 -95z" />
    <glyph glyph-name="uni1EDB" unicode="&#x1edb;" horiz-adv-x="382" 
d="M402 700l-132 -144h-48l111 144h69zM427 546c0 -49 -38 -101 -83 -130c8 -21 12 -47 12 -78c0 -138 -70 -350 -206 -350c-78 0 -126 50 -126 157c0 138 70 350 207 350c43 0 77 -15 98 -47c24 17 44 40 51 63h-7c-17 0 -33 14 -33 35c0 25 22 46 46 46
c23 0 41 -16 41 -46zM154 49c84 0 132 199 132 289c0 73 -24 96 -59 96c-85 0 -133 -200 -133 -290c0 -73 24 -95 60 -95z" />
    <glyph glyph-name="uni1EDD" unicode="&#x1edd;" horiz-adv-x="382" 
d="M427 546c0 -49 -38 -101 -83 -130c8 -21 12 -47 12 -78c0 -138 -70 -350 -206 -350c-78 0 -126 50 -126 157c0 138 70 350 207 350c43 0 77 -15 98 -47c24 17 44 40 51 63h-7c-17 0 -33 14 -33 35c0 25 22 46 46 46c23 0 41 -16 41 -46zM154 49c84 0 132 199 132 289
c0 73 -24 96 -59 96c-85 0 -133 -200 -133 -290c0 -73 24 -95 60 -95zM297 556h-46l-68 144h67z" />
    <glyph glyph-name="uni1EDF" unicode="&#x1edf;" horiz-adv-x="382" 
d="M427 546c0 -49 -38 -101 -83 -130c8 -21 12 -47 12 -78c0 -138 -70 -350 -206 -350c-78 0 -126 50 -126 157c0 138 70 350 207 350c43 0 77 -15 98 -47c24 17 44 40 51 63h-7c-17 0 -33 14 -33 35c0 25 22 46 46 46c23 0 41 -16 41 -46zM154 49c84 0 132 199 132 289
c0 73 -24 96 -59 96c-85 0 -133 -200 -133 -290c0 -73 24 -95 60 -95zM242 597l-28 10c11 24 29 43 59 43c32 0 50 -18 50 -48s-17 -57 -35 -75h-37c23 20 37 44 38 69c1 14 -5 24 -18 24s-22 -9 -29 -23z" />
    <glyph glyph-name="uni1EE1" unicode="&#x1ee1;" horiz-adv-x="382" 
d="M427 546c0 -49 -38 -101 -83 -130c8 -21 12 -47 12 -78c0 -138 -70 -350 -206 -350c-78 0 -126 50 -126 157c0 138 70 350 207 350c43 0 77 -15 98 -47c24 17 44 40 51 63h-7c-17 0 -33 14 -33 35c0 25 22 46 46 46c23 0 41 -16 41 -46zM154 49c84 0 132 199 132 289
c0 73 -24 96 -59 96c-85 0 -133 -200 -133 -290c0 -73 24 -95 60 -95zM285 554c-62 0 -34 95 -71 95c-19 0 -35 -27 -48 -89h-40c17 74 44 134 95 134c62 0 34 -95 71 -95c18 0 34 27 48 89h40c-16 -74 -45 -134 -95 -134z" />
    <glyph glyph-name="uni1EE3" unicode="&#x1ee3;" horiz-adv-x="382" 
d="M427 546c0 -49 -38 -101 -83 -130c8 -21 12 -47 12 -78c0 -138 -70 -350 -206 -350c-78 0 -126 50 -126 157c0 138 70 350 207 350c43 0 77 -15 98 -47c24 17 44 40 51 63h-7c-17 0 -33 14 -33 35c0 25 22 46 46 46c23 0 41 -16 41 -46zM154 49c84 0 132 199 132 289
c0 73 -24 96 -59 96c-85 0 -133 -200 -133 -290c0 -73 24 -95 60 -95zM152 -133c0 -27 -24 -49 -50 -49c-23 0 -40 17 -40 40c0 26 23 49 50 49c23 0 40 -17 40 -40z" />
    <glyph glyph-name="oe" unicode="&#x153;" horiz-adv-x="608" 
d="M569 219h-233c-2 -10 -6 -58 -6 -68c0 -69 28 -106 80 -106c28 0 56 17 85 54l31 -43c-39 -46 -80 -68 -125 -68c-69 0 -108 42 -116 110c-37 -68 -77 -110 -137 -110c-82 0 -124 54 -124 157c0 151 74 350 205 350c58 0 94 -39 104 -107c33 69 79 107 133 107
c78 0 122 -49 122 -149c0 -47 -10 -96 -19 -127zM347 270h167c4 18 9 57 9 75c0 59 -21 93 -62 93c-66 0 -101 -98 -114 -168zM282 338c0 65 -17 96 -58 96c-84 0 -130 -197 -130 -290c0 -63 17 -96 58 -96c85 0 130 204 130 290z" />
    <glyph glyph-name="uni1E57" unicode="&#x1e57;" horiz-adv-x="384" 
d="M173 -12c-38 0 -73 25 -88 81l-56 -253h-67l147 667h68l-14 -62c30 50 65 74 101 74c62 0 96 -52 96 -143c0 -119 -60 -364 -187 -364zM162 49c84 0 127 212 127 298c0 61 -18 87 -55 87c-32 0 -67 -38 -86 -80l-50 -224c4 -45 32 -81 64 -81zM324 606
c0 -27 -24 -49 -50 -49c-23 0 -40 17 -40 40c0 26 23 49 50 49c23 0 40 -17 40 -40z" />
    <glyph glyph-name="racute" unicode="&#x155;" horiz-adv-x="252" 
d="M350 700l-132 -144h-48l111 144h69zM70 0h-68l107 483h68l-14 -68c29 49 68 78 129 78l-16 -70c-6 2 -15 3 -23 3c-43 0 -80 -34 -107 -82z" />
    <glyph glyph-name="rcaron" unicode="&#x159;" horiz-adv-x="252" 
d="M249 556h-66l-37 144h40l36 -105l81 105h43zM70 0h-68l107 483h68l-14 -68c29 49 68 78 129 78l-16 -70c-6 2 -15 3 -23 3c-43 0 -80 -34 -107 -82z" />
    <glyph glyph-name="rcommaaccent" unicode="&#x157;" horiz-adv-x="252" 
d="M109 -121c0 -56 -47 -115 -100 -143l-25 27c34 18 66 49 75 79c-2 -1 -5 -1 -7 -1c-18 0 -34 16 -34 37c0 27 23 49 48 49c24 0 43 -17 43 -48zM70 0h-68l107 483h68l-14 -68c29 49 68 78 129 78l-16 -70c-6 2 -15 3 -23 3c-43 0 -80 -34 -107 -82z" />
    <glyph glyph-name="sacute" unicode="&#x15b;" horiz-adv-x="309" 
d="M366 700l-132 -144h-48l111 144h69zM110 -12c-57 0 -105 25 -127 67l42 44c17 -32 47 -55 88 -55c44 0 79 39 79 84c0 85 -132 111 -132 224c0 75 52 143 141 143c46 0 91 -22 116 -59l-41 -43c-13 28 -45 46 -77 46c-43 0 -72 -31 -72 -74c0 -77 134 -109 134 -223
c0 -83 -62 -154 -151 -154z" />
    <glyph glyph-name="scaron" unicode="&#x161;" horiz-adv-x="309" 
d="M261 556h-66l-37 144h40l36 -105l81 105h43zM110 -12c-57 0 -105 25 -127 67l42 44c17 -32 47 -55 88 -55c44 0 79 39 79 84c0 85 -132 111 -132 224c0 75 52 143 141 143c46 0 91 -22 116 -59l-41 -43c-13 28 -45 46 -77 46c-43 0 -72 -31 -72 -74
c0 -77 134 -109 134 -223c0 -83 -62 -154 -151 -154z" />
    <glyph glyph-name="scircumflex" unicode="&#x15d;" horiz-adv-x="309" 
d="M325 556h-39l-38 105l-79 -105h-44l98 144h66zM110 -12c-57 0 -105 25 -127 67l42 44c17 -32 47 -55 88 -55c44 0 79 39 79 84c0 85 -132 111 -132 224c0 75 52 143 141 143c46 0 91 -22 116 -59l-41 -43c-13 28 -45 46 -77 46c-43 0 -72 -31 -72 -74
c0 -77 134 -109 134 -223c0 -83 -62 -154 -151 -154z" />
    <glyph glyph-name="scedilla" unicode="&#x15f;" horiz-adv-x="309" 
d="M61 -191c-34 0 -61 12 -82 37l24 33c15 -21 35 -32 59 -32c30 0 50 24 50 50c0 16 -9 27 -25 27c-11 0 -20 -5 -28 -14l-27 17l38 65c-39 9 -70 31 -87 63l42 44c17 -32 47 -55 88 -55c44 0 79 39 79 84c0 85 -132 111 -132 224c0 75 52 143 141 143c46 0 91 -22 116 -59
l-41 -43c-13 28 -45 46 -77 46c-43 0 -72 -31 -72 -74c0 -77 134 -109 134 -223c0 -83 -62 -153 -151 -154l-27 -44c7 7 16 10 24 10c29 0 48 -23 48 -55c0 -50 -42 -90 -94 -90z" />
    <glyph glyph-name="scommaaccent" unicode="&#x219;" horiz-adv-x="310" 
d="M118 -121c0 -56 -47 -115 -100 -143l-25 27c34 18 66 49 75 79c-2 -1 -5 -1 -7 -1c-18 0 -34 16 -34 37c0 27 23 49 48 49c24 0 43 -17 43 -48zM110 -12c-57 0 -105 25 -127 67l42 44c17 -32 47 -55 88 -55c44 0 79 39 79 84c0 85 -132 111 -132 224c0 75 52 143 141 143
c46 0 91 -22 116 -59l-41 -43c-13 28 -45 46 -77 46c-43 0 -72 -31 -72 -74c0 -77 134 -109 134 -223c0 -83 -62 -154 -151 -154z" />
    <glyph glyph-name="uni1E61" unicode="&#x1e61;" horiz-adv-x="309" 
d="M110 -12c-57 0 -105 25 -127 67l42 44c17 -32 47 -55 88 -55c44 0 79 39 79 84c0 85 -132 111 -132 224c0 75 52 143 141 143c46 0 91 -22 116 -59l-41 -43c-13 28 -45 46 -77 46c-43 0 -72 -31 -72 -74c0 -77 134 -109 134 -223c0 -83 -62 -154 -151 -154zM280 606
c0 -27 -24 -49 -50 -49c-23 0 -40 17 -40 40c0 26 23 49 50 49c23 0 40 -17 40 -40z" />
    <glyph glyph-name="germandbls" unicode="&#xdf;" horiz-adv-x="452" 
d="M413 140c0 -74 -56 -152 -146 -152c-57 0 -99 20 -129 65l41 45c16 -27 39 -54 82 -54c40 0 78 36 78 88c0 76 -121 98 -121 206c0 127 143 126 143 215c0 38 -26 63 -72 63c-42 0 -79 -27 -95 -97l-114 -519h-68l114 519c22 98 84 158 169 158c78 0 136 -47 136 -117
c0 -122 -143 -123 -143 -210c0 -78 125 -96 125 -210z" />
    <glyph glyph-name="longs" unicode="&#x17f;" horiz-adv-x="224" 
d="M85 0h-69l94 423h-48l14 60h47l17 81c14 65 50 113 117 113c28 0 60 -11 73 -29l-34 -52c-9 15 -21 20 -34 20c-30 0 -46 -20 -53 -52z" />
    <glyph glyph-name="tbar" unicode="&#x167;" horiz-adv-x="233" 
d="M114 -12c-53 0 -82 23 -82 71c0 11 1 21 4 36l30 134h-48l9 45h49l34 149h-49l13 60h49l29 132h69l-29 -132h65l-13 -60h-66l-33 -149h37l-11 -45h-36l-28 -125c-2 -9 -4 -20 -4 -27c0 -19 10 -28 29 -28c12 0 23 5 31 13l10 -53c-13 -11 -31 -21 -59 -21z" />
    <glyph glyph-name="tcaron" unicode="&#x165;" horiz-adv-x="255" 
d="M379 693c0 -56 -47 -115 -100 -143l-25 27c34 18 66 49 75 79c-2 -1 -5 -1 -7 -1c-18 0 -34 16 -34 37c0 27 23 49 48 49c24 0 43 -17 43 -48zM114 -12c-53 0 -82 23 -82 71c0 11 1 21 4 36l74 328h-49l13 60h49l29 132h69l-29 -132h65l-13 -60h-66l-71 -319
c-2 -9 -4 -20 -4 -27c0 -19 10 -28 29 -28c12 0 23 5 31 13l10 -53c-13 -11 -31 -21 -59 -21z" />
    <glyph glyph-name="tcommaaccent" unicode="&#x163;" horiz-adv-x="233" 
d="M79 -121c0 -56 -47 -115 -100 -143l-25 27c34 18 66 49 75 79c-2 -1 -5 -1 -7 -1c-18 0 -34 16 -34 37c0 27 23 49 48 49c24 0 43 -17 43 -48zM114 -12c-53 0 -82 23 -82 71c0 11 1 21 4 36l74 328h-49l13 60h49l29 132h69l-29 -132h65l-13 -60h-66l-71 -319
c-2 -9 -4 -20 -4 -27c0 -19 10 -28 29 -28c12 0 23 5 31 13l10 -53c-13 -11 -31 -21 -59 -21z" />
    <glyph glyph-name="uni021B" unicode="&#x21b;" horiz-adv-x="233" 
d="M79 -121c0 -56 -47 -115 -100 -143l-25 27c34 18 66 49 75 79c-2 -1 -5 -1 -7 -1c-18 0 -34 16 -34 37c0 27 23 49 48 49c24 0 43 -17 43 -48zM114 -12c-53 0 -82 23 -82 71c0 11 1 21 4 36l74 328h-49l13 60h49l29 132h69l-29 -132h65l-13 -60h-66l-71 -319
c-2 -9 -4 -20 -4 -27c0 -19 10 -28 29 -28c12 0 23 5 31 13l10 -53c-13 -11 -31 -21 -59 -21z" />
    <glyph glyph-name="uni1E6B" unicode="&#x1e6b;" horiz-adv-x="233" 
d="M114 -12c-53 0 -82 23 -82 71c0 11 1 21 4 36l74 328h-49l13 60h49l29 132h69l-29 -132h65l-13 -60h-66l-71 -319c-2 -9 -4 -20 -4 -27c0 -19 10 -28 29 -28c12 0 23 5 31 13l10 -53c-13 -11 -31 -21 -59 -21zM265 773c0 -27 -24 -49 -50 -49c-23 0 -40 17 -40 40
c0 26 23 49 50 49c23 0 40 -17 40 -40z" />
    <glyph glyph-name="uacute" unicode="&#xfa;" 
d="M400 700l-132 -144h-48l111 144h69zM109 483h68l-82 -371c-2 -9 -3 -19 -3 -24c0 -28 13 -39 38 -39c36 0 73 37 97 77l80 357h68l-107 -483h-68l14 64c-30 -42 -70 -76 -117 -76c-49 0 -78 27 -78 74c0 6 2 25 4 31z" />
    <glyph glyph-name="ubreve" unicode="&#x16d;" 
d="M109 483h68l-82 -371c-2 -9 -3 -19 -3 -24c0 -28 13 -39 38 -39c36 0 73 37 97 77l80 357h68l-107 -483h-68l14 64c-30 -42 -70 -76 -117 -76c-49 0 -78 27 -78 74c0 6 2 25 4 31zM387 613c-35 -37 -83 -61 -132 -61s-87 24 -106 61l39 28c12 -27 43 -44 74 -44
c32 0 69 17 92 44z" />
    <glyph glyph-name="ucircumflex" unicode="&#xfb;" 
d="M359 556h-39l-38 105l-79 -105h-44l98 144h66zM109 483h68l-82 -371c-2 -9 -3 -19 -3 -24c0 -28 13 -39 38 -39c36 0 73 37 97 77l80 357h68l-107 -483h-68l14 64c-30 -42 -70 -76 -117 -76c-49 0 -78 27 -78 74c0 6 2 25 4 31z" />
    <glyph glyph-name="udieresis" unicode="&#xfc;" 
d="M383 608c0 -26 -23 -48 -49 -48c-21 0 -38 16 -38 39c0 25 23 47 49 47c21 0 38 -16 38 -38zM243 608c0 -26 -23 -48 -49 -48c-22 0 -39 16 -39 39c0 25 23 47 49 47c22 0 39 -16 39 -38zM109 483h68l-82 -371c-2 -9 -3 -19 -3 -24c0 -28 13 -39 38 -39c36 0 73 37 97 77
l80 357h68l-107 -483h-68l14 64c-30 -42 -70 -76 -117 -76c-49 0 -78 27 -78 74c0 6 2 25 4 31z" />
    <glyph glyph-name="ugrave" unicode="&#xf9;" 
d="M109 483h68l-82 -371c-2 -9 -3 -19 -3 -24c0 -28 13 -39 38 -39c36 0 73 37 97 77l80 357h68l-107 -483h-68l14 64c-30 -42 -70 -76 -117 -76c-49 0 -78 27 -78 74c0 6 2 25 4 31zM296 556h-46l-68 144h67z" />
    <glyph glyph-name="uhungarumlaut" unicode="&#x171;" 
d="M109 483h68l-82 -371c-2 -9 -3 -19 -3 -24c0 -28 13 -39 38 -39c36 0 73 37 97 77l80 357h68l-107 -483h-68l14 64c-30 -42 -70 -76 -117 -76c-49 0 -78 27 -78 74c0 6 2 25 4 31zM319 700l-109 -144h-40l88 144h61zM436 700l-110 -144h-40l88 144h62z" />
    <glyph glyph-name="umacron" unicode="&#x16b;" 
d="M109 483h68l-82 -371c-2 -9 -3 -19 -3 -24c0 -28 13 -39 38 -39c36 0 73 37 97 77l80 357h68l-107 -483h-68l14 64c-30 -42 -70 -76 -117 -76c-49 0 -78 27 -78 74c0 6 2 25 4 31zM387 573h-247l9 45h248z" />
    <glyph glyph-name="uogonek" unicode="&#x173;" 
d="M109 483h68l-82 -371c-2 -9 -3 -19 -3 -24c0 -28 13 -39 38 -39c36 0 73 37 97 77l80 357h68l-107 -483c-48 -29 -93 -69 -93 -123c0 -16 10 -26 26 -26c17 0 30 14 36 33l31 -22c-16 -29 -39 -48 -72 -48c-37 0 -62 20 -62 58c0 35 16 82 74 128h-8l14 64
c-30 -42 -70 -76 -117 -76c-49 0 -78 27 -78 74c0 6 2 25 4 31z" />
    <glyph glyph-name="uring" unicode="&#x16f;" 
d="M267 545c-44 0 -74 32 -74 76c0 49 43 92 92 92c43 0 74 -32 74 -76c0 -49 -43 -92 -92 -92zM269 581c29 0 54 24 54 53c0 24 -17 43 -40 43c-29 0 -54 -24 -54 -53c0 -24 16 -43 40 -43zM109 483h68l-82 -371c-2 -9 -3 -19 -3 -24c0 -28 13 -39 38 -39c36 0 73 37 97 77
l80 357h68l-107 -483h-68l14 64c-30 -42 -70 -76 -117 -76c-49 0 -78 27 -78 74c0 6 2 25 4 31z" />
    <glyph glyph-name="utilde" unicode="&#x169;" 
d="M109 483h68l-82 -371c-2 -9 -3 -19 -3 -24c0 -28 13 -39 38 -39c36 0 73 37 97 77l80 357h68l-107 -483h-68l14 64c-30 -42 -70 -76 -117 -76c-49 0 -78 27 -78 74c0 6 2 25 4 31zM306 554c-62 0 -34 95 -71 95c-19 0 -35 -27 -48 -89h-40c17 74 44 134 95 134
c62 0 34 -95 71 -95c18 0 34 27 48 89h40c-16 -74 -45 -134 -95 -134z" />
    <glyph glyph-name="uni1EE5" unicode="&#x1ee5;" 
d="M109 483h68l-82 -371c-2 -9 -3 -19 -3 -24c0 -28 13 -39 38 -39c36 0 73 37 97 77l80 357h68l-107 -483h-68l14 64c-30 -42 -70 -76 -117 -76c-49 0 -78 27 -78 74c0 6 2 25 4 31zM150 -133c0 -27 -24 -49 -50 -49c-23 0 -40 17 -40 40c0 26 23 49 50 49
c23 0 40 -17 40 -40z" />
    <glyph glyph-name="uhorn" unicode="&#x1b0;" 
d="M453 551c0 -50 -41 -106 -93 -136l-92 -415h-68l14 64c-30 -42 -70 -76 -117 -76c-49 0 -78 27 -78 74c0 6 2 25 4 31l86 390h68l-82 -371c-1 -7 -3 -19 -3 -24c0 -28 13 -39 38 -39c36 0 73 37 97 77l80 357h68l-4 -18c16 15 29 33 35 51h-7c-17 0 -32 15 -32 35
c0 25 21 45 46 45c22 0 40 -15 40 -45z" />
    <glyph glyph-name="uni1EE7" unicode="&#x1ee7;" 
d="M109 483h68l-82 -371c-2 -9 -3 -19 -3 -24c0 -28 13 -39 38 -39c36 0 73 37 97 77l80 357h68l-107 -483h-68l14 64c-30 -42 -70 -76 -117 -76c-49 0 -78 27 -78 74c0 6 2 25 4 31zM241 597l-28 10c11 24 29 43 59 43c32 0 50 -18 50 -48s-17 -57 -35 -75h-37
c23 20 37 44 38 69c1 14 -5 24 -18 24s-22 -9 -29 -23z" />
    <glyph glyph-name="uni1EE9" unicode="&#x1ee9;" 
d="M400 700l-132 -144h-48l111 144h69zM453 551c0 -50 -41 -106 -93 -136l-92 -415h-68l14 64c-30 -42 -70 -76 -117 -76c-49 0 -78 27 -78 74c0 6 2 25 4 31l86 390h68l-82 -371c-1 -7 -3 -19 -3 -24c0 -28 13 -39 38 -39c36 0 73 37 97 77l80 357h68l-4 -18
c16 15 29 33 35 51h-7c-17 0 -32 15 -32 35c0 25 21 45 46 45c22 0 40 -15 40 -45z" />
    <glyph glyph-name="uni1EEB" unicode="&#x1eeb;" 
d="M296 556h-46l-68 144h67zM453 551c0 -50 -41 -106 -93 -136l-92 -415h-68l14 64c-30 -42 -70 -76 -117 -76c-49 0 -78 27 -78 74c0 6 2 25 4 31l86 390h68l-82 -371c-1 -7 -3 -19 -3 -24c0 -28 13 -39 38 -39c36 0 73 37 97 77l80 357h68l-4 -18c16 15 29 33 35 51h-7
c-17 0 -32 15 -32 35c0 25 21 45 46 45c22 0 40 -15 40 -45z" />
    <glyph glyph-name="uni1EED" unicode="&#x1eed;" 
d="M241 597l-28 10c11 24 29 43 59 43c32 0 50 -18 50 -48s-17 -57 -35 -75h-37c23 20 37 44 38 69c1 14 -5 24 -18 24s-22 -9 -29 -23zM453 551c0 -50 -41 -106 -93 -136l-92 -415h-68l14 64c-30 -42 -70 -76 -117 -76c-49 0 -78 27 -78 74c0 6 2 25 4 31l86 390h68
l-82 -371c-1 -7 -3 -19 -3 -24c0 -28 13 -39 38 -39c36 0 73 37 97 77l80 357h68l-4 -18c16 15 29 33 35 51h-7c-17 0 -32 15 -32 35c0 25 21 45 46 45c22 0 40 -15 40 -45z" />
    <glyph glyph-name="uni1EEF" unicode="&#x1eef;" 
d="M453 551c0 -50 -41 -106 -93 -136l-92 -415h-68l14 64c-30 -42 -70 -76 -117 -76c-49 0 -78 27 -78 74c0 6 2 25 4 31l86 390h68l-82 -371c-1 -7 -3 -19 -3 -24c0 -28 13 -39 38 -39c36 0 73 37 97 77l80 357h68l-4 -18c16 15 29 33 35 51h-7c-17 0 -32 15 -32 35
c0 25 21 45 46 45c22 0 40 -15 40 -45zM294 554c-62 0 -34 95 -71 95c-19 0 -35 -27 -48 -89h-40c17 74 44 134 95 134c62 0 34 -95 71 -95c18 0 34 27 48 89h40c-16 -74 -45 -134 -95 -134z" />
    <glyph glyph-name="uni1EF1" unicode="&#x1ef1;" 
d="M150 -133c0 -27 -24 -49 -50 -49c-23 0 -40 17 -40 40c0 26 23 49 50 49c23 0 40 -17 40 -40zM453 551c0 -50 -41 -106 -93 -136l-92 -415h-68l14 64c-30 -42 -70 -76 -117 -76c-49 0 -78 27 -78 74c0 6 2 25 4 31l86 390h68l-82 -371c-1 -7 -3 -19 -3 -24
c0 -28 13 -39 38 -39c36 0 73 37 97 77l80 357h68l-4 -18c16 15 29 33 35 51h-7c-17 0 -32 15 -32 35c0 25 21 45 46 45c22 0 40 -15 40 -45z" />
    <glyph glyph-name="wacute" unicode="&#x1e83;" horiz-adv-x="541" 
d="M478 700l-132 -144h-48l111 144h69zM369 0h-71l4 389l-167 -389h-71l2 483h70l-14 -387l164 387h69l-7 -387l159 387h74z" />
    <glyph glyph-name="wcircumflex" unicode="&#x175;" horiz-adv-x="541" 
d="M437 556h-39l-38 105l-79 -105h-44l98 144h66zM369 0h-71l4 389l-167 -389h-71l2 483h70l-14 -387l164 387h69l-7 -387l159 387h74z" />
    <glyph glyph-name="wdieresis" unicode="&#x1e85;" horiz-adv-x="541" 
d="M461 608c0 -26 -23 -48 -49 -48c-21 0 -38 16 -38 39c0 25 23 47 49 47c21 0 38 -16 38 -38zM321 608c0 -26 -23 -48 -49 -48c-22 0 -39 16 -39 39c0 25 23 47 49 47c22 0 39 -16 39 -38zM369 0h-71l4 389l-167 -389h-71l2 483h70l-14 -387l164 387h69l-7 -387l159 387
h74z" />
    <glyph glyph-name="wgrave" unicode="&#x1e81;" horiz-adv-x="541" 
d="M369 0h-71l4 389l-167 -389h-71l2 483h70l-14 -387l164 387h69l-7 -387l159 387h74zM374 556h-46l-68 144h67z" />
    <glyph glyph-name="yacute" unicode="&#xfd;" horiz-adv-x="326" 
d="M-61 -186l23 57c4 -4 17 -6 23 -6c21 0 32 12 48 45l37 77l-8 496h71l-8 -396l170 396h74l-274 -589c-34 -70 -64 -90 -107 -90c-20 0 -39 5 -49 10zM370 700l-132 -144h-48l111 144h69z" />
    <glyph glyph-name="ycircumflex" unicode="&#x177;" horiz-adv-x="326" 
d="M-61 -186l23 57c4 -4 17 -6 23 -6c21 0 32 12 48 45l37 77l-8 496h71l-8 -396l170 396h74l-274 -589c-34 -70 -64 -90 -107 -90c-20 0 -39 5 -49 10zM329 556h-39l-38 105l-79 -105h-44l98 144h66z" />
    <glyph glyph-name="ydieresis" unicode="&#xff;" horiz-adv-x="326" 
d="M-61 -186l23 57c4 -4 17 -6 23 -6c21 0 32 12 48 45l37 77l-8 496h71l-8 -396l170 396h74l-274 -589c-34 -70 -64 -90 -107 -90c-20 0 -39 5 -49 10zM353 608c0 -26 -23 -48 -49 -48c-21 0 -38 16 -38 39c0 25 23 47 49 47c21 0 38 -16 38 -38zM213 608
c0 -26 -23 -48 -49 -48c-22 0 -39 16 -39 39c0 25 23 47 49 47c22 0 39 -16 39 -38z" />
    <glyph glyph-name="ygrave" unicode="&#x1ef3;" horiz-adv-x="326" 
d="M-61 -186l23 57c4 -4 17 -6 23 -6c21 0 32 12 48 45l37 77l-8 496h71l-8 -396l170 396h74l-274 -589c-34 -70 -64 -90 -107 -90c-20 0 -39 5 -49 10zM265 556h-46l-68 144h67z" />
    <glyph glyph-name="yacute.alt1" 
d="M399 700l-132 -144h-48l111 144h69zM92 -196c-55 0 -107 23 -131 56l41 54c20 -32 56 -49 91 -49c53 0 84 37 102 116l20 93c-30 -43 -69 -78 -116 -78c-52 0 -79 28 -79 74c0 10 2 20 4 31l85 382h68l-81 -363c-1 -9 -2 -17 -2 -25c0 -24 10 -39 38 -39
c37 0 74 39 97 79l78 348h68l-110 -495c-29 -126 -82 -184 -173 -184z" />
    <glyph glyph-name="ycircumflex.alt1" 
d="M358 556h-39l-38 105l-79 -105h-44l98 144h66zM92 -196c-55 0 -107 23 -131 56l41 54c20 -32 56 -49 91 -49c53 0 84 37 102 116l20 93c-30 -43 -69 -78 -116 -78c-52 0 -79 28 -79 74c0 10 2 20 4 31l85 382h68l-81 -363c-1 -9 -2 -17 -2 -25c0 -24 10 -39 38 -39
c37 0 74 39 97 79l78 348h68l-110 -495c-29 -126 -82 -184 -173 -184z" />
    <glyph glyph-name="ydieresis.alt1" 
d="M383 608c0 -26 -23 -48 -49 -48c-21 0 -38 16 -38 39c0 25 23 47 49 47c21 0 38 -16 38 -38zM243 608c0 -26 -23 -48 -49 -48c-22 0 -39 16 -39 39c0 25 23 47 49 47c22 0 39 -16 39 -38zM92 -196c-55 0 -107 23 -131 56l41 54c20 -32 56 -49 91 -49c53 0 84 37 102 116
l20 93c-30 -43 -69 -78 -116 -78c-52 0 -79 28 -79 74c0 10 2 20 4 31l85 382h68l-81 -363c-1 -9 -2 -17 -2 -25c0 -24 10 -39 38 -39c37 0 74 39 97 79l78 348h68l-110 -495c-29 -126 -82 -184 -173 -184z" />
    <glyph glyph-name="ygrave.alt1" 
d="M92 -196c-55 0 -107 23 -131 56l41 54c20 -32 56 -49 91 -49c53 0 84 37 102 116l20 93c-30 -43 -69 -78 -116 -78c-52 0 -79 28 -79 74c0 10 2 20 4 31l85 382h68l-81 -363c-1 -9 -2 -17 -2 -25c0 -24 10 -39 38 -39c37 0 74 39 97 79l78 348h68l-110 -495
c-29 -126 -82 -184 -173 -184zM307 556h-46l-68 144h67z" />
    <glyph glyph-name="zacute" unicode="&#x17a;" horiz-adv-x="303" 
d="M359 700l-132 -144h-48l111 144h69zM214 0h-234l11 54l232 369h-149l13 60h230l-11 -52l-231 -371h152z" />
    <glyph glyph-name="zcaron" unicode="&#x17e;" horiz-adv-x="303" 
d="M253 556h-66l-37 144h40l36 -105l81 105h43zM214 0h-234l11 54l232 369h-149l13 60h230l-11 -52l-231 -371h152z" />
    <glyph glyph-name="zdotaccent" unicode="&#x17c;" horiz-adv-x="303" 
d="M214 0h-234l11 54l232 369h-149l13 60h230l-11 -52l-231 -371h152zM274 606c0 -27 -24 -49 -50 -49c-23 0 -40 17 -40 40c0 26 23 49 50 49c23 0 40 -17 40 -40z" />
    <glyph glyph-name="eth" unicode="&#xf0;" horiz-adv-x="382" 
d="M178 516l-9 39l108 32c-7 31 -15 59 -23 80l69 22c9 -30 17 -56 23 -81l73 22l9 -38l-74 -23c10 -53 12 -101 12 -153c0 -161 -58 -428 -212 -428c-89 0 -130 58 -130 160c0 129 70 333 191 333c41 0 74 -26 83 -72c-1 38 -5 90 -14 139zM155 49c84 0 129 197 129 280
c0 41 -15 92 -61 92c-85 0 -128 -199 -128 -276c0 -76 25 -96 60 -96z" />
    <glyph glyph-name="thorn" unicode="&#xfe;" horiz-adv-x="384" 
d="M173 -12c-38 0 -73 25 -88 81l-56 -253h-67l187 851h68l-54 -246c30 50 65 74 101 74c62 0 96 -52 96 -143c0 -119 -60 -364 -187 -364zM162 49c84 0 127 212 127 298c0 61 -18 87 -55 87c-32 0 -67 -38 -86 -80l-50 -224c4 -45 32 -81 64 -81z" />
    <glyph glyph-name="Aacute.smcp" unicode="&#xf7e1;" horiz-adv-x="315" 
d="M378 750l-132 -144h-48l111 144h69zM184 550h81l-10 -550h-72l6 124h-115l-49 -124h-74zM193 187l13 275l-110 -275h97z" />
    <glyph glyph-name="Abreve.smcp" unicode="&#xf66d;" horiz-adv-x="315" 
d="M184 550h81l-10 -550h-72l6 124h-115l-49 -124h-74zM193 187l13 275l-110 -275h97zM364 663c-35 -37 -83 -61 -132 -61s-87 24 -106 61l39 28c12 -27 43 -44 74 -44c32 0 69 17 92 44z" />
    <glyph glyph-name="Acircumflex.smcp" unicode="&#xf7e2;" horiz-adv-x="315" 
d="M337 606h-39l-38 105l-79 -105h-44l98 144h66zM184 550h81l-10 -550h-72l6 124h-115l-49 -124h-74zM193 187l13 275l-110 -275h97z" />
    <glyph glyph-name="Adieresis.smcp" unicode="&#xf7e4;" horiz-adv-x="315" 
d="M361 658c0 -26 -23 -48 -49 -48c-21 0 -38 16 -38 39c0 25 23 47 49 47c21 0 38 -16 38 -38zM221 658c0 -26 -23 -48 -49 -48c-22 0 -39 16 -39 39c0 25 23 47 49 47c22 0 39 -16 39 -38zM184 550h81l-10 -550h-72l6 124h-115l-49 -124h-74zM193 187l13 275l-110 -275h97
z" />
    <glyph glyph-name="Agrave.smcp" unicode="&#xf7e0;" horiz-adv-x="315" 
d="M184 550h81l-10 -550h-72l6 124h-115l-49 -124h-74zM193 187l13 275l-110 -275h97zM273 606h-46l-68 144h67z" />
    <glyph glyph-name="Amacron.smcp" unicode="&#xf66e;" horiz-adv-x="315" 
d="M364 623h-247l9 45h248zM184 550h81l-10 -550h-72l6 124h-115l-49 -124h-74zM193 187l13 275l-110 -275h97z" />
    <glyph glyph-name="Aogonek.smcp" unicode="&#xf66f;" horiz-adv-x="315" 
d="M184 550h81l-10 -550c-48 -29 -93 -69 -93 -123c0 -16 10 -26 26 -26c17 0 30 14 36 33l31 -22c-16 -29 -39 -48 -72 -48c-37 0 -62 20 -62 58c0 35 16 82 74 128h-12l6 124h-115l-49 -124h-74zM193 187l13 275l-110 -275h97z" />
    <glyph glyph-name="Aring.smcp" unicode="&#xf7e5;" horiz-adv-x="315" 
d="M240 575c-44 0 -74 32 -74 76c0 49 43 92 92 92c43 0 74 -32 74 -76c0 -49 -43 -92 -92 -92zM242 611c29 0 54 24 54 53c0 24 -17 43 -40 43c-29 0 -54 -24 -54 -53c0 -24 16 -43 40 -43zM184 550h81l-10 -550h-72l6 124h-115l-49 -124h-74zM193 187l13 275l-110 -275h97
z" />
    <glyph glyph-name="Atilde.smcp" unicode="&#xf7e3;" horiz-adv-x="315" 
d="M184 550h81l-10 -550h-72l6 124h-115l-49 -124h-74zM193 187l13 275l-110 -275h97zM284 604c-62 0 -34 95 -71 95c-19 0 -35 -27 -48 -89h-40c17 74 44 134 95 134c62 0 34 -95 71 -95c18 0 34 27 48 89h40c-16 -74 -45 -134 -95 -134z" />
    <glyph glyph-name="uni1EA0.smcp" horiz-adv-x="315" 
d="M184 550h81l-10 -550h-72l6 124h-115l-49 -124h-74zM193 187l13 275l-110 -275h97zM117 -133c0 -27 -24 -49 -50 -49c-23 0 -40 17 -40 40c0 26 23 49 50 49c23 0 40 -17 40 -40z" />
    <glyph glyph-name="uni1EA2.smcp" horiz-adv-x="315" 
d="M184 550h81l-10 -550h-72l6 124h-115l-49 -124h-74zM193 187l13 275l-110 -275h97zM218 650l-28 10c11 24 29 43 59 43c32 0 50 -18 50 -48s-17 -57 -35 -75h-37c23 20 37 44 38 69c1 14 -5 24 -18 24s-22 -9 -29 -23z" />
    <glyph glyph-name="uni1EA4.smcp" horiz-adv-x="315" 
d="M336 606h-39l-38 105l-79 -105h-44l98 144h66zM505 821l-132 -144h-48l111 144h69zM184 550h81l-10 -550h-72l6 124h-115l-49 -124h-74zM193 187l13 275l-110 -275h97z" />
    <glyph glyph-name="uni1EAC.smcp" horiz-adv-x="315" 
d="M336 606h-39l-38 105l-79 -105h-44l98 144h66zM184 550h81l-10 -550h-72l6 124h-115l-49 -124h-74zM193 187l13 275l-110 -275h97zM117 -133c0 -27 -24 -49 -50 -49c-23 0 -40 17 -40 40c0 26 23 49 50 49c23 0 40 -17 40 -40z" />
    <glyph glyph-name="uni1EA6.smcp" horiz-adv-x="315" 
d="M337 606h-39l-38 105l-79 -105h-44l98 144h66zM184 550h81l-10 -550h-72l6 124h-115l-49 -124h-74zM193 187l13 275l-110 -275h97zM176 677h-46l-68 144h67z" />
    <glyph glyph-name="uni1EA8.smcp" horiz-adv-x="315" 
d="M336 606h-39l-38 105l-79 -105h-44l98 144h66zM184 550h81l-10 -550h-72l6 124h-115l-49 -124h-74zM193 187l13 275l-110 -275h97zM313 787l-28 10c11 24 29 43 59 43c32 0 50 -18 50 -48s-17 -57 -35 -75h-37c23 20 37 44 38 69c1 14 -5 24 -18 24s-22 -9 -29 -23z" />
    <glyph glyph-name="uni1EAE.smcp" horiz-adv-x="315" 
d="M383 815l-132 -144h-48l111 144h69zM184 550h81l-10 -550h-72l6 124h-115l-49 -124h-74zM193 187l13 275l-110 -275h97zM359 639c-35 -37 -83 -61 -132 -61s-87 24 -106 61l39 28c12 -27 43 -44 74 -44c32 0 69 17 92 44z" />
    <glyph glyph-name="uni1EAA.smcp" horiz-adv-x="315" 
d="M329 573h-39l-38 105l-79 -105h-44l98 144h66zM184 550h81l-10 -550h-72l6 124h-115l-49 -124h-74zM193 187l13 275l-110 -275h97zM312 732c-62 0 -34 95 -71 95c-19 0 -35 -27 -48 -89h-40c17 74 44 134 95 134c62 0 34 -95 71 -95c18 0 34 27 48 89h40
c-16 -74 -45 -134 -95 -134z" />
    <glyph glyph-name="uni1EB0.smcp" horiz-adv-x="315" 
d="M184 550h81l-10 -550h-72l6 124h-115l-49 -124h-74zM193 187l13 275l-110 -275h97zM304 671h-46l-68 144h67zM359 641c-35 -37 -83 -61 -132 -61s-87 24 -106 61l39 28c12 -27 43 -44 74 -44c32 0 69 17 92 44z" />
    <glyph glyph-name="uni1EB2.smcp" horiz-adv-x="315" 
d="M184 550h81l-10 -550h-72l6 124h-115l-49 -124h-74zM193 187l13 275l-110 -275h97zM238 742l-28 10c11 24 29 43 59 43c32 0 50 -18 50 -48s-17 -57 -35 -75h-37c23 20 37 44 38 69c1 14 -5 24 -18 24s-22 -9 -29 -23zM359 641c-35 -37 -83 -61 -132 -61s-87 24 -106 61
l39 28c12 -27 43 -44 74 -44c32 0 69 17 92 44z" />
    <glyph glyph-name="uni1EB4.smcp" horiz-adv-x="315" 
d="M359 641c-35 -37 -83 -61 -132 -61s-87 24 -106 61l39 28c12 -27 43 -44 74 -44c32 0 69 17 92 44zM184 550h81l-10 -550h-72l6 124h-115l-49 -124h-74zM193 187l13 275l-110 -275h97zM304 693c-62 0 -34 95 -71 95c-19 0 -35 -27 -48 -89h-40c17 74 44 134 95 134
c62 0 34 -95 71 -95c18 0 34 27 48 89h40c-16 -74 -45 -134 -95 -134z" />
    <glyph glyph-name="uni1EB6.smcp" horiz-adv-x="315" 
d="M184 550h81l-10 -550h-72l6 124h-115l-49 -124h-74zM193 187l13 275l-110 -275h97zM117 -133c0 -27 -24 -49 -50 -49c-23 0 -40 17 -40 40c0 26 23 49 50 49c23 0 40 -17 40 -40zM364 663c-35 -37 -83 -61 -132 -61s-87 24 -106 61l39 28c12 -27 43 -44 74 -44
c32 0 69 17 92 44z" />
    <glyph glyph-name="AE.smcp" unicode="&#xf7e6;" horiz-adv-x="471" 
d="M380 0h-219l27 124h-102l-66 -124h-75l306 550h250l-14 -63h-147l-39 -174h141l-13 -63h-142l-41 -187h148zM201 187l63 276l-148 -276h85z" />
    <glyph glyph-name="AEacute.smcp" unicode="&#xf670;" horiz-adv-x="471" 
d="M472 750l-132 -144h-48l111 144h69zM380 0h-219l27 124h-102l-66 -124h-75l306 550h250l-14 -63h-147l-39 -174h141l-13 -63h-142l-41 -187h148zM201 187l63 276l-148 -276h85z" />
    <glyph glyph-name="uni1E02.smcp" horiz-adv-x="341" 
d="M138 0h-136l121 550h97c74 0 123 -38 123 -109c0 -67 -33 -141 -103 -161c35 -15 52 -51 52 -94c0 -86 -48 -186 -154 -186zM87 63h49c53 0 83 67 83 125c0 40 -20 62 -53 62h-38zM188 313c49 0 78 65 78 115c0 42 -21 59 -64 59h-21l-40 -174h47zM312 656
c0 -27 -24 -49 -50 -49c-23 0 -40 17 -40 40c0 26 23 49 50 49c23 0 40 -17 40 -40z" />
    <glyph glyph-name="Cacute.smcp" unicode="&#xf671;" horiz-adv-x="351" 
d="M418 750l-132 -144h-48l111 144h69zM155 -12c-75 0 -127 47 -127 166c0 117 63 408 220 408c70 0 109 -47 117 -117l-63 -15c-5 44 -25 69 -55 69c-97 0 -146 -257 -146 -343c0 -78 22 -105 59 -105c35 0 55 26 78 73l55 -26c-34 -63 -70 -110 -138 -110z" />
    <glyph glyph-name="Ccaron.smcp" unicode="&#xf672;" horiz-adv-x="351" 
d="M312 606h-66l-37 144h40l36 -105l81 105h43zM155 -12c-75 0 -127 47 -127 166c0 117 63 408 220 408c70 0 109 -47 117 -117l-63 -15c-5 44 -25 69 -55 69c-97 0 -146 -257 -146 -343c0 -78 22 -105 59 -105c35 0 55 26 78 73l55 -26c-34 -63 -70 -110 -138 -110z" />
    <glyph glyph-name="Ccedilla.smcp" unicode="&#xf7e7;" horiz-adv-x="351" 
d="M105 -191c-34 0 -61 12 -82 37l24 33c15 -21 35 -32 59 -32c30 0 50 24 50 50c0 16 -9 27 -25 27c-11 0 -20 -5 -28 -14l-27 17l39 67c-53 14 -87 63 -87 160c0 117 63 408 220 408c70 0 109 -47 117 -117l-63 -15c-5 44 -25 69 -55 69c-97 0 -146 -257 -146 -343
c0 -78 22 -105 59 -105c35 0 55 26 78 73l55 -26c-34 -63 -70 -110 -138 -110h-1l-27 -44c7 7 16 10 24 10c29 0 48 -23 48 -55c0 -50 -42 -90 -94 -90z" />
    <glyph glyph-name="Ccircumflex.smcp" unicode="&#xf673;" horiz-adv-x="351" 
d="M377 606h-39l-38 105l-79 -105h-44l98 144h66zM155 -12c-75 0 -127 47 -127 166c0 117 63 408 220 408c70 0 109 -47 117 -117l-63 -15c-5 44 -25 69 -55 69c-97 0 -146 -257 -146 -343c0 -78 22 -105 59 -105c35 0 55 26 78 73l55 -26c-34 -63 -70 -110 -138 -110z" />
    <glyph glyph-name="Cdotaccent.smcp" unicode="&#xf674;" horiz-adv-x="351" 
d="M155 -12c-75 0 -127 47 -127 166c0 117 63 408 220 408c70 0 109 -47 117 -117l-63 -15c-5 44 -25 69 -55 69c-97 0 -146 -257 -146 -343c0 -78 22 -105 59 -105c35 0 55 26 78 73l55 -26c-34 -63 -70 -110 -138 -110zM331 656c0 -27 -24 -49 -50 -49
c-23 0 -40 17 -40 40c0 26 23 49 50 49c23 0 40 -17 40 -40z" />
    <glyph glyph-name="Dcaron.smcp" unicode="&#xf675;" horiz-adv-x="386" 
d="M314 606h-66l-37 144h40l36 -105l81 105h43zM131 0h-131l121 550h87c92 0 158 -43 158 -174c0 -134 -64 -376 -235 -376zM135 63h5c99 0 153 207 153 312c0 82 -33 112 -92 112h-22l-94 -424h50z" />
    <glyph glyph-name="Dcroat.smcp" unicode="&#xf676;" horiz-adv-x="415" 
d="M157 0h-131l56 254h-59l12 52h58l54 244h87c92 0 158 -43 158 -174c0 -134 -64 -376 -235 -376zM166 63c99 0 153 207 153 312c0 82 -33 112 -92 112h-22l-40 -181h66l-12 -52h-66l-42 -191h55z" />
    <glyph glyph-name="uni1E0A.smcp" horiz-adv-x="386" 
d="M133 0h-131l121 550h87c92 0 158 -43 158 -174c0 -134 -64 -376 -235 -376zM137 63h5c99 0 153 207 153 312c0 82 -33 112 -92 112h-22l-94 -424h50zM334 656c0 -27 -24 -49 -50 -49c-23 0 -40 17 -40 40c0 26 23 49 50 49c23 0 40 -17 40 -40z" />
    <glyph glyph-name="Eacute.smcp" unicode="&#xf7e9;" horiz-adv-x="313" 
d="M387 750l-132 -144h-48l111 144h69zM221 0h-219l121 550h219l-13 -63h-148l-39 -174h142l-13 -63h-143l-41 -187h148z" />
    <glyph glyph-name="Ebreve.smcp" unicode="&#xf677;" horiz-adv-x="313" 
d="M221 0h-219l121 550h219l-13 -63h-148l-39 -174h142l-13 -63h-143l-41 -187h148zM374 663c-35 -37 -83 -61 -132 -61s-87 24 -106 61l39 28c12 -27 43 -44 74 -44c32 0 69 17 92 44z" />
    <glyph glyph-name="Ecaron.smcp" unicode="&#xf678;" horiz-adv-x="313" 
d="M281 606h-66l-37 144h40l36 -105l81 105h43zM221 0h-219l121 550h219l-13 -63h-148l-39 -174h142l-13 -63h-143l-41 -187h148z" />
    <glyph glyph-name="Ecircumflex.smcp" unicode="&#xf7ea;" horiz-adv-x="313" 
d="M345 606h-39l-38 105l-79 -105h-44l98 144h66zM221 0h-219l121 550h219l-13 -63h-148l-39 -174h142l-13 -63h-143l-41 -187h148z" />
    <glyph glyph-name="Edieresis.smcp" unicode="&#xf7eb;" horiz-adv-x="313" 
d="M370 658c0 -26 -23 -48 -49 -48c-21 0 -38 16 -38 39c0 25 23 47 49 47c21 0 38 -16 38 -38zM230 658c0 -26 -23 -48 -49 -48c-22 0 -39 16 -39 39c0 25 23 47 49 47c22 0 39 -16 39 -38zM221 0h-219l121 550h219l-13 -63h-148l-39 -174h142l-13 -63h-143l-41 -187h148z
" />
    <glyph glyph-name="Edotaccent.smcp" unicode="&#xf679;" horiz-adv-x="313" 
d="M221 0h-219l121 550h219l-13 -63h-148l-39 -174h142l-13 -63h-143l-41 -187h148zM301 656c0 -27 -24 -49 -50 -49c-23 0 -40 17 -40 40c0 26 23 49 50 49c23 0 40 -17 40 -40z" />
    <glyph glyph-name="Egrave.smcp" unicode="&#xf7e8;" horiz-adv-x="313" 
d="M221 0h-219l121 550h219l-13 -63h-148l-39 -174h142l-13 -63h-143l-41 -187h148zM282 606h-46l-68 144h67z" />
    <glyph glyph-name="Emacron.smcp" unicode="&#xf67a;" horiz-adv-x="313" 
d="M221 0h-219l121 550h219l-13 -63h-148l-39 -174h142l-13 -63h-143l-41 -187h148zM373 623h-247l9 45h248z" />
    <glyph glyph-name="Eogonek.smcp" unicode="&#xf67c;" horiz-adv-x="313" 
d="M190 -116l31 -22c-16 -29 -39 -48 -72 -48c-37 0 -62 20 -62 58c0 35 16 82 74 128h-159l121 550h219l-13 -63h-148l-39 -174h142l-13 -63h-143l-41 -187h148l-14 -63c-48 -29 -93 -69 -93 -123c0 -16 10 -26 26 -26c17 0 30 14 36 33z" />
    <glyph glyph-name="uni1EB8.smcp" horiz-adv-x="313" 
d="M221 0h-219l121 550h219l-13 -63h-148l-39 -174h142l-13 -63h-143l-41 -187h148zM127 -133c0 -27 -24 -49 -50 -49c-23 0 -40 17 -40 40c0 26 23 49 50 49c23 0 40 -17 40 -40z" />
    <glyph glyph-name="uni1EBA.smcp" horiz-adv-x="313" 
d="M221 0h-219l121 550h219l-13 -63h-148l-39 -174h142l-13 -63h-143l-41 -187h148zM227 650l-28 10c11 24 29 43 59 43c32 0 50 -18 50 -48s-17 -57 -35 -75h-37c23 20 37 44 38 69c1 14 -5 24 -18 24s-22 -9 -29 -23z" />
    <glyph glyph-name="uni1EBC.smcp" horiz-adv-x="313" 
d="M221 0h-219l121 550h219l-13 -63h-148l-39 -174h142l-13 -63h-143l-41 -187h148zM293 604c-62 0 -34 95 -71 95c-19 0 -35 -27 -48 -89h-40c17 74 44 134 95 134c62 0 34 -95 71 -95c18 0 34 27 48 89h40c-16 -74 -45 -134 -95 -134z" />
    <glyph glyph-name="uni1EBE.smcp" horiz-adv-x="313" 
d="M346 606h-39l-38 105l-79 -105h-44l98 144h66zM514 821l-132 -144h-48l111 144h69zM221 0h-219l121 550h219l-13 -63h-148l-39 -174h142l-13 -63h-143l-41 -187h148z" />
    <glyph glyph-name="uni1EC0.smcp" horiz-adv-x="313" 
d="M346 606h-39l-38 105l-79 -105h-44l98 144h66zM221 0h-219l121 550h219l-13 -63h-148l-39 -174h142l-13 -63h-143l-41 -187h148zM186 677h-46l-68 144h67z" />
    <glyph glyph-name="uni1EC2.smcp" horiz-adv-x="313" 
d="M346 606h-39l-38 105l-79 -105h-44l98 144h66zM221 0h-219l121 550h219l-13 -63h-148l-39 -174h142l-13 -63h-143l-41 -187h148zM323 787l-28 10c11 24 29 43 59 43c32 0 50 -18 50 -48s-17 -57 -35 -75h-37c23 20 37 44 38 69c1 14 -5 24 -18 24s-22 -9 -29 -23z" />
    <glyph glyph-name="uni1EC4.smcp" horiz-adv-x="313" 
d="M338 573h-39l-38 105l-79 -105h-44l98 144h66zM221 0h-219l121 550h219l-13 -63h-148l-39 -174h142l-13 -63h-143l-41 -187h148zM321 732c-62 0 -34 95 -71 95c-19 0 -35 -27 -48 -89h-40c17 74 44 134 95 134c62 0 34 -95 71 -95c18 0 34 27 48 89h40
c-16 -74 -45 -134 -95 -134z" />
    <glyph glyph-name="uni1EC6.smcp" horiz-adv-x="313" 
d="M346 606h-39l-38 105l-79 -105h-44l98 144h66zM221 0h-219l121 550h219l-13 -63h-148l-39 -174h142l-13 -63h-143l-41 -187h148zM127 -133c0 -27 -24 -49 -50 -49c-23 0 -40 17 -40 40c0 26 23 49 50 49c23 0 40 -17 40 -40z" />
    <glyph glyph-name="uni1E1E.smcp" horiz-adv-x="312" 
d="M301 656c0 -27 -24 -49 -50 -49c-23 0 -40 17 -40 40c0 26 23 49 50 49c23 0 40 -17 40 -40zM74 0h-72l121 550h219l-13 -63h-148l-39 -174h142l-13 -63h-143z" />
    <glyph glyph-name="Gbreve.smcp" unicode="&#xf67d;" horiz-adv-x="371" 
d="M160 -12c-89 0 -132 59 -132 166c0 137 71 408 220 408c72 0 109 -52 116 -118l-62 -14c-6 40 -20 69 -57 69c-92 0 -144 -249 -144 -345c0 -77 22 -103 62 -103c25 0 46 11 59 28l32 144h-71l14 60h135l-53 -241c-35 -35 -73 -54 -119 -54zM405 663
c-35 -37 -83 -61 -132 -61s-87 24 -106 61l39 28c12 -27 43 -44 74 -44c32 0 69 17 92 44z" />
    <glyph glyph-name="Gcircumflex.smcp" unicode="&#xf67e;" horiz-adv-x="371" 
d="M160 -12c-89 0 -132 59 -132 166c0 137 71 408 220 408c72 0 109 -52 116 -118l-62 -14c-6 40 -20 69 -57 69c-92 0 -144 -249 -144 -345c0 -77 22 -103 62 -103c25 0 46 11 59 28l32 144h-71l14 60h135l-53 -241c-35 -35 -73 -54 -119 -54zM377 606h-39l-38 105
l-79 -105h-44l98 144h66z" />
    <glyph glyph-name="Gcommaaccent.smcp" unicode="&#xf67f;" horiz-adv-x="371" 
d="M160 -12c-89 0 -132 59 -132 166c0 137 71 408 220 408c72 0 109 -52 116 -118l-62 -14c-6 40 -20 69 -57 69c-92 0 -144 -249 -144 -345c0 -77 22 -103 62 -103c25 0 46 11 59 28l32 144h-71l14 60h135l-53 -241c-35 -35 -73 -54 -119 -54zM161 -121
c0 -56 -47 -115 -100 -143l-25 27c34 18 66 49 75 79c-2 -1 -5 -1 -7 -1c-18 0 -34 16 -34 37c0 27 23 49 48 49c24 0 43 -17 43 -48z" />
    <glyph glyph-name="Gdotaccent.smcp" unicode="&#xf680;" horiz-adv-x="371" 
d="M160 -12c-89 0 -132 59 -132 166c0 137 71 408 220 408c72 0 109 -52 116 -118l-62 -14c-6 40 -20 69 -57 69c-92 0 -144 -249 -144 -345c0 -77 22 -103 62 -103c25 0 46 11 59 28l32 144h-71l14 60h135l-53 -241c-35 -35 -73 -54 -119 -54zM332 656
c0 -27 -24 -49 -50 -49c-23 0 -40 17 -40 40c0 26 23 49 50 49c23 0 40 -17 40 -40z" />
    <glyph glyph-name="Gbreve.smcp.alt1" horiz-adv-x="371" 
d="M154 -12c-83 0 -126 62 -126 158c0 136 70 416 221 416c70 0 107 -47 117 -114l-61 -17c-8 42 -26 68 -60 68c-97 0 -145 -276 -145 -352c0 -60 22 -96 59 -96c60 0 96 91 112 172h-88l14 59h156c-26 -143 -87 -294 -199 -294zM404 663c-35 -37 -83 -61 -132 -61
s-87 24 -106 61l39 28c12 -27 43 -44 74 -44c32 0 69 17 92 44z" />
    <glyph glyph-name="Gcommaaccent.smcp.alt1" horiz-adv-x="371" 
d="M160 -121c0 -56 -47 -115 -100 -143l-25 27c34 18 66 49 75 79c-2 -1 -5 -1 -7 -1c-18 0 -34 16 -34 37c0 27 23 49 48 49c24 0 43 -17 43 -48zM154 -12c-83 0 -126 62 -126 158c0 136 70 416 221 416c70 0 107 -47 117 -114l-61 -17c-8 42 -26 68 -60 68
c-97 0 -145 -276 -145 -352c0 -60 22 -96 59 -96c60 0 96 91 112 172h-88l14 59h156c-26 -143 -87 -294 -199 -294z" />
    <glyph glyph-name="Gcircumflex.smcp.alt1" horiz-adv-x="371" 
d="M376 606h-39l-38 105l-79 -105h-44l98 144h66zM154 -12c-83 0 -126 62 -126 158c0 136 70 416 221 416c70 0 107 -47 117 -114l-61 -17c-8 42 -26 68 -60 68c-97 0 -145 -276 -145 -352c0 -60 22 -96 59 -96c60 0 96 91 112 172h-88l14 59h156
c-26 -143 -87 -294 -199 -294z" />
    <glyph glyph-name="Gdotaccent.smcp.alt1" horiz-adv-x="371" 
d="M154 -12c-83 0 -126 62 -126 158c0 136 70 416 221 416c70 0 107 -47 117 -114l-61 -17c-8 42 -26 68 -60 68c-97 0 -145 -276 -145 -352c0 -60 22 -96 59 -96c60 0 96 91 112 172h-88l14 59h156c-26 -143 -87 -294 -199 -294zM330 656c0 -27 -24 -49 -50 -49
c-23 0 -40 17 -40 40c0 26 23 49 50 49c23 0 40 -17 40 -40z" />
    <glyph glyph-name="Hbar.smcp" unicode="&#xf682;" horiz-adv-x="410" 
d="M288 0h-71l55 252h-134l-54 -252h-72l90 411h-55l11 45h54l21 94h72l-21 -94h133l21 94h71l-21 -94h57l-10 -45h-57zM152 314h134l21 97h-133z" />
    <glyph glyph-name="Hcircumflex.smcp" unicode="&#xf681;" horiz-adv-x="389" 
d="M374 606h-39l-38 105l-79 -105h-44l98 144h66zM278 0h-71l55 252h-134l-54 -252h-72l121 550h72l-53 -236h134l52 236h71z" />
    <glyph glyph-name="uni1E22.smcp" horiz-adv-x="389" 
d="M278 0h-71l55 252h-134l-54 -252h-72l121 550h72l-53 -236h134l52 236h71zM328 656c0 -27 -24 -49 -50 -49c-23 0 -40 17 -40 40c0 26 23 49 50 49c23 0 40 -17 40 -40z" />
    <glyph glyph-name="Iacute.smcp" unicode="&#xf7ed;" horiz-adv-x="184" 
d="M313 750l-132 -144h-48l111 144h69zM74 0h-72l121 550h72z" />
    <glyph glyph-name="Ibreve.smcp" unicode="&#xf683;" horiz-adv-x="184" 
d="M74 0h-72l121 550h72zM299 663c-35 -37 -83 -61 -132 -61s-87 24 -106 61l39 28c12 -27 43 -44 74 -44c32 0 69 17 92 44z" />
    <glyph glyph-name="Igrave.smcp" unicode="&#xf7ec;" horiz-adv-x="184" 
d="M74 0h-72l121 550h72zM207 606h-46l-68 144h67z" />
    <glyph glyph-name="Icircumflex.smcp" unicode="&#xf7ee;" horiz-adv-x="184" 
d="M272 606h-39l-38 105l-79 -105h-44l98 144h66zM74 0h-72l121 550h72z" />
    <glyph glyph-name="Idieresis.smcp" unicode="&#xf7ef;" horiz-adv-x="184" 
d="M295 658c0 -26 -23 -48 -49 -48c-21 0 -38 16 -38 39c0 25 23 47 49 47c21 0 38 -16 38 -38zM155 658c0 -26 -23 -48 -49 -48c-22 0 -39 16 -39 39c0 25 23 47 49 47c22 0 39 -16 39 -38zM74 0h-72l121 550h72z" />
    <glyph glyph-name="Idotaccent.smcp" unicode="&#xf6ad;" horiz-adv-x="184" 
d="M74 0h-72l121 550h72zM226 656c0 -27 -24 -49 -50 -49c-23 0 -40 17 -40 40c0 26 23 49 50 49c23 0 40 -17 40 -40z" />
    <glyph glyph-name="Imacron.smcp" unicode="&#xf685;" horiz-adv-x="184" 
d="M299 623h-247l9 45h248zM74 0h-72l121 550h72z" />
    <glyph glyph-name="Iogonek.smcp" unicode="&#xf686;" horiz-adv-x="184" 
d="M74 0c-48 -29 -93 -69 -93 -123c0 -16 10 -26 26 -26c17 0 30 14 36 33l31 -22c-16 -29 -39 -48 -72 -48c-37 0 -62 20 -62 58c0 35 16 82 74 128h-12l121 550h72z" />
    <glyph glyph-name="Itilde.smcp" unicode="&#xf687;" horiz-adv-x="184" 
d="M74 0h-72l121 550h72zM218 604c-62 0 -34 95 -71 95c-19 0 -35 -27 -48 -89h-40c17 74 44 134 95 134c62 0 34 -95 71 -95c18 0 34 27 48 89h40c-16 -74 -45 -134 -95 -134z" />
    <glyph glyph-name="uni1EC8.smcp" horiz-adv-x="184" 
d="M74 0h-72l121 550h72zM153 650l-28 10c11 24 29 43 59 43c32 0 50 -18 50 -48s-17 -57 -35 -75h-37c23 20 37 44 38 69c1 14 -5 24 -18 24s-22 -9 -29 -23z" />
    <glyph glyph-name="uni1ECA.smcp" horiz-adv-x="184" 
d="M74 0h-72l121 550h72zM51 -133c0 -27 -24 -49 -50 -49c-23 0 -40 17 -40 40c0 26 23 49 50 49c23 0 40 -17 40 -40z" />
    <glyph glyph-name="IJ.smcp" unicode="&#xf684;" horiz-adv-x="466" 
d="M246 -12c-45 0 -84 15 -103 47l37 51c11 -21 33 -35 60 -35c39 0 60 21 71 72l96 427h71l-96 -434c-21 -94 -67 -128 -136 -128zM74 0h-72l121 550h72z" />
    <glyph glyph-name="Jcircumflex.smcp" unicode="&#xf688;" horiz-adv-x="283" 
d="M371 606h-39l-38 105l-79 -105h-44l98 144h66zM62 -12c-45 0 -84 15 -103 47l37 51c11 -21 33 -35 60 -35c39 0 60 21 71 72l96 427h71l-96 -434c-21 -94 -67 -128 -136 -128z" />
    <glyph glyph-name="Kcommaaccent.smcp" unicode="&#xf689;" horiz-adv-x="370" 
d="M164 -121c0 -56 -47 -115 -100 -143l-25 27c34 18 66 49 75 79c-2 -1 -5 -1 -7 -1c-18 0 -34 16 -34 37c0 27 23 49 48 49c24 0 43 -17 43 -48zM306 0h-81l-66 233l-49 -66l-36 -167h-72l121 550h72l-59 -267l199 267h81l-204 -261z" />
    <glyph glyph-name="Lacute.smcp" unicode="&#xf68a;" horiz-adv-x="296" 
d="M221 0h-219l121 550h72l-108 -487h148zM387 750l-132 -144h-48l111 144h69z" />
    <glyph glyph-name="Lcaron.smcp" unicode="&#xf68b;" horiz-adv-x="303" 
d="M320 512c0 -56 -47 -115 -100 -143l-25 27c34 18 66 49 75 79c-2 -1 -5 -1 -7 -1c-18 0 -34 16 -34 37c0 27 23 49 48 49c24 0 43 -17 43 -48zM221 0h-219l121 550h72l-108 -487h148z" />
    <glyph glyph-name="Lcommaaccent.smcp" unicode="&#xf68c;" horiz-adv-x="296" 
d="M132 -121c0 -56 -47 -115 -100 -143l-25 27c34 18 66 49 75 79c-2 -1 -5 -1 -7 -1c-18 0 -34 16 -34 37c0 27 23 49 48 49c24 0 43 -17 43 -48zM221 0h-219l121 550h72l-108 -487h148z" />
    <glyph glyph-name="Ldot.smcp" unicode="&#xf68d;" horiz-adv-x="348" 
d="M221 0h-219l121 550h72l-108 -487h148zM272 241c-26 0 -47 21 -47 47c0 31 26 56 57 56c26 0 47 -21 47 -47c0 -32 -25 -56 -57 -56z" />
    <glyph glyph-name="Lslash.smcp" unicode="&#xf6f9;" horiz-adv-x="313" 
d="M10 192l14 67l60 30l57 261h72l-49 -219l70 36l-14 -67l-71 -36l-44 -201h148l-14 -63h-219l49 222z" />
    <glyph glyph-name="Nacute.smcp" unicode="&#xf68e;" horiz-adv-x="385" 
d="M414 750l-132 -144h-48l111 144h69zM275 0h-72l-46 379l-83 -379h-72l121 550h76l45 -369l81 369h71z" />
    <glyph glyph-name="Ncaron.smcp" unicode="&#xf68f;" horiz-adv-x="385" 
d="M307 606h-66l-37 144h40l36 -105l81 105h43zM275 0h-72l-46 379l-83 -379h-72l121 550h76l45 -369l81 369h71z" />
    <glyph glyph-name="Ncommaaccent.smcp" unicode="&#xf690;" horiz-adv-x="385" 
d="M160 -121c0 -56 -47 -115 -100 -143l-25 27c34 18 66 49 75 79c-2 -1 -5 -1 -7 -1c-18 0 -34 16 -34 37c0 27 23 49 48 49c24 0 43 -17 43 -48zM275 0h-72l-46 379l-83 -379h-72l121 550h76l45 -369l81 369h71z" />
    <glyph glyph-name="Ntilde.smcp" unicode="&#xf7f1;" horiz-adv-x="385" 
d="M275 0h-72l-46 379l-83 -379h-72l121 550h76l45 -369l81 369h71zM319 604c-62 0 -34 95 -71 95c-19 0 -35 -27 -48 -89h-40c17 74 44 134 95 134c62 0 34 -95 71 -95c18 0 34 27 48 89h40c-16 -74 -45 -134 -95 -134z" />
    <glyph glyph-name="Eng.smcp" unicode="&#xf67b;" horiz-adv-x="385" 
d="M125 -196c-42 0 -84 15 -103 47l36 45c12 -24 36 -35 60 -35c39 0 60 22 71 73l14 65l-46 380l-83 -379h-72l121 550h76l45 -369l81 369h71l-136 -618c-20 -92 -63 -128 -135 -128z" />
    <glyph glyph-name="Oacute.smcp" unicode="&#xf7f3;" horiz-adv-x="393" 
d="M156 -12c-79 0 -128 55 -128 165c0 95 52 409 222 409c78 0 127 -55 127 -165c0 -95 -53 -409 -221 -409zM159 51c103 0 145 284 145 347c0 68 -17 101 -57 101c-104 0 -146 -284 -146 -347c0 -68 17 -101 58 -101zM417 750l-132 -144h-48l111 144h69z" />
    <glyph glyph-name="Obreve.smcp" unicode="&#xf691;" horiz-adv-x="393" 
d="M156 -12c-79 0 -128 55 -128 165c0 95 52 409 222 409c78 0 127 -55 127 -165c0 -95 -53 -409 -221 -409zM159 51c103 0 145 284 145 347c0 68 -17 101 -57 101c-104 0 -146 -284 -146 -347c0 -68 17 -101 58 -101zM404 663c-35 -37 -83 -61 -132 -61s-87 24 -106 61
l39 28c12 -27 43 -44 74 -44c32 0 69 17 92 44z" />
    <glyph glyph-name="Ocircumflex.smcp" unicode="&#xf7f4;" horiz-adv-x="393" 
d="M156 -12c-79 0 -128 55 -128 165c0 95 52 409 222 409c78 0 127 -55 127 -165c0 -95 -53 -409 -221 -409zM159 51c103 0 145 284 145 347c0 68 -17 101 -57 101c-104 0 -146 -284 -146 -347c0 -68 17 -101 58 -101zM377 606h-39l-38 105l-79 -105h-44l98 144h66z" />
    <glyph glyph-name="Odieresis.smcp" unicode="&#xf7f6;" horiz-adv-x="393" 
d="M156 -12c-79 0 -128 55 -128 165c0 95 52 409 222 409c78 0 127 -55 127 -165c0 -95 -53 -409 -221 -409zM159 51c103 0 145 284 145 347c0 68 -17 101 -57 101c-104 0 -146 -284 -146 -347c0 -68 17 -101 58 -101zM400 658c0 -26 -23 -48 -49 -48c-21 0 -38 16 -38 39
c0 25 23 47 49 47c21 0 38 -16 38 -38zM260 658c0 -26 -23 -48 -49 -48c-22 0 -39 16 -39 39c0 25 23 47 49 47c22 0 39 -16 39 -38z" />
    <glyph glyph-name="Ograve.smcp" unicode="&#xf7f2;" horiz-adv-x="393" 
d="M156 -12c-79 0 -128 55 -128 165c0 95 52 409 222 409c78 0 127 -55 127 -165c0 -95 -53 -409 -221 -409zM159 51c103 0 145 284 145 347c0 68 -17 101 -57 101c-104 0 -146 -284 -146 -347c0 -68 17 -101 58 -101zM313 606h-46l-68 144h67z" />
    <glyph glyph-name="Ohungarumlaut.smcp" unicode="&#xf692;" horiz-adv-x="393" 
d="M156 -12c-79 0 -128 55 -128 165c0 95 52 409 222 409c78 0 127 -55 127 -165c0 -95 -53 -409 -221 -409zM159 51c103 0 145 284 145 347c0 68 -17 101 -57 101c-104 0 -146 -284 -146 -347c0 -68 17 -101 58 -101zM339 750l-109 -144h-40l88 144h61zM456 750l-110 -144
h-40l88 144h62z" />
    <glyph glyph-name="Omacron.smcp" unicode="&#xf693;" horiz-adv-x="393" 
d="M156 -12c-79 0 -128 55 -128 165c0 95 52 409 222 409c78 0 127 -55 127 -165c0 -95 -53 -409 -221 -409zM159 51c103 0 145 284 145 347c0 68 -17 101 -57 101c-104 0 -146 -284 -146 -347c0 -68 17 -101 58 -101zM405 623h-247l9 45h248z" />
    <glyph glyph-name="Otilde.smcp" unicode="&#xf7f5;" horiz-adv-x="393" 
d="M156 -12c-79 0 -128 55 -128 165c0 95 52 409 222 409c78 0 127 -55 127 -165c0 -95 -53 -409 -221 -409zM159 51c103 0 145 284 145 347c0 68 -17 101 -57 101c-104 0 -146 -284 -146 -347c0 -68 17 -101 58 -101zM324 604c-62 0 -34 95 -71 95c-19 0 -35 -27 -48 -89
h-40c17 74 44 134 95 134c62 0 34 -95 71 -95c18 0 34 27 48 89h40c-16 -74 -45 -134 -95 -134z" />
    <glyph glyph-name="Oslash.smcp" unicode="&#xf7f8;" horiz-adv-x="393" 
d="M156 -12c-41 0 -74 14 -96 43l-21 -31h-48l48 71c-8 22 -11 50 -11 82c0 95 52 409 222 409c40 0 73 -15 95 -45l23 33h50l-52 -75c7 -22 11 -48 11 -78c0 -95 -53 -409 -221 -409zM247 499c-100 0 -143 -261 -146 -338l198 289c-8 33 -24 49 -52 49zM159 51
c97 0 140 251 144 333l-197 -286c8 -32 25 -47 53 -47z" />
    <glyph glyph-name="Oslashacute.smcp" unicode="&#xf694;" horiz-adv-x="393" 
d="M156 -12c-41 0 -74 14 -96 43l-21 -31h-48l48 71c-8 22 -11 50 -11 82c0 95 52 409 222 409c40 0 73 -15 95 -45l23 33h50l-52 -75c7 -22 11 -48 11 -78c0 -95 -53 -409 -221 -409zM247 499c-100 0 -143 -261 -146 -338l198 289c-8 33 -24 49 -52 49zM159 51
c97 0 140 251 144 333l-197 -286c8 -32 25 -47 53 -47zM417 750l-132 -144h-48l111 144h69z" />
    <glyph glyph-name="uni1ECC.smcp" horiz-adv-x="393" 
d="M156 -12c-79 0 -128 55 -128 165c0 95 52 409 222 409c78 0 127 -55 127 -165c0 -95 -53 -409 -221 -409zM159 51c103 0 145 284 145 347c0 68 -17 101 -57 101c-104 0 -146 -284 -146 -347c0 -68 17 -101 58 -101zM157 -133c0 -27 -24 -49 -50 -49c-23 0 -40 17 -40 40
c0 26 23 49 50 49c23 0 40 -17 40 -40z" />
    <glyph glyph-name="uni1ECE.smcp" horiz-adv-x="393" 
d="M156 -12c-79 0 -128 55 -128 165c0 95 52 409 222 409c78 0 127 -55 127 -165c0 -95 -53 -409 -221 -409zM159 51c103 0 145 284 145 347c0 68 -17 101 -57 101c-104 0 -146 -284 -146 -347c0 -68 17 -101 58 -101zM258 650l-28 10c11 24 29 43 59 43c32 0 50 -18 50 -48
s-17 -57 -35 -75h-37c23 20 37 44 38 69c1 14 -5 24 -18 24s-22 -9 -29 -23z" />
    <glyph glyph-name="uni1ED0.smcp" horiz-adv-x="393" 
d="M156 -12c-79 0 -128 55 -128 165c0 95 52 409 222 409c78 0 127 -55 127 -165c0 -95 -53 -409 -221 -409zM159 51c103 0 145 284 145 347c0 68 -17 101 -57 101c-104 0 -146 -284 -146 -347c0 -68 17 -101 58 -101zM375 606h-39l-38 105l-79 -105h-44l98 144h66zM543 821
l-132 -144h-48l111 144h69z" />
    <glyph glyph-name="uni1ED2.smcp" horiz-adv-x="393" 
d="M156 -12c-79 0 -128 55 -128 165c0 95 52 409 222 409c78 0 127 -55 127 -165c0 -95 -53 -409 -221 -409zM159 51c103 0 145 284 145 347c0 68 -17 101 -57 101c-104 0 -146 -284 -146 -347c0 -68 17 -101 58 -101zM375 606h-39l-38 105l-79 -105h-44l98 144h66zM215 677
h-46l-68 144h67z" />
    <glyph glyph-name="uni1ED4.smcp" horiz-adv-x="393" 
d="M156 -12c-79 0 -128 55 -128 165c0 95 52 409 222 409c78 0 127 -55 127 -165c0 -95 -53 -409 -221 -409zM159 51c103 0 145 284 145 347c0 68 -17 101 -57 101c-104 0 -146 -284 -146 -347c0 -68 17 -101 58 -101zM375 606h-39l-38 105l-79 -105h-44l98 144h66zM352 787
l-28 10c11 24 29 43 59 43c32 0 50 -18 50 -48s-17 -57 -35 -75h-37c23 20 37 44 38 69c1 14 -5 24 -18 24s-22 -9 -29 -23z" />
    <glyph glyph-name="uni1ED6.smcp" horiz-adv-x="393" 
d="M156 -12c-79 0 -128 55 -128 165c0 95 52 409 222 409c78 0 127 -55 127 -165c0 -95 -53 -409 -221 -409zM159 51c103 0 145 284 145 347c0 68 -17 101 -57 101c-104 0 -146 -284 -146 -347c0 -68 17 -101 58 -101zM367 573h-39l-38 105l-79 -105h-44l98 144h66zM351 732
c-62 0 -34 95 -71 95c-19 0 -35 -27 -48 -89h-40c17 74 44 134 95 134c62 0 34 -95 71 -95c18 0 34 27 48 89h40c-16 -74 -45 -134 -95 -134z" />
    <glyph glyph-name="uni1ED8.smcp" horiz-adv-x="393" 
d="M156 -12c-79 0 -128 55 -128 165c0 95 52 409 222 409c78 0 127 -55 127 -165c0 -95 -53 -409 -221 -409zM159 51c103 0 145 284 145 347c0 68 -17 101 -57 101c-104 0 -146 -284 -146 -347c0 -68 17 -101 58 -101zM377 606h-39l-38 105l-79 -105h-44l98 144h66z
M157 -133c0 -27 -24 -49 -50 -49c-23 0 -40 17 -40 40c0 26 23 49 50 49c23 0 40 -17 40 -40z" />
    <glyph glyph-name="Ohorn.smcp" horiz-adv-x="393" 
d="M156 -12c-79 0 -128 55 -128 165c0 95 52 409 222 409c55 0 96 -28 115 -83c20 17 37 38 43 58h-7c-17 0 -32 14 -32 34c0 26 21 47 45 47c23 0 41 -16 41 -47c0 -48 -37 -99 -81 -128c2 -14 3 -30 3 -46c0 -95 -53 -409 -221 -409zM159 51c103 0 145 284 145 347
c0 68 -17 101 -57 101c-104 0 -146 -284 -146 -347c0 -68 17 -101 58 -101z" />
    <glyph glyph-name="uni1EDA.smcp" horiz-adv-x="393" 
d="M156 -12c-79 0 -128 55 -128 165c0 95 52 409 222 409c55 0 96 -28 115 -83c20 17 37 38 43 58h-7c-17 0 -32 14 -32 34c0 26 21 47 45 47c23 0 41 -16 41 -47c0 -48 -37 -99 -81 -128c2 -14 3 -30 3 -46c0 -95 -53 -409 -221 -409zM159 51c103 0 145 284 145 347
c0 68 -17 101 -57 101c-104 0 -146 -284 -146 -347c0 -68 17 -101 58 -101zM417 750l-132 -144h-48l111 144h69z" />
    <glyph glyph-name="uni1EDC.smcp" horiz-adv-x="393" 
d="M156 -12c-79 0 -128 55 -128 165c0 95 52 409 222 409c55 0 96 -28 115 -83c20 17 37 38 43 58h-7c-17 0 -32 14 -32 34c0 26 21 47 45 47c23 0 41 -16 41 -47c0 -48 -37 -99 -81 -128c2 -14 3 -30 3 -46c0 -95 -53 -409 -221 -409zM159 51c103 0 145 284 145 347
c0 68 -17 101 -57 101c-104 0 -146 -284 -146 -347c0 -68 17 -101 58 -101zM313 606h-46l-68 144h67z" />
    <glyph glyph-name="uni1EDE.smcp" horiz-adv-x="393" 
d="M156 -12c-79 0 -128 55 -128 165c0 95 52 409 222 409c55 0 96 -28 115 -83c20 17 37 38 43 58h-7c-17 0 -32 14 -32 34c0 26 21 47 45 47c23 0 41 -16 41 -47c0 -48 -37 -99 -81 -128c2 -14 3 -30 3 -46c0 -95 -53 -409 -221 -409zM159 51c103 0 145 284 145 347
c0 68 -17 101 -57 101c-104 0 -146 -284 -146 -347c0 -68 17 -101 58 -101zM258 650l-28 10c11 24 29 43 59 43c32 0 50 -18 50 -48s-17 -57 -35 -75h-37c23 20 37 44 38 69c1 14 -5 24 -18 24s-22 -9 -29 -23z" />
    <glyph glyph-name="uni1EE0.smcp" horiz-adv-x="393" 
d="M156 -12c-79 0 -128 55 -128 165c0 95 52 409 222 409c55 0 96 -28 115 -83c20 17 37 38 43 58h-7c-17 0 -32 14 -32 34c0 26 21 47 45 47c23 0 41 -16 41 -47c0 -48 -37 -99 -81 -128c2 -14 3 -30 3 -46c0 -95 -53 -409 -221 -409zM159 51c103 0 145 284 145 347
c0 68 -17 101 -57 101c-104 0 -146 -284 -146 -347c0 -68 17 -101 58 -101zM324 604c-62 0 -34 95 -71 95c-19 0 -35 -27 -48 -89h-40c17 74 44 134 95 134c62 0 34 -95 71 -95c18 0 34 27 48 89h40c-16 -74 -45 -134 -95 -134z" />
    <glyph glyph-name="uni1EE2.smcp" horiz-adv-x="393" 
d="M156 -12c-79 0 -128 55 -128 165c0 95 52 409 222 409c55 0 96 -28 115 -83c20 17 37 38 43 58h-7c-17 0 -32 14 -32 34c0 26 21 47 45 47c23 0 41 -16 41 -47c0 -48 -37 -99 -81 -128c2 -14 3 -30 3 -46c0 -95 -53 -409 -221 -409zM159 51c103 0 145 284 145 347
c0 68 -17 101 -57 101c-104 0 -146 -284 -146 -347c0 -68 17 -101 58 -101zM157 -133c0 -27 -24 -49 -50 -49c-23 0 -40 17 -40 40c0 26 23 49 50 49c23 0 40 -17 40 -40z" />
    <glyph glyph-name="OE.smcp" unicode="&#xf6fa;" horiz-adv-x="527" 
d="M436 0h-219l10 46c-26 -44 -62 -58 -89 -58c-74 0 -110 65 -110 159c0 124 60 415 215 415c38 0 73 -23 82 -73l13 61h219l-13 -63h-149l-38 -174h142l-14 -63h-142l-41 -187h148zM251 155l53 241c0 65 -16 103 -57 103c-100 0 -146 -268 -146 -347
c0 -64 15 -101 58 -101c40 0 66 41 92 104z" />
    <glyph glyph-name="uni1E56.smcp" horiz-adv-x="333" 
d="M74 0h-72l121 550h97c76 0 126 -45 126 -127c0 -94 -56 -206 -169 -206h-56zM135 280h45c59 0 91 77 91 136c0 48 -23 71 -64 71h-26zM317 656c0 -27 -24 -49 -50 -49c-23 0 -40 17 -40 40c0 26 23 49 50 49c23 0 40 -17 40 -40z" />
    <glyph glyph-name="Racute.smcp" unicode="&#xf695;" horiz-adv-x="350" 
d="M404 750l-132 -144h-48l111 144h69zM263 0h-77l-23 217h-42l-47 -217h-72l121 550h100c76 0 124 -49 124 -128c0 -90 -52 -176 -117 -196zM169 280h12c60 0 91 82 91 135c0 49 -25 72 -59 72h-32l-46 -207h34z" />
    <glyph glyph-name="Rcaron.smcp" unicode="&#xf696;" horiz-adv-x="350" 
d="M298 606h-66l-37 144h40l36 -105l81 105h43zM263 0h-77l-23 217h-42l-47 -217h-72l121 550h100c76 0 124 -49 124 -128c0 -90 -52 -176 -117 -196zM169 280h12c60 0 91 82 91 135c0 49 -25 72 -59 72h-32l-46 -207h34z" />
    <glyph glyph-name="Rcommaaccent.smcp" unicode="&#xf697;" horiz-adv-x="350" 
d="M145 -121c0 -56 -47 -115 -100 -143l-25 27c34 18 66 49 75 79c-2 -1 -5 -1 -7 -1c-18 0 -34 16 -34 37c0 27 23 49 48 49c24 0 43 -17 43 -48zM263 0h-77l-23 217h-42l-47 -217h-72l121 550h100c76 0 124 -49 124 -128c0 -90 -52 -176 -117 -196zM169 280h12
c60 0 91 82 91 135c0 49 -25 72 -59 72h-32l-46 -207h34z" />
    <glyph glyph-name="Sacute.smcp" unicode="&#xf698;" horiz-adv-x="309" 
d="M377 750l-132 -144h-48l111 144h69zM109 -12c-54 0 -100 19 -130 63l44 50c19 -31 49 -50 83 -50c45 0 80 46 80 104c0 92 -114 126 -114 241c0 93 67 166 149 166c44 0 84 -16 111 -50l-42 -51c-17 26 -41 38 -69 38c-39 0 -74 -43 -74 -92c0 -85 116 -119 116 -251
c0 -83 -66 -168 -154 -168z" />
    <glyph glyph-name="Scaron.smcp" unicode="&#xf6fd;" horiz-adv-x="309" 
d="M272 606h-66l-37 144h40l36 -105l81 105h43zM109 -12c-54 0 -100 19 -130 63l44 50c19 -31 49 -50 83 -50c45 0 80 46 80 104c0 92 -114 126 -114 241c0 93 67 166 149 166c44 0 84 -16 111 -50l-42 -51c-17 26 -41 38 -69 38c-39 0 -74 -43 -74 -92
c0 -85 116 -119 116 -251c0 -83 -66 -168 -154 -168z" />
    <glyph glyph-name="Scircumflex.smcp" unicode="&#xf69a;" horiz-adv-x="309" 
d="M337 606h-39l-38 105l-79 -105h-44l98 144h66zM109 -12c-54 0 -100 19 -130 63l44 50c19 -31 49 -50 83 -50c45 0 80 46 80 104c0 92 -114 126 -114 241c0 93 67 166 149 166c44 0 84 -16 111 -50l-42 -51c-17 26 -41 38 -69 38c-39 0 -74 -43 -74 -92
c0 -85 116 -119 116 -251c0 -83 -66 -168 -154 -168z" />
    <glyph glyph-name="Scedilla.smcp" unicode="&#xf699;" horiz-adv-x="309" 
d="M64 -191c-34 0 -61 12 -82 37l24 33c15 -21 35 -32 59 -32c30 0 50 24 50 50c0 16 -9 27 -25 27c-11 0 -20 -5 -28 -14l-27 17l38 64c-39 7 -71 26 -94 60l44 50c19 -31 49 -50 83 -50c45 0 80 46 80 104c0 92 -114 126 -114 241c0 93 67 166 149 166
c44 0 84 -16 111 -50l-42 -51c-17 26 -41 38 -69 38c-39 0 -74 -43 -74 -92c0 -85 116 -119 116 -251c0 -82 -64 -165 -150 -168l-27 -44c7 7 16 10 24 10c29 0 48 -23 48 -55c0 -50 -42 -90 -94 -90z" />
    <glyph glyph-name="Scommaaccent.smcp" unicode="&#xf69b;" horiz-adv-x="309" 
d="M121 -121c0 -56 -47 -115 -100 -143l-25 27c34 18 66 49 75 79c-2 -1 -5 -1 -7 -1c-18 0 -34 16 -34 37c0 27 23 49 48 49c24 0 43 -17 43 -48zM109 -12c-54 0 -100 19 -130 63l44 50c19 -31 49 -50 83 -50c45 0 80 46 80 104c0 92 -114 126 -114 241
c0 93 67 166 149 166c44 0 84 -16 111 -50l-42 -51c-17 26 -41 38 -69 38c-39 0 -74 -43 -74 -92c0 -85 116 -119 116 -251c0 -83 -66 -168 -154 -168z" />
    <glyph glyph-name="uni1E60.smcp" horiz-adv-x="309" 
d="M109 -12c-54 0 -100 19 -130 63l44 50c19 -31 49 -50 83 -50c45 0 80 46 80 104c0 92 -114 126 -114 241c0 93 67 166 149 166c44 0 84 -16 111 -50l-42 -51c-17 26 -41 38 -69 38c-39 0 -74 -43 -74 -92c0 -85 116 -119 116 -251c0 -83 -66 -168 -154 -168zM292 656
c0 -27 -24 -49 -50 -49c-23 0 -40 17 -40 40c0 26 23 49 50 49c23 0 40 -17 40 -40z" />
    <glyph glyph-name="Tbar.smcp" unicode="&#xf69c;" horiz-adv-x="272" 
d="M118 0h-72l54 245h-54l11 45h53l43 197h-85l14 63h242l-14 -63h-85l-43 -197h51l-11 -45h-50z" />
    <glyph glyph-name="Tcaron.smcp" unicode="&#xf69d;" horiz-adv-x="272" 
d="M249 606h-66l-37 144h40l36 -105l81 105h43zM118 0h-72l107 487h-85l14 63h242l-14 -63h-85z" />
    <glyph glyph-name="Tcommaaccent.smcp" unicode="&#xf69e;" horiz-adv-x="272" 
d="M101 -121c0 -56 -47 -115 -100 -143l-25 27c34 18 66 49 75 79c-2 -1 -5 -1 -7 -1c-18 0 -34 16 -34 37c0 27 23 49 48 49c24 0 43 -17 43 -48zM118 0h-72l107 487h-85l14 63h242l-14 -63h-85z" />
    <glyph glyph-name="uni021A.smcp" horiz-adv-x="272" 
d="M101 -121c0 -56 -47 -115 -100 -143l-25 27c34 18 66 49 75 79c-2 -1 -5 -1 -7 -1c-18 0 -34 16 -34 37c0 27 23 49 48 49c24 0 43 -17 43 -48zM118 0h-72l107 487h-85l14 63h242l-14 -63h-85z" />
    <glyph glyph-name="uni1E6A.smcp" horiz-adv-x="272" 
d="M118 0h-72l107 487h-85l14 63h242l-14 -63h-85zM271 656c0 -27 -24 -49 -50 -49c-23 0 -40 17 -40 40c0 26 23 49 50 49c23 0 40 -17 40 -40z" />
    <glyph glyph-name="Uacute.smcp" unicode="&#xf7fa;" horiz-adv-x="389" 
d="M414 750l-132 -144h-48l111 144h69zM158 -12c-86 0 -128 42 -128 110c0 25 4 49 8 65l85 387h72l-89 -400c-3 -13 -5 -29 -5 -36c0 -49 25 -63 60 -63c42 0 64 34 80 104l87 395h72l-86 -384c-25 -111 -65 -178 -156 -178z" />
    <glyph glyph-name="Ubreve.smcp" unicode="&#xf69f;" horiz-adv-x="389" 
d="M158 -12c-86 0 -128 42 -128 110c0 25 4 49 8 65l85 387h72l-89 -400c-3 -13 -5 -29 -5 -36c0 -49 25 -63 60 -63c42 0 64 34 80 104l87 395h72l-86 -384c-25 -111 -65 -178 -156 -178zM400 663c-35 -37 -83 -61 -132 -61s-87 24 -106 61l39 28c12 -27 43 -44 74 -44
c32 0 69 17 92 44z" />
    <glyph glyph-name="Ucircumflex.smcp" unicode="&#xf7fb;" horiz-adv-x="389" 
d="M373 606h-39l-38 105l-79 -105h-44l98 144h66zM158 -12c-86 0 -128 42 -128 110c0 25 4 49 8 65l85 387h72l-89 -400c-3 -13 -5 -29 -5 -36c0 -49 25 -63 60 -63c42 0 64 34 80 104l87 395h72l-86 -384c-25 -111 -65 -178 -156 -178z" />
    <glyph glyph-name="Udieresis.smcp" unicode="&#xf7fc;" horiz-adv-x="389" 
d="M397 658c0 -26 -23 -48 -49 -48c-21 0 -38 16 -38 39c0 25 23 47 49 47c21 0 38 -16 38 -38zM257 658c0 -26 -23 -48 -49 -48c-22 0 -39 16 -39 39c0 25 23 47 49 47c22 0 39 -16 39 -38zM158 -12c-86 0 -128 42 -128 110c0 25 4 49 8 65l85 387h72l-89 -400
c-3 -13 -5 -29 -5 -36c0 -49 25 -63 60 -63c42 0 64 34 80 104l87 395h72l-86 -384c-25 -111 -65 -178 -156 -178z" />
    <glyph glyph-name="Ugrave.smcp" unicode="&#xf7f9;" horiz-adv-x="389" 
d="M158 -12c-86 0 -128 42 -128 110c0 25 4 49 8 65l85 387h72l-89 -400c-3 -13 -5 -29 -5 -36c0 -49 25 -63 60 -63c42 0 64 34 80 104l87 395h72l-86 -384c-25 -111 -65 -178 -156 -178zM309 606h-46l-68 144h67z" />
    <glyph glyph-name="Uhungarumlaut.smcp" unicode="&#xf6a0;" horiz-adv-x="389" 
d="M158 -12c-86 0 -128 42 -128 110c0 25 4 49 8 65l85 387h72l-89 -400c-3 -13 -5 -29 -5 -36c0 -49 25 -63 60 -63c42 0 64 34 80 104l87 395h72l-86 -384c-25 -111 -65 -178 -156 -178zM335 750l-109 -144h-40l88 144h61zM452 750l-110 -144h-40l88 144h62z" />
    <glyph glyph-name="Umacron.smcp" unicode="&#xf6a1;" horiz-adv-x="389" 
d="M158 -12c-86 0 -128 42 -128 110c0 25 4 49 8 65l85 387h72l-89 -400c-3 -13 -5 -29 -5 -36c0 -49 25 -63 60 -63c42 0 64 34 80 104l87 395h72l-86 -384c-25 -111 -65 -178 -156 -178zM401 623h-247l9 45h248z" />
    <glyph glyph-name="Uogonek.smcp" unicode="&#xf6a2;" horiz-adv-x="389" 
d="M187 -116l31 -22c-16 -29 -39 -48 -72 -48c-37 0 -62 20 -62 58c0 32 13 74 60 117c-77 4 -114 45 -114 109c0 25 4 49 8 65l85 387h72l-89 -400c-3 -13 -5 -29 -5 -36c0 -49 25 -63 60 -63c42 0 64 34 80 104l87 395h72l-86 -384c-19 -83 -46 -142 -96 -166
c-48 -29 -93 -69 -93 -123c0 -16 10 -26 26 -26c17 0 30 14 36 33z" />
    <glyph glyph-name="Uring.smcp" unicode="&#xf6a3;" horiz-adv-x="389" 
d="M158 -12c-86 0 -128 42 -128 110c0 25 4 49 8 65l85 387h72l-89 -400c-3 -13 -5 -29 -5 -36c0 -49 25 -63 60 -63c42 0 64 34 80 104l87 395h72l-86 -384c-25 -111 -65 -178 -156 -178zM277 575c-44 0 -74 32 -74 76c0 49 43 92 92 92c43 0 74 -32 74 -76
c0 -49 -43 -92 -92 -92zM279 611c29 0 54 24 54 53c0 24 -17 43 -40 43c-29 0 -54 -24 -54 -53c0 -24 16 -43 40 -43z" />
    <glyph glyph-name="Utilde.smcp" unicode="&#xf6a4;" horiz-adv-x="389" 
d="M158 -12c-86 0 -128 42 -128 110c0 25 4 49 8 65l85 387h72l-89 -400c-3 -13 -5 -29 -5 -36c0 -49 25 -63 60 -63c42 0 64 34 80 104l87 395h72l-86 -384c-25 -111 -65 -178 -156 -178zM320 604c-62 0 -34 95 -71 95c-19 0 -35 -27 -48 -89h-40c17 74 44 134 95 134
c62 0 34 -95 71 -95c18 0 34 27 48 89h40c-16 -74 -45 -134 -95 -134z" />
    <glyph glyph-name="uni1EE4.smcp" horiz-adv-x="389" 
d="M158 -12c-86 0 -128 42 -128 110c0 25 4 49 8 65l85 387h72l-89 -400c-3 -13 -5 -29 -5 -36c0 -49 25 -63 60 -63c42 0 64 34 80 104l87 395h72l-86 -384c-25 -111 -65 -178 -156 -178zM153 -133c0 -27 -24 -49 -50 -49c-23 0 -40 17 -40 40c0 26 23 49 50 49
c23 0 40 -17 40 -40z" />
    <glyph glyph-name="Uhorn.smcp" horiz-adv-x="389" 
d="M158 -12c-86 0 -128 42 -128 110c0 20 3 44 8 65l85 387h72l-87 -390c-4 -19 -7 -39 -7 -46c0 -49 25 -63 60 -63c42 0 64 34 80 104l87 395h72l-5 -19c17 15 30 33 36 50h-7c-18 0 -33 15 -33 35c0 25 22 46 46 46c22 0 41 -16 41 -46c0 -49 -42 -105 -94 -135l-70 -315
c-25 -111 -65 -178 -156 -178z" />
    <glyph glyph-name="uni1EE6.smcp" horiz-adv-x="389" 
d="M158 -12c-86 0 -128 42 -128 110c0 25 4 49 8 65l85 387h72l-89 -400c-3 -13 -5 -29 -5 -36c0 -49 25 -63 60 -63c42 0 64 34 80 104l87 395h72l-86 -384c-25 -111 -65 -178 -156 -178zM254 650l-28 10c11 24 29 43 59 43c32 0 50 -18 50 -48s-17 -57 -35 -75h-37
c23 20 37 44 38 69c1 14 -5 24 -18 24s-22 -9 -29 -23z" />
    <glyph glyph-name="uni1EE8.smcp" horiz-adv-x="389" 
d="M414 750l-132 -144h-48l111 144h69zM158 -12c-86 0 -128 42 -128 110c0 20 3 44 8 65l85 387h72l-87 -390c-4 -19 -7 -39 -7 -46c0 -49 25 -63 60 -63c42 0 64 34 80 104l87 395h72l-5 -19c17 15 30 33 36 50h-7c-18 0 -33 15 -33 35c0 25 22 46 46 46
c22 0 41 -16 41 -46c0 -49 -42 -105 -94 -135l-70 -315c-25 -111 -65 -178 -156 -178z" />
    <glyph glyph-name="uni1EEA.smcp" horiz-adv-x="389" 
d="M309 606h-46l-68 144h67zM158 -12c-86 0 -128 42 -128 110c0 20 3 44 8 65l85 387h72l-87 -390c-4 -19 -7 -39 -7 -46c0 -49 25 -63 60 -63c42 0 64 34 80 104l87 395h72l-5 -19c17 15 30 33 36 50h-7c-18 0 -33 15 -33 35c0 25 22 46 46 46c22 0 41 -16 41 -46
c0 -49 -42 -105 -94 -135l-70 -315c-25 -111 -65 -178 -156 -178z" />
    <glyph glyph-name="uni1EEC.smcp" horiz-adv-x="389" 
d="M255 650l-28 10c11 24 29 43 59 43c32 0 50 -18 50 -48s-17 -57 -35 -75h-37c23 20 37 44 38 69c1 14 -5 24 -18 24s-22 -9 -29 -23zM158 -12c-86 0 -128 42 -128 110c0 20 3 44 8 65l85 387h72l-87 -390c-4 -19 -7 -39 -7 -46c0 -49 25 -63 60 -63c42 0 64 34 80 104
l87 395h72l-5 -19c17 15 30 33 36 50h-7c-18 0 -33 15 -33 35c0 25 22 46 46 46c22 0 41 -16 41 -46c0 -49 -42 -105 -94 -135l-70 -315c-25 -111 -65 -178 -156 -178z" />
    <glyph glyph-name="uni1EEE.smcp" horiz-adv-x="389" 
d="M158 -12c-86 0 -128 42 -128 110c0 20 3 44 8 65l85 387h72l-87 -390c-4 -19 -7 -39 -7 -46c0 -49 25 -63 60 -63c42 0 64 34 80 104l87 395h72l-5 -19c17 15 30 33 36 50h-7c-18 0 -33 15 -33 35c0 25 22 46 46 46c22 0 41 -16 41 -46c0 -49 -42 -105 -94 -135l-70 -315
c-25 -111 -65 -178 -156 -178zM311 604c-62 0 -34 95 -71 95c-19 0 -35 -27 -48 -89h-40c17 74 44 134 95 134c62 0 34 -95 71 -95c18 0 34 27 48 89h40c-16 -74 -45 -134 -95 -134z" />
    <glyph glyph-name="uni1EF0.smcp" horiz-adv-x="389" 
d="M153 -133c0 -27 -24 -49 -50 -49c-23 0 -40 17 -40 40c0 26 23 49 50 49c23 0 40 -17 40 -40zM158 -12c-86 0 -128 42 -128 110c0 20 3 44 8 65l85 387h72l-87 -390c-4 -19 -7 -39 -7 -46c0 -49 25 -63 60 -63c42 0 64 34 80 104l87 395h72l-5 -19c17 15 30 33 36 50h-7
c-18 0 -33 15 -33 35c0 25 22 46 46 46c22 0 41 -16 41 -46c0 -49 -42 -105 -94 -135l-70 -315c-25 -111 -65 -178 -156 -178z" />
    <glyph glyph-name="Wacute.smcp" horiz-adv-x="480" 
d="M322 0h-74l27 404l-151 -404h-74l25 550h73l-29 -415l158 415h60l-25 -415l154 415h74zM459 750l-132 -144h-48l111 144h69z" />
    <glyph glyph-name="Wcircumflex.smcp" unicode="&#xf6a6;" horiz-adv-x="480" 
d="M419 606h-39l-38 105l-79 -105h-44l98 144h66zM322 0h-74l27 404l-151 -404h-74l25 550h73l-29 -415l158 415h60l-25 -415l154 415h74z" />
    <glyph glyph-name="Wdieresis.smcp" horiz-adv-x="480" 
d="M322 0h-74l27 404l-151 -404h-74l25 550h73l-29 -415l158 415h60l-25 -415l154 415h74zM443 658c0 -26 -23 -48 -49 -48c-21 0 -38 16 -38 39c0 25 23 47 49 47c21 0 38 -16 38 -38zM303 658c0 -26 -23 -48 -49 -48c-22 0 -39 16 -39 39c0 25 23 47 49 47
c22 0 39 -16 39 -38z" />
    <glyph glyph-name="Wgrave.smcp" horiz-adv-x="480" 
d="M322 0h-74l27 404l-151 -404h-74l25 550h73l-29 -415l158 415h60l-25 -415l154 415h74zM356 606h-46l-68 144h67z" />
    <glyph glyph-name="Yacute.smcp" unicode="&#xf7fd;" horiz-adv-x="328" 
d="M386 750l-132 -144h-48l111 144h69zM146 0h-72l51 233l-58 317h74l36 -243l142 243h77l-199 -317z" />
    <glyph glyph-name="Ycircumflex.smcp" unicode="&#xf6a9;" horiz-adv-x="328" 
d="M345 606h-39l-38 105l-79 -105h-44l98 144h66zM146 0h-72l51 233l-58 317h74l36 -243l142 243h77l-199 -317z" />
    <glyph glyph-name="Ydieresis.smcp" unicode="&#xf7ff;" horiz-adv-x="328" 
d="M369 658c0 -26 -23 -48 -49 -48c-21 0 -38 16 -38 39c0 25 23 47 49 47c21 0 38 -16 38 -38zM229 658c0 -26 -23 -48 -49 -48c-22 0 -39 16 -39 39c0 25 23 47 49 47c22 0 39 -16 39 -38zM146 0h-72l51 233l-58 317h74l36 -243l142 243h77l-199 -317z" />
    <glyph glyph-name="Ygrave.smcp" horiz-adv-x="328" 
d="M146 0h-72l51 233l-58 317h74l36 -243l142 243h77l-199 -317zM281 606h-46l-68 144h67z" />
    <glyph glyph-name="Zacute.smcp" unicode="&#xf6ab;" horiz-adv-x="292" 
d="M363 750l-132 -144h-48l111 144h69zM211 0h-238l12 56l247 431h-152l14 63h232l-12 -55l-248 -432h159z" />
    <glyph glyph-name="Zcaron.smcp" unicode="&#xf6ff;" horiz-adv-x="292" 
d="M257 606h-66l-37 144h40l36 -105l81 105h43zM211 0h-238l12 56l247 431h-152l14 63h232l-12 -55l-248 -432h159z" />
    <glyph glyph-name="Zdotaccent.smcp" unicode="&#xf6ac;" horiz-adv-x="292" 
d="M211 0h-238l12 56l247 431h-152l14 63h232l-12 -55l-248 -432h159zM277 656c0 -27 -24 -49 -50 -49c-23 0 -40 17 -40 40c0 26 23 49 50 49c23 0 40 -17 40 -40z" />
    <glyph glyph-name="Eth.smcp" unicode="&#xf7f0;" horiz-adv-x="415" 
d="M157 0h-131l56 254h-59l12 52h58l54 244h87c92 0 158 -43 158 -174c0 -134 -64 -376 -235 -376zM166 63c99 0 153 207 153 312c0 82 -33 112 -92 112h-22l-40 -181h66l-12 -52h-66l-42 -191h55z" />
    <glyph glyph-name="Thorn.smcp" unicode="&#xf7fe;" horiz-adv-x="333" 
d="M74 0h-72l121 550h72l-21 -94h25c80 0 126 -42 126 -127c0 -93 -56 -206 -169 -206h-56zM142 185h17c59 0 91 79 91 138c0 47 -24 70 -64 70h-26l-47 -208h29z" />
    <glyph glyph-name="acute" unicode="&#xb4;" horiz-adv-x="146" 
d="M247 700l-132 -144h-48l111 144h69z" />
    <glyph glyph-name="dieresis" unicode="&#xa8;" horiz-adv-x="264" 
d="M325 608c0 -26 -23 -48 -49 -48c-21 0 -38 16 -38 39c0 25 23 47 49 47c21 0 38 -16 38 -38zM185 608c0 -26 -23 -48 -49 -48c-22 0 -39 16 -39 39c0 25 23 47 49 47c22 0 39 -16 39 -38z" />
    <glyph glyph-name="grave" unicode="`" horiz-adv-x="146" 
d="M215 556h-46l-68 144h67z" />
    <glyph glyph-name="uni02CB" unicode="&#x2cb;" horiz-adv-x="146" 
d="M215 556h-46l-68 144h67z" />
    </font>
</defs>
</svg>
